<svg xmlns="http://www.w3.org/2000/svg" width="103.636" height="100" viewBox="0 0 103.636 100">
  <g id="credit" transform="translate(-3.5 -4.5)">
    <path id="Path_5144" data-name="Path 5144" d="M31.273,42.273H5.818A1.819,1.819,0,0,1,4,40.455V36.818A1.819,1.819,0,0,1,5.818,35H31.273a1.819,1.819,0,0,1,1.818,1.818v3.636A1.819,1.819,0,0,1,31.273,42.273Z" transform="translate(0.409 24.955)" fill="#f9ac2f"/>
    <path id="Path_5145" data-name="Path 5145" d="M31.273,38.273H5.818A1.819,1.819,0,0,1,4,36.455V32.818A1.819,1.819,0,0,1,5.818,31H31.273a1.819,1.819,0,0,1,1.818,1.818v3.636A1.819,1.819,0,0,1,31.273,38.273Z" transform="translate(0.409 21.682)" fill="#f9ac2f"/>
    <path id="Path_5146" data-name="Path 5146" d="M31.273,34.273H5.818A1.819,1.819,0,0,1,4,32.455V28.818A1.819,1.819,0,0,1,5.818,27H31.273a1.819,1.819,0,0,1,1.818,1.818v3.636A1.819,1.819,0,0,1,31.273,34.273Z" transform="translate(0.409 18.409)" fill="#f9ac2f"/>
    <path id="Path_5147" data-name="Path 5147" d="M31.273,30.273H5.818A1.819,1.819,0,0,1,4,28.455V24.818A1.819,1.819,0,0,1,5.818,23H31.273a1.819,1.819,0,0,1,1.818,1.818v3.636A1.819,1.819,0,0,1,31.273,30.273Z" transform="translate(0.409 15.136)" fill="#f9ac2f"/>
    <path id="Path_5148" data-name="Path 5148" d="M64.545,103.182H31.818A1.819,1.819,0,0,1,30,101.364V6.818A1.819,1.819,0,0,1,31.818,5H64.545a1.819,1.819,0,0,1,1.818,1.818v94.545A1.819,1.819,0,0,1,64.545,103.182Z" transform="translate(21.682 0.409)" fill="#f7f8fb"/>
    <path id="Path_5149" data-name="Path 5149" d="M64.955,104.5H32.227a2.731,2.731,0,0,1-2.727-2.727V7.227A2.731,2.731,0,0,1,32.227,4.5H64.955a2.731,2.731,0,0,1,2.727,2.727v94.545A2.731,2.731,0,0,1,64.955,104.5ZM32.227,6.318a.909.909,0,0,0-.909.909v94.545a.909.909,0,0,0,.909.909H64.955a.909.909,0,0,0,.909-.909V7.227a.909.909,0,0,0-.909-.909Z" transform="translate(21.273)" fill="#212a41"/>
    <path id="Path_5150" data-name="Path 5150" d="M32.409,99.227a.909.909,0,0,1-.909-.909V7.409a.909.909,0,0,1,1.818,0V98.318A.909.909,0,0,1,32.409,99.227Z" transform="translate(22.909 1.636)" fill="#e0e0e0"/>
    <path id="Path_5151" data-name="Path 5151" d="M70.545,103.182H37.818A1.819,1.819,0,0,1,36,101.364V6.818A1.819,1.819,0,0,1,37.818,5H70.545a1.819,1.819,0,0,1,1.818,1.818v94.545A1.819,1.819,0,0,1,70.545,103.182Z" transform="translate(26.591 0.409)" fill="#fcfcfc"/>
    <path id="Path_5152" data-name="Path 5152" d="M70.955,104.5H38.227a2.731,2.731,0,0,1-2.727-2.727V7.227A2.731,2.731,0,0,1,38.227,4.5H70.955a2.731,2.731,0,0,1,2.727,2.727v94.545A2.731,2.731,0,0,1,70.955,104.5ZM38.227,6.318a.909.909,0,0,0-.909.909v94.545a.909.909,0,0,0,.909.909H70.955a.909.909,0,0,0,.909-.909V7.227a.909.909,0,0,0-.909-.909Z" transform="translate(26.182)" fill="#212a41"/>
    <path id="Path_5153" data-name="Path 5153" d="M31.273,54.273H5.818A1.819,1.819,0,0,1,4,52.455V48.818A1.819,1.819,0,0,1,5.818,47H31.273a1.819,1.819,0,0,1,1.818,1.818v3.636A1.819,1.819,0,0,1,31.273,54.273Z" transform="translate(0.409 34.773)" fill="#f9ac2f"/>
    <path id="Path_5154" data-name="Path 5154" d="M31.682,55.591H6.227A2.731,2.731,0,0,1,3.5,52.864V49.227A2.731,2.731,0,0,1,6.227,46.5H31.682a2.731,2.731,0,0,1,2.727,2.727v3.636A2.731,2.731,0,0,1,31.682,55.591ZM6.227,48.318a.909.909,0,0,0-.909.909v3.636a.909.909,0,0,0,.909.909H31.682a.909.909,0,0,0,.909-.909V49.227a.909.909,0,0,0-.909-.909Z" transform="translate(0 34.364)" fill="#212a41"/>
    <path id="Path_5155" data-name="Path 5155" d="M31.273,50.273H5.818A1.819,1.819,0,0,1,4,48.455V44.818A1.819,1.819,0,0,1,5.818,43H31.273a1.819,1.819,0,0,1,1.818,1.818v3.636A1.819,1.819,0,0,1,31.273,50.273Z" transform="translate(0.409 31.5)" fill="#f9ac2f"/>
    <path id="Path_5156" data-name="Path 5156" d="M31.273,46.273H5.818A1.819,1.819,0,0,1,4,44.455V40.818A1.819,1.819,0,0,1,5.818,39H31.273a1.819,1.819,0,0,1,1.818,1.818v3.636A1.819,1.819,0,0,1,31.273,46.273Z" transform="translate(0.409 28.227)" fill="#f9ac2f"/>
    <path id="Path_5157" data-name="Path 5157" d="M31.273,62.273H5.818A1.819,1.819,0,0,1,4,60.455V56.818A1.819,1.819,0,0,1,5.818,55H31.273a1.819,1.819,0,0,1,1.818,1.818v3.636A1.819,1.819,0,0,1,31.273,62.273Z" transform="translate(0.409 41.318)" fill="#f9ac2f"/>
    <path id="Path_5158" data-name="Path 5158" d="M31.273,58.273H5.818A1.819,1.819,0,0,1,4,56.455V52.818A1.819,1.819,0,0,1,5.818,51H31.273a1.819,1.819,0,0,1,1.818,1.818v3.636A1.819,1.819,0,0,1,31.273,58.273Z" transform="translate(0.409 38.045)" fill="#f9ac2f"/>
    <path id="Path_5159" data-name="Path 5159" d="M6.409,84.5a.909.909,0,0,1-.909-.909V25.409a.909.909,0,1,1,1.818,0V83.591A.909.909,0,0,1,6.409,84.5Z" transform="translate(1.636 16.364)" fill="#ffca4d"/>
    <path id="Path_5160" data-name="Path 5160" d="M18.409,84.5a.909.909,0,0,1-.909-.909V25.409a.909.909,0,1,1,1.818,0V83.591A.909.909,0,0,1,18.409,84.5Z" transform="translate(11.455 16.364)" fill="#db8e11"/>
    <g id="Group_9895" data-name="Group 9895" transform="translate(3.5 37.227)">
      <path id="Path_5161" data-name="Path 5161" d="M31.682,63.591H6.227A2.731,2.731,0,0,1,3.5,60.864V57.227A2.731,2.731,0,0,1,6.227,54.5H31.682a2.731,2.731,0,0,1,2.727,2.727v3.636A2.731,2.731,0,0,1,31.682,63.591ZM6.227,56.318a.909.909,0,0,0-.909.909v3.636a.909.909,0,0,0,.909.909H31.682a.909.909,0,0,0,.909-.909V57.227a.909.909,0,0,0-.909-.909Z" transform="translate(-3.5 3.682)" fill="#212a41"/>
      <path id="Path_5162" data-name="Path 5162" d="M31.682,59.591H6.227A2.731,2.731,0,0,1,3.5,56.864V53.227A2.731,2.731,0,0,1,6.227,50.5H31.682a2.731,2.731,0,0,1,2.727,2.727v3.636A2.731,2.731,0,0,1,31.682,59.591ZM6.227,52.318a.909.909,0,0,0-.909.909v3.636a.909.909,0,0,0,.909.909H31.682a.909.909,0,0,0,.909-.909V53.227a.909.909,0,0,0-.909-.909Z" transform="translate(-3.5 0.409)" fill="#212a41"/>
      <path id="Path_5163" data-name="Path 5163" d="M31.682,51.591H6.227A2.731,2.731,0,0,1,3.5,48.864V45.227A2.731,2.731,0,0,1,6.227,42.5H31.682a2.731,2.731,0,0,1,2.727,2.727v3.636A2.731,2.731,0,0,1,31.682,51.591ZM6.227,44.318a.909.909,0,0,0-.909.909v3.636a.909.909,0,0,0,.909.909H31.682a.909.909,0,0,0,.909-.909V45.227a.909.909,0,0,0-.909-.909Z" transform="translate(-3.5 -6.136)" fill="#212a41"/>
      <path id="Path_5164" data-name="Path 5164" d="M31.682,47.591H6.227A2.731,2.731,0,0,1,3.5,44.864V41.227A2.731,2.731,0,0,1,6.227,38.5H31.682a2.731,2.731,0,0,1,2.727,2.727v3.636A2.731,2.731,0,0,1,31.682,47.591ZM6.227,40.318a.909.909,0,0,0-.909.909v3.636a.909.909,0,0,0,.909.909H31.682a.909.909,0,0,0,.909-.909V41.227a.909.909,0,0,0-.909-.909Z" transform="translate(-3.5 -9.409)" fill="#212a41"/>
      <path id="Path_5165" data-name="Path 5165" d="M31.682,43.591H6.227A2.731,2.731,0,0,1,3.5,40.864V37.227A2.731,2.731,0,0,1,6.227,34.5H31.682a2.731,2.731,0,0,1,2.727,2.727v3.636A2.731,2.731,0,0,1,31.682,43.591ZM6.227,36.318a.909.909,0,0,0-.909.909v3.636a.909.909,0,0,0,.909.909H31.682a.909.909,0,0,0,.909-.909V37.227a.909.909,0,0,0-.909-.909Z" transform="translate(-3.5 -12.682)" fill="#212a41"/>
      <path id="Path_5166" data-name="Path 5166" d="M31.682,39.591H6.227A2.731,2.731,0,0,1,3.5,36.864V33.227A2.731,2.731,0,0,1,6.227,30.5H31.682a2.731,2.731,0,0,1,2.727,2.727v3.636A2.731,2.731,0,0,1,31.682,39.591ZM6.227,32.318a.909.909,0,0,0-.909.909v3.636a.909.909,0,0,0,.909.909H31.682a.909.909,0,0,0,.909-.909V33.227a.909.909,0,0,0-.909-.909Z" transform="translate(-3.5 -15.955)" fill="#212a41"/>
      <path id="Path_5167" data-name="Path 5167" d="M31.682,35.591H6.227A2.731,2.731,0,0,1,3.5,32.864V29.227A2.731,2.731,0,0,1,6.227,26.5H31.682a2.731,2.731,0,0,1,2.727,2.727v3.636A2.731,2.731,0,0,1,31.682,35.591ZM6.227,28.318a.909.909,0,0,0-.909.909v3.636a.909.909,0,0,0,.909.909H31.682a.909.909,0,0,0,.909-.909V29.227a.909.909,0,0,0-.909-.909Z" transform="translate(-3.5 -19.227)" fill="#212a41"/>
      <path id="Path_5168" data-name="Path 5168" d="M31.682,31.591H6.227A2.731,2.731,0,0,1,3.5,28.864V25.227A2.731,2.731,0,0,1,6.227,22.5H31.682a2.731,2.731,0,0,1,2.727,2.727v3.636A2.731,2.731,0,0,1,31.682,31.591ZM6.227,24.318a.909.909,0,0,0-.909.909v3.636a.909.909,0,0,0,.909.909H31.682a.909.909,0,0,0,.909-.909V25.227a.909.909,0,0,0-.909-.909Z" transform="translate(-3.5 -22.5)" fill="#212a41"/>
    </g>
    <path id="Path_5169" data-name="Path 5169" d="M49.455,32.909H45.818c-1,0-1.818-.234-1.818-.523V12.523c0-.289.815-.523,1.818-.523h3.636c1,0,1.818.234,1.818.523V32.386C51.273,32.675,50.458,32.909,49.455,32.909Z" transform="translate(33.136 6.136)" fill="#9527bc"/>
    <path id="Path_5197" data-name="Path 5197" d="M49.455,64.727H45.818c-1,0-1.818-.591-1.818-1.318V13.318c0-.728.815-1.318,1.818-1.318h3.636c1,0,1.818.591,1.818,1.318V63.409C51.273,64.137,50.458,64.727,49.455,64.727Z" transform="translate(33.136 26.136)" fill="#9527bc" opacity="0.38"/>
    <path id="Path_5170" data-name="Path 5170" d="M49.864,86.045H46.227A2.731,2.731,0,0,1,43.5,83.318V14.227A2.731,2.731,0,0,1,46.227,11.5h3.636a2.731,2.731,0,0,1,2.727,2.727V83.318A2.731,2.731,0,0,1,49.864,86.045ZM46.227,13.318a.909.909,0,0,0-.909.909V83.318a.909.909,0,0,0,.909.909h3.636a.909.909,0,0,0,.909-.909V14.227a.909.909,0,0,0-.909-.909Z" transform="translate(32.727 5.727)" fill="#212a41"/>
    <circle id="Ellipse_4" data-name="Ellipse 4" cx="14.545" cy="14.545" r="14.545" transform="translate(4.409 5.409)" fill="#f9ac2f"/>
    <path id="Path_5171" data-name="Path 5171" d="M18.955,35.409A15.455,15.455,0,1,1,34.409,19.955,15.472,15.472,0,0,1,18.955,35.409Zm0-29.091A13.636,13.636,0,1,0,32.591,19.955,13.651,13.651,0,0,0,18.955,6.318Z" transform="translate(0)" fill="#212a41"/>
    <path id="Path_5172" data-name="Path 5172" d="M12.409,25.227a.909.909,0,0,1,0-1.818,10.011,10.011,0,0,0,10-10,.909.909,0,1,1,1.818,0A11.832,11.832,0,0,1,12.409,25.227Z" transform="translate(6.545 6.545)" fill="#db8e11"/>
    <path id="Path_5173" data-name="Path 5173" d="M6.409,19.227a.909.909,0,0,1-.909-.909A11.832,11.832,0,0,1,17.318,6.5a.909.909,0,1,1,0,1.818,10.011,10.011,0,0,0-10,10A.909.909,0,0,1,6.409,19.227Z" transform="translate(1.636 1.636)" fill="#ffca4d"/>
    <path id="Path_5174" data-name="Path 5174" d="M14.955,22.227H10.409a.909.909,0,0,1,0-1.818h4.545a1.818,1.818,0,1,0,0-3.636H13.136a3.636,3.636,0,1,1,0-7.273h4.545a.909.909,0,1,1,0,1.818H13.136a1.818,1.818,0,0,0,0,3.636h1.818a3.636,3.636,0,1,1,0,7.273Z" transform="translate(4.909 4.091)" fill="#212a41"/>
    <path id="Path_5175" data-name="Path 5175" d="M12.409,12.955a.909.909,0,0,1-.909-.909V8.409a.909.909,0,1,1,1.818,0v3.636A.909.909,0,0,1,12.409,12.955Z" transform="translate(6.545 2.455)" fill="#212a41"/>
    <path id="Path_5176" data-name="Path 5176" d="M12.409,20.955a.909.909,0,0,1-.909-.909V16.409a.909.909,0,0,1,1.818,0v3.636A.909.909,0,0,1,12.409,20.955Z" transform="translate(6.545 9)" fill="#212a41"/>
    <path id="Path_5177" data-name="Path 5177" d="M43.273,54.273H17.818A1.819,1.819,0,0,1,16,52.455V48.818A1.819,1.819,0,0,1,17.818,47H43.273a1.819,1.819,0,0,1,1.818,1.818v3.636A1.819,1.819,0,0,1,43.273,54.273Z" transform="translate(10.227 34.773)" fill="#f9ac2f"/>
    <path id="Path_5178" data-name="Path 5178" d="M43.682,55.591H18.227A2.731,2.731,0,0,1,15.5,52.864V49.227A2.731,2.731,0,0,1,18.227,46.5H43.682a2.731,2.731,0,0,1,2.727,2.727v3.636A2.731,2.731,0,0,1,43.682,55.591ZM18.227,48.318a.909.909,0,0,0-.909.909v3.636a.909.909,0,0,0,.909.909H43.682a.909.909,0,0,0,.909-.909V49.227a.909.909,0,0,0-.909-.909Z" transform="translate(9.818 34.364)" fill="#212a41"/>
    <path id="Path_5179" data-name="Path 5179" d="M43.273,50.273H17.818A1.819,1.819,0,0,1,16,48.455V44.818A1.819,1.819,0,0,1,17.818,43H43.273a1.819,1.819,0,0,1,1.818,1.818v3.636A1.819,1.819,0,0,1,43.273,50.273Z" transform="translate(10.227 31.5)" fill="#f9ac2f"/>
    <path id="Path_5180" data-name="Path 5180" d="M43.273,46.273H17.818A1.819,1.819,0,0,1,16,44.455V40.818A1.819,1.819,0,0,1,17.818,39H43.273a1.819,1.819,0,0,1,1.818,1.818v3.636A1.819,1.819,0,0,1,43.273,46.273Z" transform="translate(10.227 28.227)" fill="#f9ac2f"/>
    <path id="Path_5181" data-name="Path 5181" d="M43.273,62.273H17.818A1.819,1.819,0,0,1,16,60.455V56.818A1.819,1.819,0,0,1,17.818,55H43.273a1.819,1.819,0,0,1,1.818,1.818v3.636A1.819,1.819,0,0,1,43.273,62.273Z" transform="translate(10.227 41.318)" fill="#f9ac2f"/>
    <path id="Path_5182" data-name="Path 5182" d="M43.273,58.273H17.818A1.819,1.819,0,0,1,16,56.455V52.818A1.819,1.819,0,0,1,17.818,51H43.273a1.819,1.819,0,0,1,1.818,1.818v3.636A1.819,1.819,0,0,1,43.273,58.273Z" transform="translate(10.227 38.045)" fill="#f9ac2f"/>
    <path id="Path_5183" data-name="Path 5183" d="M18.409,71.409A.909.909,0,0,1,17.5,70.5V41.409a.909.909,0,0,1,1.818,0V70.5A.909.909,0,0,1,18.409,71.409Z" transform="translate(11.455 29.455)" fill="#ffca4d"/>
    <path id="Path_5184" data-name="Path 5184" d="M30.409,71.409A.909.909,0,0,1,29.5,70.5V41.409a.909.909,0,0,1,1.818,0V70.5A.909.909,0,0,1,30.409,71.409Z" transform="translate(21.273 29.455)" fill="#db8e11"/>
    <path id="Path_5185" data-name="Path 5185" d="M43.682,63.591H18.227A2.731,2.731,0,0,1,15.5,60.864V57.227A2.731,2.731,0,0,1,18.227,54.5H43.682a2.731,2.731,0,0,1,2.727,2.727v3.636A2.731,2.731,0,0,1,43.682,63.591ZM18.227,56.318a.909.909,0,0,0-.909.909v3.636a.909.909,0,0,0,.909.909H43.682a.909.909,0,0,0,.909-.909V57.227a.909.909,0,0,0-.909-.909Z" transform="translate(9.818 40.909)" fill="#212a41"/>
    <path id="Path_5186" data-name="Path 5186" d="M43.682,59.591H18.227A2.731,2.731,0,0,1,15.5,56.864V53.227A2.731,2.731,0,0,1,18.227,50.5H43.682a2.731,2.731,0,0,1,2.727,2.727v3.636A2.731,2.731,0,0,1,43.682,59.591ZM18.227,52.318a.909.909,0,0,0-.909.909v3.636a.909.909,0,0,0,.909.909H43.682a.909.909,0,0,0,.909-.909V53.227a.909.909,0,0,0-.909-.909Z" transform="translate(9.818 37.636)" fill="#212a41"/>
    <path id="Path_5187" data-name="Path 5187" d="M43.682,51.591H18.227A2.731,2.731,0,0,1,15.5,48.864V45.227A2.731,2.731,0,0,1,18.227,42.5H43.682a2.731,2.731,0,0,1,2.727,2.727v3.636A2.731,2.731,0,0,1,43.682,51.591ZM18.227,44.318a.909.909,0,0,0-.909.909v3.636a.909.909,0,0,0,.909.909H43.682a.909.909,0,0,0,.909-.909V45.227a.909.909,0,0,0-.909-.909Z" transform="translate(9.818 31.091)" fill="#212a41"/>
    <path id="Path_5188" data-name="Path 5188" d="M43.682,47.591H18.227A2.731,2.731,0,0,1,15.5,44.864V41.227A2.731,2.731,0,0,1,18.227,38.5H43.682a2.731,2.731,0,0,1,2.727,2.727v3.636A2.731,2.731,0,0,1,43.682,47.591ZM18.227,40.318a.909.909,0,0,0-.909.909v3.636a.909.909,0,0,0,.909.909H43.682a.909.909,0,0,0,.909-.909V41.227a.909.909,0,0,0-.909-.909Z" transform="translate(9.818 27.818)" fill="#212a41"/>
    <path id="Path_5189" data-name="Path 5189" d="M30.682,24.318H23.409a.909.909,0,0,1,0-1.818h7.273a.909.909,0,0,1,0,1.818Z" transform="translate(15.545 14.727)" fill="#212a41"/>
    <path id="Path_5190" data-name="Path 5190" d="M51.682,24.318H44.409a.909.909,0,0,1,0-1.818h7.273a.909.909,0,1,1,0,1.818Z" transform="translate(32.727 14.727)" fill="#212a41"/>
    <path id="Path_5191" data-name="Path 5191" d="M54.409,99.227a.909.909,0,0,1-.909-.909V7.409a.909.909,0,0,1,1.818,0V98.318A.909.909,0,0,1,54.409,99.227Z" transform="translate(40.909 1.636)" fill="#ebedf3"/>
    <path id="Path_5192" data-name="Path 5192" d="M38.409,99.227a.909.909,0,0,1-.909-.909V7.409a.909.909,0,1,1,1.818,0V98.318A.909.909,0,0,1,38.409,99.227Z" transform="translate(27.818 1.636)" fill="#fefefe"/>
    <path id="Path_5193" data-name="Path 5193" d="M66.545,36.182,52,27.091,66.545,18Z" transform="translate(39.682 11.045)" fill="#d32e5e"/>
    <path id="Path_5194" data-name="Path 5194" d="M66.955,37.5a.9.9,0,0,1-.482-.138L51.927,28.271a.909.909,0,0,1,0-1.542l14.545-9.091a.908.908,0,0,1,1.391.771V36.591a.907.907,0,0,1-.909.909Zm-12.831-10,11.922,7.451v-14.9Z" transform="translate(39.273 10.636)" fill="#212a41"/>
    <path id="Path_5195" data-name="Path 5195" d="M37.682,24.318H30.409a.909.909,0,0,1,0-1.818h7.273a.909.909,0,1,1,0,1.818Z" transform="translate(21.273 14.727)" fill="#212a41"/>
    <path id="Path_5196" data-name="Path 5196" d="M44.682,24.318H37.409a.909.909,0,0,1,0-1.818h7.273a.909.909,0,0,1,0,1.818Z" transform="translate(27 14.727)" fill="#212a41"/>
  </g>
</svg>
