<svg xmlns="http://www.w3.org/2000/svg" width="138.092" height="176.675" viewBox="0 0 138.092 176.675">
  <g id="download_1_" data-name="download (1)" transform="translate(-55.907)">
    <g id="Group_9970" data-name="Group 9970" transform="translate(58.495 2.588)">
      <path id="Path_5220" data-name="Path 5220" d="M75.549,147.936H68.574a5.167,5.167,0,0,1-5.167-5.167V12.667A5.167,5.167,0,0,1,68.574,7.5H177.082a5.265,5.265,0,0,1,5.265,5.265V33.551Z" transform="translate(-63.407 -7.5)" fill="#f7f8fb"/>
      <path id="Path_5221" data-name="Path 5221" d="M219.366,70.447v107.32a5.168,5.168,0,0,1-5.166,5.169H103.761a5.171,5.171,0,0,1-5.169-5.169V47.666a5.168,5.168,0,0,1,5.169-5.166h87.654l27.947,27.944Z" transform="translate(-86.451 -30.423)" fill="#1e7af0"/>
      <path id="Path_5222" data-name="Path 5222" d="M219.366,70.447v107.32a5.168,5.168,0,0,1-5.166,5.169H103.761a5.171,5.171,0,0,1-5.169-5.169v-4.324H205.229a5.168,5.168,0,0,0,5.166-5.169V70.447l0,0L189.345,42.5h2.07l27.947,27.944Z" transform="translate(-86.451 -30.423)" fill="#4588de"/>
      <path id="Path_5223" data-name="Path 5223" d="M395.539,70.444H367.592V42.5Z" transform="translate(-262.627 -30.423)" fill="#1e7af0"/>
      <path id="Path_5224" data-name="Path 5224" d="M395.539,70.444h-8.972L367.592,45.25V42.5Z" transform="translate(-262.627 -30.423)" fill="#4588de"/>
      <path id="Path_5225" data-name="Path 5225" d="M246.917,361.027A29.933,29.933,0,1,1,217,331.11,29.916,29.916,0,0,1,246.917,361.027Z" transform="translate(-144.406 -219.442)" fill="#29bf56"/>
      <path id="Path_5226" data-name="Path 5226" d="M294.858,361.027a29.933,29.933,0,0,1-34.576,29.552,29.918,29.918,0,0,0,0-59.107,29.933,29.933,0,0,1,34.576,29.555Z" transform="translate(-192.347 -219.442)" fill="rgba(255,255,255,0.32)"/>
    </g>
    <g id="Group_9971" data-name="Group 9971" transform="translate(55.907 0)">
      <path id="Path_5227" data-name="Path 5227" d="M193.24,40.784,180.023,27.567V7.853A7.862,7.862,0,0,0,172.17,0H63.662a7.764,7.764,0,0,0-7.755,7.755v130.1a7.764,7.764,0,0,0,7.755,7.755h4.387v4.322a7.764,7.764,0,0,0,7.755,7.755H92.627a2.588,2.588,0,0,0,0-5.176H75.8a2.582,2.582,0,0,1-2.579-2.579V45.88a2.588,2.588,0,0,0-5.176,0v94.556H63.662a2.582,2.582,0,0,1-2.579-2.579V7.755a2.582,2.582,0,0,1,2.579-2.579H172.17a2.68,2.68,0,0,1,2.677,2.677V22.391l-9.557-9.557a2.589,2.589,0,0,0-1.83-.758H75.8a7.764,7.764,0,0,0-7.755,7.755v14a2.588,2.588,0,1,0,5.176,0v-14A2.582,2.582,0,0,1,75.8,17.253h85.068V42.609A2.588,2.588,0,0,0,163.46,45.2l25.363,0V149.933a2.582,2.582,0,0,1-2.579,2.579H169.622a2.588,2.588,0,0,0,0,5.176h16.622A7.764,7.764,0,0,0,194,149.933V42.614a2.589,2.589,0,0,0-.758-1.83Zm-27.192-.762V20.913l19.113,19.112Z" transform="translate(-55.907 0)"/>
      <path id="Path_5228" data-name="Path 5228" d="M241.069,175.456H179.156a2.588,2.588,0,0,0,0,5.176h61.913a2.588,2.588,0,0,0,0-5.176Z" transform="translate(-134.932 -114.912)" fill="#f7f8fb"/>
      <path id="Path_5229" data-name="Path 5229" d="M241.069,219.688H179.156a2.588,2.588,0,0,0,0,5.176h61.913a2.588,2.588,0,0,0,0-5.176Z" transform="translate(-134.932 -143.881)" fill="#f7f8fb"/>
      <path id="Path_5230" data-name="Path 5230" d="M335.363,264.8H323.131a2.588,2.588,0,0,0,0,5.176h12.232a2.588,2.588,0,0,0,0-5.176Z" transform="translate(-229.225 -173.427)" fill="#f7f8fb"/>
      <path id="Path_5231" data-name="Path 5231" d="M216.657,269.978a2.588,2.588,0,0,0,0-5.176h-37.5a2.588,2.588,0,0,0,0,5.176Z" transform="translate(-134.932 -173.427)" fill="#f7f8fb"/>
      <path id="Path_5232" data-name="Path 5232" d="M256.875,385.708l-6.9,6.9v-25.02a2.588,2.588,0,0,0-5.176,0v25.02l-6.9-6.9a2.588,2.588,0,0,0-3.66,3.66l11.317,11.317a2.588,2.588,0,0,0,3.66,0l11.317-11.317a2.588,2.588,0,0,0-3.66-3.66Z" transform="translate(-172.207 -239.049)" fill="#fff"/>
      <path id="Path_5233" data-name="Path 5233" d="M212.085,323.61a32.5,32.5,0,1,0,32.505,32.5A32.541,32.541,0,0,0,212.085,323.61Zm0,59.831a27.328,27.328,0,1,1,27.329-27.327A27.359,27.359,0,0,1,212.085,383.441Z" transform="translate(-136.904 -211.942)"/>
    </g>
  </g>
</svg>
