<svg xmlns="http://www.w3.org/2000/svg" width="151.312" height="133.516" viewBox="0 0 151.312 133.516">
  <g id="Group_15794" data-name="Group 15794" transform="translate(-765.001 -358)">
    <g id="open-email" transform="translate(789.439 358)">
      <path id="Path_5122" data-name="Path 5122" d="M130.71,187.367v66.751a11.822,11.822,0,0,1-11.821,11.818H19.424A11.819,11.819,0,0,1,7.605,254.118V187.367Zm0,0" transform="translate(-5.72 -140.933)" fill="#f7f8fb"/>
      <path id="Path_5123" data-name="Path 5123" d="M69.661,264.731H19.424A11.819,11.819,0,0,1,7.605,252.913V185.766l13.127,11.328.819.681v33.688c0,11.461,4.624,22.324,15.169,26.821,9.729,4.149,27.036,6.448,32.941,6.448Zm0,0" transform="translate(-5.72 -139.728)" fill="#ebedf3"/>
      <path id="Path_5124" data-name="Path 5124" d="M130.709,52.156l-47.319-39.4a22.244,22.244,0,0,0-28.468,0L7.605,52.156,21.551,63.768,54.922,91.555a22.24,22.24,0,0,0,28.467,0l33.374-27.787L130.71,52.156" transform="translate(-5.72 -5.722)" fill="#1e7af0"/>
      <path id="Path_5125" data-name="Path 5125" d="M159.092,46.671v36.2l-33.374,27.787a22.24,22.24,0,0,1-28.467,0L63.879,82.871v-36.2A13.669,13.669,0,0,1,77.549,33h67.876a13.667,13.667,0,0,1,13.667,13.667Zm0,0" transform="translate(-48.048 -24.825)" fill="#bfdadd"/>
      <path id="Path_5126" data-name="Path 5126" d="M159.092,46.671v27.91l-33.374,27.787a22.24,22.24,0,0,1-28.467,0L63.879,74.581V46.671A13.669,13.669,0,0,1,77.549,33h67.876a13.667,13.667,0,0,1,13.667,13.667Zm0,0" transform="translate(-48.048 -24.825)" fill="#e4f5f7"/>
      <path id="Path_5127" data-name="Path 5127" d="M361.136,386.084a1.884,1.884,0,0,0,1.207-3.332L332.3,357.737a1.884,1.884,0,0,0-2.411,2.9l30.045,25.015A1.875,1.875,0,0,0,361.136,386.084Zm0,0" transform="translate(-247.621 -268.752)"/>
      <path id="Path_5128" data-name="Path 5128" d="M77.025,357.739,46.98,382.754a1.884,1.884,0,0,0,2.411,2.9l30.045-25.016a1.884,1.884,0,1,0-2.411-2.9Zm0,0" transform="translate(-34.826 -268.754)"/>
      <path id="Path_5129" data-name="Path 5129" d="M126.873,46.435a1.885,1.885,0,0,0-.679-1.448L112.927,33.94V21.847A15.568,15.568,0,0,0,97.376,6.3H79.723l-.848-.707a24.123,24.123,0,0,0-30.88,0l-.848.707H43.338a1.884,1.884,0,0,0,0,3.769H97.376a11.8,11.8,0,0,1,11.782,11.782V34.813h0v22.35l-32.7,27.222a20.354,20.354,0,0,1-26.056,0L17.715,57.164V21.847A11.8,11.8,0,0,1,29.5,10.065h6.3a1.884,1.884,0,1,0,0-3.769H29.5A15.57,15.57,0,0,0,13.946,21.847V33.94L.678,44.988A1.881,1.881,0,0,0,0,46.421c0,.006,0,.01,0,.015v66.75a13.718,13.718,0,0,0,13.7,13.7h84.4a1.884,1.884,0,0,0,0-3.768H13.7a9.946,9.946,0,0,1-9.934-9.934V50.456L14.63,59.5h0l33.364,27.78a24.124,24.124,0,0,0,30.879,0l33.36-27.775.015-.014L123.1,50.457v62.728a9.946,9.946,0,0,1-9.934,9.934h-7.525a1.884,1.884,0,0,0,0,3.769h7.525a13.719,13.719,0,0,0,13.7-13.7V46.451s0-.01,0-.015ZM73.253,6.3H53.619A20.361,20.361,0,0,1,73.253,6.3ZM13.946,38.844V54.027L4.829,46.436Zm98.981,15.181V38.844l9.117,7.591Zm0,0" transform="translate(0.001 -0.001)"/>
      <path id="Path_5130" data-name="Path 5130" d="M194.014,210.625h-55.27a1.884,1.884,0,1,0,0,3.769h55.27a1.884,1.884,0,1,0,0-3.769Zm0,0" transform="translate(-102.941 -158.427)"/>
      <path id="Path_5131" data-name="Path 5131" d="M194.014,254.781h-55.27a1.884,1.884,0,1,0,0,3.769h55.27a1.884,1.884,0,1,0,0-3.769Zm0,0" transform="translate(-102.941 -191.64)"/>
      <path id="Path_5132" data-name="Path 5132" d="M194.014,122.309h-55.27a1.884,1.884,0,1,0,0,3.769h55.27a1.884,1.884,0,1,0,0-3.769Zm0,0" transform="translate(-102.941 -91.998)"/>
      <path id="Path_5133" data-name="Path 5133" d="M319.83,166.469H306.012a1.884,1.884,0,0,0,0,3.768H319.83a1.884,1.884,0,0,0,0-3.768Zm0,0" transform="translate(-228.757 -125.214)"/>
      <path id="Path_5134" data-name="Path 5134" d="M138.744,170.237h35.172a1.884,1.884,0,1,0,0-3.768H138.744a1.884,1.884,0,1,0,0,3.768Zm0,0" transform="translate(-102.942 -125.214)"/>
    </g>
    <g id="Group_9792" data-name="Group 9792" transform="translate(768 428.671)">
      <g id="padlock" transform="translate(0 0.003)">
        <g id="Union_1" data-name="Union 1" fill="#f3f3f3">
          <path d="M 41.28475952148438 61.34220123291016 L 3.770120620727539 61.34220123291016 C 0.8641706705093384 61.34220123291016 -1.499999403953552 58.97718048095703 -1.499999403953552 56.0701789855957 L -1.499999403953552 28.83508110046387 C -1.499999403953552 25.92808151245117 0.8641706705093384 23.56306076049805 3.770120620727539 23.56306076049805 L 4.221330642700195 23.56306076049805 L 4.221330642700195 16.80230140686035 C 4.221330642700195 6.710380554199219 12.4321403503418 -1.499999403953552 22.52459144592285 -1.499999403953552 C 32.61756134033203 -1.499999403953552 40.82878875732422 6.710380554199219 40.82878875732422 16.80230140686035 L 40.82878875732422 23.55735015869141 L 41.28475952148438 23.55735015869141 C 44.18809127807617 23.55735015869141 46.55012130737305 25.92193984985352 46.55012130737305 28.82842063903809 L 46.55012130737305 56.0701789855957 L 46.55012130737305 56.16820907592773 L 46.55012130737305 56.18782043457031 L 46.54961013793945 56.20743179321289 C 46.51354217529297 57.58633041381836 45.95009231567383 58.87710952758789 44.96306228637695 59.84201049804688 C 43.97344970703125 60.80942153930664 42.66714096069336 61.34220123291016 41.28475952148438 61.34220123291016 Z M 12.87984085083008 23.56306076049805 L 32.17694091796875 23.56306076049805 L 32.17694091796875 16.80230140686035 C 32.17694091796875 11.48050022125244 27.84691047668457 7.150900840759277 22.52459144592285 7.150900840759277 C 17.20646095275879 7.150900840759277 12.87984085083008 11.48050022125244 12.87984085083008 16.80230140686035 L 12.87984085083008 23.56306076049805 Z" stroke="none"/>
          <path d="M 41.28475952148438 59.84220123291016 C 43.33020401000977 59.84220123291016 44.9968147277832 58.2060432434082 45.05012893676758 56.168212890625 C 45.05012893676758 56.13585662841797 45.05012893676758 56.10348892211914 45.05012893676758 56.0701789855957 L 45.05012893676758 28.82842254638672 C 45.05012893676758 26.7458553314209 43.3625602722168 25.0573558807373 41.28475952148438 25.0573558807373 L 39.32879257202148 25.0573558807373 L 39.32879257202148 16.80230140686035 C 39.32879257202148 7.535478591918945 31.79140472412109 6.164550541143399e-07 22.52458381652832 6.164550541143399e-07 C 13.25871658325195 6.164550541143399e-07 5.721327304840088 7.535478591918945 5.721327304840088 16.80230140686035 L 5.721327304840088 25.06305694580078 L 3.770116090774536 25.06305694580078 C 1.687560677528381 25.06305694580078 5.098131168779219e-06 26.75157928466797 5.098131168779219e-06 28.8350887298584 L 5.098131168779219e-06 56.0701789855957 C 5.098131168779219e-06 58.15369033813477 1.687560677528381 59.84220123291016 3.770116090774536 59.84220123291016 L 41.28475952148438 59.84220123291016 M 22.52458381652832 5.650900840759277 C 28.67232704162598 5.650900840759277 33.67693710327148 10.64790058135986 33.67693710327148 16.80230140686035 L 33.67693710327148 25.0573558807373 L 32.76130676269531 25.0573558807373 C 32.70229339599609 25.0573558807373 32.64518356323242 25.06019973754883 32.5861701965332 25.06305694580078 L 11.37983798980713 25.06305694580078 L 11.37983798980713 16.80230140686035 C 11.37983798980713 10.64790058135986 16.37779426574707 5.650900840759277 22.52458381652832 5.650900840759277 M 41.28475952148438 62.84220123291016 L 3.770116090774536 62.84220123291016 C 0.03706065192818642 62.84220123291016 -2.999994993209839 59.80429077148438 -2.999994993209839 56.0701789855957 L -2.999994993209839 28.8350887298584 C -2.999994993209839 25.45766067504883 -0.5155639052391052 22.64979553222656 2.721327304840088 22.14419174194336 L 2.721327304840088 16.80230140686035 C 2.721327304840088 5.883278369903564 11.6050271987915 -2.999999284744263 22.52458381652832 -2.999999284744263 C 33.44466018676758 -2.999999284744263 42.32879257202148 5.883278369903564 42.32879257202148 16.80230140686035 L 42.32879257202148 22.13785362243652 C 45.56533050537109 22.6417236328125 48.05012893676758 25.45010948181152 48.05012893676758 28.82842254638672 L 48.04910659790039 56.24666595458984 C 48.00277328491211 58.01772308349609 47.27918243408203 59.67551040649414 46.01161575317383 60.91463470458984 C 44.74009323120117 62.15764617919922 43.06139373779297 62.84220123291016 41.28475952148438 62.84220123291016 Z M 14.37983798980713 22.06305694580078 L 30.67693901062012 22.06305694580078 L 30.67693901062012 16.80230140686035 C 30.67693901062012 12.30760097503662 27.01980590820312 8.650900840759277 22.52458381652832 8.650900840759277 C 18.03355979919434 8.650900840759277 14.37983798980713 12.30760097503662 14.37983798980713 16.80230140686035 L 14.37983798980713 22.06305694580078 Z" stroke="none" fill="#0f0f0f"/>
        </g>
      </g>
      <g id="padlock-2" data-name="padlock" transform="translate(0 0)">
        <path id="Path_5135" data-name="Path 5135" d="M111.368,16.8V33.761h33.606V16.8a16.8,16.8,0,0,0-33.606,0Zm2.827,0a13.975,13.975,0,1,1,27.951,0V30.934H114.195Z" transform="translate(-105.649)" fill="#f3f3f3"/>
        <path id="Path_5136" data-name="Path 5136" d="M135.368,37.961V52.093h27.953V37.961a13.976,13.976,0,1,0-27.953,0Zm2.827,0a11.151,11.151,0,0,1,22.3,0V49.266h-22.3Z" transform="translate(-126.822 -21.159)" fill="#e5e5e5"/>
        <path id="Path_5137" data-name="Path 5137" d="M66.577,247.594h37.511a3.769,3.769,0,0,0,3.769-3.769v-27.24a3.77,3.77,0,0,0-3.769-3.769H66.577a3.769,3.769,0,0,0-3.769,3.769v27.24A3.768,3.768,0,0,0,66.577,247.594Z" transform="translate(-62.808 -187.75)" fill="#1e7af0"/>
        <path id="Path_5138" data-name="Path 5138" d="M285.121,232.6h1.427a2.183,2.183,0,0,0,2.182-2.2v-.183a2.306,2.306,0,0,0-2.3-2.316h-1.845a2.7,2.7,0,0,1-2.748-2.463,2.6,2.6,0,0,1,2.6-2.744h6.656a2.221,2.221,0,0,0,2.182-2.316v-.064a2.219,2.219,0,0,0-2.182-2.314h-2.152a2.7,2.7,0,0,1-2.748-2.463,2.6,2.6,0,0,1,2.6-2.744h8.522a3.769,3.769,0,0,1,3.769,3.769V243.81a3.769,3.769,0,0,1-3.769,3.769H286.278a2.6,2.6,0,1,1,0-5.209h3.483a2.183,2.183,0,0,0,2.178-2.19v-.028q0-.079.006-.158a2.063,2.063,0,0,0-2.06-2.188h-4.617a2.7,2.7,0,0,1-2.748-2.463A2.6,2.6,0,0,1,285.121,232.6Z" transform="translate(-256.035 -187.736)" fill="#1b6ed9"/>
        <path id="Path_5139" data-name="Path 5139" d="M205.96,290.783a5.663,5.663,0,1,1,8.5,4.875l.776,7.208h-7.227l.776-7.208A5.637,5.637,0,0,1,205.96,290.783Z" transform="translate(-189.099 -251.538)" fill="#fff"/>
        <g id="Group_9791" data-name="Group 9791" transform="translate(3.835 31.241)">
          <path id="Path_5140" data-name="Path 5140" d="M97.252,331.6a1.884,1.884,0,0,1,1.885,1.885v10.843a1.884,1.884,0,0,1-3.769,0V333.485A1.885,1.885,0,0,1,97.252,331.6Z" transform="translate(-95.368 -323.785)" fill="#1e9cf0"/>
          <path id="Path_5141" data-name="Path 5141" d="M97.252,265.248a1.884,1.884,0,0,1,1.885,1.884v2.207a1.884,1.884,0,1,1-3.769,0v-2.207A1.884,1.884,0,0,1,97.252,265.248Z" transform="translate(-95.368 -265.248)" fill="#1e9cf0"/>
        </g>
      </g>
    </g>
  </g>
</svg>
