<svg xmlns="http://www.w3.org/2000/svg" width="29.15" height="24.661" viewBox="0 0 29.15 24.661">
  <g id="renovation" transform="translate(0.258 0.164)">
    <path id="Path_5199" data-name="Path 5199" d="M128.886,103.178l9.959.105h0a.467.467,0,0,0,.321-.147.488.488,0,0,0,.133-.341V96h1.136a.459.459,0,0,0,.3-.807l-6.5-5.647a.463.463,0,0,0-.606,0l-6.522,5.648a.458.458,0,0,0,.3.806h1.02V102.7a.47.47,0,0,0,.454.475Zm6.254-.88-2.371-.022V99.582h2.371Zm3.238.03-2.313-.021V99.112a.462.462,0,0,0-.47-.455H132.31a.459.459,0,0,0-.466.455v3.155l-2.487-.023V96h9.021ZM133.934,90.5l5.267,4.573H128.653Zm0,0" transform="translate(-119.608 -84.177)" fill="#1e7af0" stroke="#1e7af0" stroke-width="0.5"/>
    <path id="Path_5200" data-name="Path 5200" d="M110.529,146.162a.463.463,0,0,0-.774,0l-3.1,4.733a.471.471,0,0,0,.387.728h2.513A10.822,10.822,0,0,1,105.9,158.2a10.262,10.262,0,0,1-6.526,2.554,9.7,9.7,0,0,1-4.443-1.147,11.063,11.063,0,0,1-3.79-3.252.463.463,0,1,0-.746.546,11.987,11.987,0,0,0,4.109,3.524,10.626,10.626,0,0,0,4.871,1.251,11.2,11.2,0,0,0,7.129-2.774,11.7,11.7,0,0,0,3.987-7.283h2.759a.47.47,0,0,0,.387-.725Zm-2.634,4.536,2.247-3.427,2.247,3.427Zm0,0" transform="translate(-85.073 -137.432)" fill="#1e7af0" stroke="#1e7af0" stroke-width="0.5"/>
    <path id="Path_5201" data-name="Path 5201" d="M7.078,10.391a.468.468,0,0,0-.407-.248H4.157A10.822,10.822,0,0,1,7.811,3.562a10.26,10.26,0,0,1,6.526-2.554A9.7,9.7,0,0,1,18.78,2.156a11.057,11.057,0,0,1,3.79,3.252.463.463,0,1,0,.747-.546,11.987,11.987,0,0,0-4.109-3.524A10.623,10.623,0,0,0,14.337.086,11.2,11.2,0,0,0,7.209,2.86a11.7,11.7,0,0,0-3.987,7.283H.463a.47.47,0,0,0-.387.725L3.18,15.6a.463.463,0,0,0,.774,0l3.1-4.735a.468.468,0,0,0,.02-.476Zm-3.511,4.1L1.319,11.068H5.814Zm0,0" fill="#1e7af0" stroke="#1e7af0" stroke-width="0.5"/>
  </g>
</svg>
