<svg xmlns="http://www.w3.org/2000/svg" width="58.353" height="50.994" viewBox="0 0 58.353 50.994">
  <g id="Group_10931" data-name="Group 10931" transform="translate(-139.244 -583.648)">
    <path id="Path_5964" data-name="Path 5964" d="M139.244,601.173v-1.14c.163-.3.323-.6.491-.894,2.68-4.72,5.381-9.427,8.023-14.167a2.29,2.29,0,0,1,2.269-1.323q18.408.04,36.816.017l.513,0a1.6,1.6,0,0,1,1.478.888q4.243,7.476,8.486,14.952a2.01,2.01,0,0,1,.275,1.019,8.193,8.193,0,0,1-4.482,7.229.84.84,0,0,0-.526.864q.024,12.082.011,24.164c0,1.333-.522,1.859-1.859,1.859q-22.312,0-44.624,0c-1.345,0-1.859-.516-1.859-1.853q0-12.025.011-24.05a.989.989,0,0,0-.612-1.046,8.033,8.033,0,0,1-3.277-3.153A10.557,10.557,0,0,1,139.244,601.173Zm7.9,30.556h5.036v-.793c0-4.749-.009-9.5,0-14.248a4.936,4.936,0,0,1,5.29-5.257c1.2,0,2.4-.061,3.589.021a6.508,6.508,0,0,1,2.3.508,4.727,4.727,0,0,1,2.779,4.593c.012,4.844,0,9.688,0,14.533v.634h23.556V608.727a8.592,8.592,0,0,1-4.152-.853,8.818,8.818,0,0,1-3.253-2.812,8.4,8.4,0,0,1-13.841.04,8.491,8.491,0,0,1-13.916-.017,8.493,8.493,0,0,1-7.4,3.654Zm-3.689-33.3H193.4c-.058-.122-.085-.19-.12-.253q-3.2-5.642-6.4-11.289c-.2-.349-.455-.335-.759-.335q-17.694,0-35.387-.009a.831.831,0,0,0-.841.492q-3.07,5.457-6.174,10.895C143.635,598.076,143.564,598.227,143.459,598.43Zm19.816,33.311c.012-.143.024-.217.024-.291q0-7.516,0-15.032a2.023,2.023,0,0,0-2.107-2.127c-1.233-.018-2.467-.005-3.7,0-1.651,0-2.417.753-2.418,2.386q0,7.232,0,14.463v.606ZM153,601.381H142.247a5.466,5.466,0,0,0,10.751,0Zm3.128-.023a5.475,5.475,0,0,0,6.121,4.451c2.809-.368,4.609-2.926,4.541-4.451Zm13.934.006a5.392,5.392,0,0,0,10.634,0Zm13.835.011a5.4,5.4,0,0,0,5.693,4.472c2.489-.131,4.928-2.311,4.98-4.472Z" transform="translate(0)" fill="#607180"/>
    <path id="Path_5965" data-name="Path 5965" d="M192.152,753.659v-22.99a8.493,8.493,0,0,0,7.4-3.654,8.491,8.491,0,0,0,13.916.018,8.4,8.4,0,0,0,13.841-.04,8.815,8.815,0,0,0,3.253,2.812,8.592,8.592,0,0,0,4.152.853V753.65H211.156v-.634c0-4.845.008-9.689,0-14.533a4.727,4.727,0,0,0-2.779-4.594,6.513,6.513,0,0,0-2.3-.508c-1.191-.082-2.392-.023-3.589-.021a4.936,4.936,0,0,0-5.29,5.257c-.013,4.749,0,9.5,0,14.248v.793Zm29.569-6.356c1.273,0,2.545.014,3.818,0a3.91,3.91,0,0,0,4.1-4.125q.023-2.849,0-5.7a3.921,3.921,0,0,0-4.124-4.113q-3.761-.015-7.522,0a3.92,3.92,0,0,0-4.132,4.1c-.021,1.9-.018,3.8,0,5.7a3.92,3.92,0,0,0,4.153,4.136C219.252,747.313,220.487,747.3,221.721,747.3Z" transform="translate(-45.004 -121.93)" fill="#fff"/>
    <path id="Path_5966" data-name="Path 5966" d="M167.456,614.923c.105-.2.177-.354.259-.5q3.09-5.446,6.174-10.9a.832.832,0,0,1,.841-.492q17.694.017,35.387.009c.3,0,.563-.014.759.334q3.183,5.655,6.4,11.29c.035.063.062.13.12.253Z" transform="translate(-23.997 -16.493)" fill="#fff"/>
    <path id="Path_5967" data-name="Path 5967" d="M253.381,806.165h-8.205v-.606q0-7.231,0-14.463c0-1.634.766-2.385,2.418-2.386,1.234,0,2.468-.013,3.7,0a2.023,2.023,0,0,1,2.107,2.127q.013,7.515,0,15.032C253.405,805.947,253.393,806.021,253.381,806.165Z" transform="translate(-90.107 -174.423)" fill="#ebedf3"/>
    <path id="Path_5968" data-name="Path 5968" d="M170.095,702.354a5.466,5.466,0,0,1-10.751,0Z" transform="translate(-17.097 -100.973)" fill="#ebedf3"/>
    <path id="Path_5969" data-name="Path 5969" d="M252.246,702.2h10.661c.068,1.525-1.732,4.083-4.541,4.451A5.475,5.475,0,0,1,252.246,702.2Z" transform="translate(-96.121 -100.842)" fill="#fff"/>
    <path id="Path_5970" data-name="Path 5970" d="M345.518,702.239h10.634a5.392,5.392,0,0,1-10.634,0Z" transform="translate(-175.459 -100.875)" fill="#fff"/>
    <path id="Path_5971" data-name="Path 5971" d="M438.129,702.311H448.8c-.051,2.162-2.49,4.341-4.98,4.472A5.4,5.4,0,0,1,438.129,702.311Z" transform="translate(-254.235 -100.936)" fill="#fbfcfd"/>
    <path id="Path_5972" data-name="Path 5972" d="M345.272,783.533c-1.234,0-2.469.01-3.7,0a3.92,3.92,0,0,1-4.153-4.136c-.017-1.9-.02-3.8,0-5.7a3.92,3.92,0,0,1,4.132-4.1q3.761-.015,7.522,0a3.921,3.921,0,0,1,4.124,4.114q.025,2.849,0,5.7a3.911,3.911,0,0,1-4.1,4.126C347.818,783.547,346.545,783.533,345.272,783.533Zm.035-2.865c1.252,0,2.505.007,3.757,0,.866-.006,1.266-.393,1.271-1.244q.014-2.846,0-5.693c0-.881-.407-1.278-1.3-1.28q-3.729-.01-7.458,0c-.892,0-1.294.4-1.3,1.283q-.012,2.818,0,5.636c0,.925.384,1.295,1.328,1.3C342.84,780.673,344.074,780.668,345.307,780.668Z" transform="translate(-168.556 -158.16)" fill="#607180"/>
    <path id="Path_5973" data-name="Path 5973" d="M361.659,796.945c-1.233,0-2.467,0-3.7,0-.944,0-1.325-.374-1.328-1.3q-.01-2.818,0-5.636c0-.883.405-1.281,1.3-1.283q3.729-.01,7.458,0c.894,0,1.3.4,1.3,1.28q.013,2.846,0,5.693c0,.852-.4,1.239-1.271,1.245C364.164,796.951,362.912,796.945,361.659,796.945Z" transform="translate(-184.907 -174.436)" fill="#ebedf3"/>
  </g>
</svg>
