<svg xmlns="http://www.w3.org/2000/svg" width="61.604" height="54.643" viewBox="0 0 61.604 54.643">
  <g id="Group_15654" data-name="Group 15654" transform="translate(-51.29 -443.9)">
    <g id="Group_14947" data-name="Group 14947" transform="translate(51.39 444)">
      <g id="Group_14945" data-name="Group 14945" transform="translate(16.167 1.187)">
        <path id="Path_9433" data-name="Path 9433" d="M384.474,205.767c-2.621,4.831-4.1,11.838,0,14.677a8.41,8.41,0,0,0,4.876,1.268h0c2.746,0,4.569-.78,5.7-2.039,2.335-2.61,1.662-7.283,0-11.327a23.009,23.009,0,0,0-2.9-5.133c-2.359-3.068-3.715-3.008-6.077.06a19.258,19.258,0,0,0-1.6,2.493Zm0,0" transform="translate(-352.526 -177.683)" fill="#fbfcfd" fill-rule="evenodd"/>
        <path id="Path_9434" data-name="Path 9434" d="M199.754,85.356c-4.1-2.839-2.621-9.847,0-14.677V47.144H171.618V94.665h28.136Zm0,0" transform="translate(-167.806 -42.596)" fill="#fff" fill-rule="evenodd"/>
        <path id="Path_9435" data-name="Path 9435" d="M224.7,198.98h5.1v4.875h-5.1Zm0,0" transform="translate(-214.426 -175.96)" fill="#ebedf3" fill-rule="evenodd"/>
        <path id="Path_9436" data-name="Path 9436" d="M223.645,114.363h5.1v4.875h-5.1Zm0,0" transform="translate(-213.503 -101.637)" fill="#ebedf3" fill-rule="evenodd"/>
        <path id="Path_9437" data-name="Path 9437" d="M310.488,114.363H315.6v4.875h-5.108Zm0,0" transform="translate(-289.781 -101.637)" fill="#ebedf3" fill-rule="evenodd"/>
        <path id="Path_9438" data-name="Path 9438" d="M311.539,198.98h5.1v4.875h-5.1Zm0,0" transform="translate(-290.704 -175.96)" fill="#ebedf3" fill-rule="evenodd"/>
        <path id="Path_9440" data-name="Path 9440" d="M230.254,315.977h6.561v14.815h-6.561Zm0,0" transform="translate(-219.308 -278.723)" fill="#ebedf3" fill-rule="evenodd"/>
        <path id="Path_9441" data-name="Path 9441" d="M284.184,315.977h6.561v14.815h-6.561Zm0,0" transform="translate(-266.677 -278.723)" fill="#ebedf3" fill-rule="evenodd"/>
        <path id="Path_9442" data-name="Path 9442" d="M144.093,14.306H173.77a2.274,2.274,0,0,0,0-4.548H142.553a2.274,2.274,0,0,0,0,4.548Zm0,0" transform="translate(-140.281 -9.758)" fill="#fff" fill-rule="evenodd"/>
      </g>
      <path id="Path_9452" data-name="Path 9452" d="M61.042,33.853a25.054,25.054,0,0,0-3.916-7.86c-1.04-1.352-2.322-2.734-3.951-2.735h0c-1.38,0-2.494.961-3.481,2.135V6.922h.353a3.461,3.461,0,0,0,0-6.923H18.829a3.461,3.461,0,0,0,0,6.923l.353,45.15-17.072,0H1.578a1.187,1.187,0,1,0,0,2.374H54.505a1.186,1.186,0,0,0,.065-2.371V46.353c3.83-.326,5.581-2.226,6.378-3.844,1.36-2.757.8-6.229.094-8.656ZM19.182,52.068h0Zm13.694,0H28.692V39.627h4.185Zm6.561,0H35.253V39.627h4.185Zm7.88,0h-5.5V38.44a1.188,1.188,0,0,0-1.189-1.187H27.5a1.188,1.188,0,0,0-1.189,1.187V52.068H21.559V6.922H29.7a1.187,1.187,0,1,0,0-2.374H18.829A1.1,1.1,0,0,1,17.746,3.46a1.086,1.086,0,0,1,1.083-1.087H50.047A1.086,1.086,0,0,1,51.13,3.46a1.1,1.1,0,0,1-1.083,1.087l-10.878,0h0a1.187,1.187,0,1,0,0,2.374l8.15,0V28.976a21.821,21.821,0,0,0-2.517,8.3c-.217,3.187.652,5.679,2.517,7.253Zm4.875,0h-2.5V45.643a5.92,5.92,0,0,0,2.5.707ZM58.817,41.46c-.714,1.447-2.141,2.286-4.247,2.507V38.993l1.757-1.671a1.188,1.188,0,1,0-1.638-1.72l-.119.113V31.92a1.188,1.188,0,0,0-2.376,0v2.15l-.115-.11a1.188,1.188,0,0,0-1.64,1.718l1.755,1.671V38.9l-.959-.682a1.187,1.187,0,1,0-1.379,1.934l2.338,1.663v2.149c-2.18-.229-3.667-1.113-4.422-2.645-1.461-2.962-.219-7.667,1.621-11.186l.029-.055A18.2,18.2,0,0,1,51.05,27.5c1.189-1.544,1.812-1.868,2.125-1.868h0c.309,0,.919.314,2.067,1.807,2.679,3.483,5.412,10.293,3.574,14.02Zm0,0" transform="translate(-0.39 0)" fill="#607180" stroke="#607180" stroke-width="0.2"/>
      <path id="Path_9453" data-name="Path 9453" d="M279.164,37.387h-.033a1.642,1.642,0,1,0,0,3.283h.033a1.642,1.642,0,1,0,0-3.283Zm0,0" transform="translate(-245.088 -33.293)" fill="#607180"/>
    </g>
    <path id="Path_9454" data-name="Path 9454" d="M-22008.582,294.407h-14.961c-.676,0-.941-.261-.941-.931,0-3.95,0-8.034.012-12.052a.5.5,0,0,0-.3-.523,3.97,3.97,0,0,1-1.645-1.581,5.269,5.269,0,0,1-.57-1.7l-.008-.561a.547.547,0,0,0,.051-.089c.02-.031.035-.062.055-.092s.035-.067.055-.1c.031-.057.063-.112.1-.166a8.8,8.8,0,0,1,2-2.389,8.59,8.59,0,0,0,2.012-2.419,1.166,1.166,0,0,1,1.137-.663c4.641.01,9.18.012,13.008.012v1.454h-1.785c-3.3,0-7.039-.005-10.863-.013a.418.418,0,0,0-.426.255,3.968,3.968,0,0,1-1.547,1.576,4.026,4.026,0,0,0-1.551,1.574.29.29,0,0,1-.023.049c-.012.026-.027.052-.043.08l-.02.046c-.016.025-.023.052-.039.08h16.3v1.467h-2.957a2.648,2.648,0,0,0,2.648,2.257,2.82,2.82,0,0,0,.309-.017V281.4q-.152.009-.293.009a4.173,4.173,0,0,1-3.469-1.811,4.222,4.222,0,0,1-3.473,1.812,4.249,4.249,0,0,1-3.5-1.825,4.286,4.286,0,0,1-3.617,1.837h-.1v11.529h2.531V287.71a2.473,2.473,0,0,1,2.652-2.627c.18,0,.355,0,.535-.007s.367-.007.543-.007c.277,0,.508.008.719.027a3.224,3.224,0,0,1,1.16.255,2.34,2.34,0,0,1,1.391,2.3v5.294h4.922v1.467Zm-8.027-7.9-.6,0h-.016l-.617,0c-.832,0-1.219.381-1.219,1.2v5.243h4.117v-.043a.192.192,0,0,0,0-.045.14.14,0,0,0,.008-.052v-5.23a1.011,1.011,0,0,0-1.059-1.071C-22016.2,286.507-22016.4,286.506-22016.609,286.506Zm-8.883-8.768v0a2.748,2.748,0,0,0,2.7,2.244,2.735,2.735,0,0,0,2.688-2.245h-5.391Zm6.965-.013h0a2.728,2.728,0,0,0,2.7,2.255,2.71,2.71,0,0,0,.359-.024,2.6,2.6,0,0,0,2.281-2.232h-5.34Z" transform="translate(22078.684 203.181)" fill="#607180" stroke="#607180" stroke-width="0.4"/>
    <path id="Path_5967" data-name="Path 5967" d="M249.3,796.781h-4.114v-.3c0-2.417-.011-2.558-.01-4.976,0-.819.384-1.2,1.212-1.2.619,0,1.237-.007,1.856,0a1.014,1.014,0,0,1,1.057,1.066c0,2.512.012,2.749.012,5.261C249.312,796.673,249.306,796.709,249.3,796.781Z" transform="translate(-185.548 -300.658)" fill="#ebedf3"/>
    <path id="Path_5968" data-name="Path 5968" d="M164.694,702.354a2.72,2.72,0,0,1-5.35,0Z" transform="translate(-106.092 -221.398)" fill="#ebedf3"/>
    <path id="Subtraction_26" data-name="Subtraction 26" d="M2.68,2.219A2.72,2.72,0,0,1,0,0h3V2.2A2.913,2.913,0,0,1,2.68,2.219Z" transform="translate(67.089 480.962)" fill="#ebedf3" stroke="rgba(0,0,0,0)" stroke-miterlimit="10" stroke-width="1"/>
  </g>
</svg>
