<svg xmlns="http://www.w3.org/2000/svg" width="777" height="407.5" viewBox="0 0 777 407.5">
  <g id="Group_15653" data-name="Group 15653" transform="translate(-245 -281.5)">
    <g id="Group_62" data-name="Group 62" transform="translate(187.925 242.928)">
      <path id="Path_106" data-name="Path 106" d="M170.861,353.02A24.293,24.293,0,0,0,157.2,324.9c-2.107-.94-4.366-1.59-6.274-2.886a55.97,55.97,0,0,0-.511,8.243,23.974,23.974,0,0,0,1.218,8.044c2.444,6.607,9.08,10.669,15.62,13.287" fill="#8ebca2"/>
      <path id="Path_107" data-name="Path 107" d="M171.549,370.737c-.226-6.355.01-16.379-1.536-21.89a34.291,34.291,0,0,0-8.159-14.9" fill="none" stroke="#597f6e" stroke-miterlimit="10" stroke-width="1"/>
      <path id="Path_108" data-name="Path 108" d="M155.316,387.507a28.478,28.478,0,0,0-11.362-19.21,28.159,28.159,0,0,0-10.235-4.627c-2.072-.477-11.644.021-11.644.021s2.03,7.094,4.385,10.5c5.489,7.937,15.11,13.969,28.856,13.318" fill="#8ebca2"/>
      <path id="Path_109" data-name="Path 109" d="M146.945,363.065a53.322,53.322,0,0,0-2.5-13.514,22.229,22.229,0,0,0-2.208-5.038c-3.158-5.016-9.074-7.362-14.763-8.395-.07,4.843.485,9.934,3.146,13.915a25.788,25.788,0,0,0,4.271,4.633c3.087,2.8,8.742,5.9,12.058,8.4" fill="#a2ccb6"/>
      <path id="Path_110" data-name="Path 110" d="M179.25,346.338c-.891-6.117-1.716-12.687,1.067-18.208a21.877,21.877,0,0,1,3.962-5.3c3.738-3.848,8.629-7.029,13.993-7.038a24.709,24.709,0,0,1-3.217,16.76c-3.018,4.966-10.275,12.008-15.8,13.791" fill="#a2ccb6"/>
      <path id="Path_111" data-name="Path 111" d="M169.422,381.879A21.352,21.352,0,0,0,194.89,364a.68.68,0,0,0-.8-.939c-9.833-.05-22.042,9.34-24.671,18.814" fill="#a2ccb6"/>
      <path id="Path_112" data-name="Path 112" d="M149.191,359.761c8.1-4.56,13.307-13.7,13.46-23.623-5.848-.325-10.25,3.274-12.8,6.376-3.547,4.318-3.846,11.907-.663,17.247" fill="#a2ccb6"/>
      <path id="Path_113" data-name="Path 113" d="M155.078,375.783A17.887,17.887,0,0,1,171.6,351.23a.773.773,0,0,1,.66.218.755.755,0,0,1,.1.412c.223,4.977-1.967,9.827-5.1,13.7s-7.18,6.89-11.234,9.785" fill="#a2ccb6"/>
      <path id="Path_114" data-name="Path 114" d="M188.23,332.206c-6.29,6-9.842,14.29-12.495,22.565-6.988,21.8-8.822,44.86-10.609,67.68" fill="none" stroke="#597f6e" stroke-miterlimit="10" stroke-width="1"/>
      <path id="Path_115" data-name="Path 115" d="M154.824,384.353a33.727,33.727,0,0,1,1.819-13.992" fill="none" stroke="#597f6e" stroke-miterlimit="10" stroke-width="1"/>
      <path id="Path_116" data-name="Path 116" d="M155.78,343.037c-5.107,4.558-8.078,16.954-5.366,26.062" fill="none" stroke="#597f6e" stroke-miterlimit="10" stroke-width="1"/>
      <path id="Path_117" data-name="Path 117" d="M157.914,412.536c-.249-20.952-5.125-47.082-20.711-63.843" fill="none" stroke="#597f6e" stroke-miterlimit="10" stroke-width="1"/>
      <path id="Path_118" data-name="Path 118" d="M191.188,392.877v7.992c0,31.689-10.506,40.7-10.506,40.7H148.149s-10.506-9.014-10.506-40.7v-7.992Z" fill="#f2f5f9"/>
    </g>
    <g id="Group_47" data-name="Group 47" transform="translate(355.287 242.928)">
      <path id="Path_64" data-name="Path 64" d="M526.154,332.892a33.154,33.154,0,0,1,10.283-23.863,32.812,32.812,0,0,1,11.136-6.855c2.322-.856,13.449-1.7,13.449-1.7s-1.3,8.491-3.512,12.77c-5.167,9.977-15.386,18.364-31.356,19.643" fill="#8ebca2"/>
      <path id="Path_65" data-name="Path 65" d="M558.879,358.236a27.08,27.08,0,0,1,34.526-6.34.589.589,0,0,1,.143,1.081,25.163,25.163,0,0,1-20.913,8.141,90.026,90.026,0,0,1-13.756-2.882" fill="#a2ccb6"/>
      <path id="Path_66" data-name="Path 66" d="M567.82,344.692c.008-7.766,2.59-14.737,7.149-19.3a21.48,21.48,0,0,1,17.991-5.859.967.967,0,0,1,.661.278,1.256,1.256,0,0,1,.214.894c-.4,9.35-5.084,17.091-12.234,20.2a70.461,70.461,0,0,1-13.781,3.788" fill="#8ebca2"/>
      <path id="Path_67" data-name="Path 67" d="M579.878,330.8a65.439,65.439,0,0,1,11.1-13.462,27.687,27.687,0,0,1,5.607-4.217c6.689-3.593,14.941-2.48,22.133-.047-2.86,5.433-6.591,10.75-12.078,13.5a33.224,33.224,0,0,1-7.743,2.468c-5.262,1.171-13.668,1.057-19.014,1.754" fill="#a2ccb6"/>
      <path id="Path_68" data-name="Path 68" d="M576.054,317.832c-13.382-7.01-15.358-21.63-15.7-27.038-.212-3.388.009-7.156,2.832-9.6,16.582,5.837,20.815,17.062,12.864,36.633" fill="#8ebca2"/>
      <path id="Path_69" data-name="Path 69" d="M518.388,315.724c1.038-7.121,2-14.771-1.242-21.2a25.477,25.477,0,0,0-4.612-6.177c-4.352-4.48-10.046-8.183-16.291-8.193a28.473,28.473,0,0,0,19.339,31.823" fill="#8ebca2"/>
      <path id="Path_70" data-name="Path 70" d="M557.307,362.3a28.912,28.912,0,0,1-17.641-38.261.921.921,0,0,1,1.572-.556c11.543,6.634,19.441,25.937,16.069,38.817" fill="#a2ccb6"/>
      <path id="Path_71" data-name="Path 71" d="M525.94,322.968a28.285,28.285,0,0,1,13.021-33.989c2.349-1.3,4.9-2.282,6.987-3.976a65.212,65.212,0,0,1,1.419,9.51,27.87,27.87,0,0,1-.606,9.451c-2.171,7.909-9.461,13.286-16.783,16.979" fill="#a2ccb6"/>
      <path id="Path_72" data-name="Path 72" d="M516.27,321.768c-12.017,1.456-26.815-3.394-33.238-14.714,20.548-10.444,33.238,5.534,33.238,14.714" fill="#a2ccb6"/>
      <path id="Path_73" data-name="Path 73" d="M523.282,348.582c-2.7-9.229-9.787-16.8-18.33-19.565a26.239,26.239,0,0,0-25.2,5.471,1.014,1.014,0,0,0-.286,1.617c4.592,6.641,11.92,10.562,19.414,12.215s15.231,1.258,22.86.687" fill="#a2ccb6"/>
      <path id="Path_74" data-name="Path 74" d="M507.933,299.272c7.323,6.981,11.459,16.636,14.547,26.27,8.136,25.377,10.27,52.226,12.351,78.793" fill="none" stroke="#597f6e" stroke-miterlimit="10" stroke-width="1"/>
      <path id="Path_75" data-name="Path 75" d="M529.718,356.448a33.2,33.2,0,0,0-12.294-11.23,72.97,72.97,0,0,0-36.284-9.052" fill="none" stroke="#597f6e" stroke-miterlimit="10" stroke-width="1"/>
      <path id="Path_76" data-name="Path 76" d="M526.181,338.781c-.375-7.393-.917-14.19.324-20.737a39.924,39.924,0,0,1,7.968-18.1" fill="none" stroke="#597f6e" stroke-miterlimit="10" stroke-width="1"/>
      <path id="Path_77" data-name="Path 77" d="M498.406,310.868c7.944.644,17.864,10.9,24.876,17.244" fill="none" stroke="#597f6e" stroke-miterlimit="10" stroke-width="1"/>
      <path id="Path_78" data-name="Path 78" d="M552.443,379.852c4.408-29.185,26.518-54.965,54.692-63.768" fill="none" stroke="#597f6e" stroke-miterlimit="10" stroke-width="1"/>
      <path id="Path_79" data-name="Path 79" d="M569.057,292.418c6.591,13.294,10.705,32.186,2.563,47.052" fill="none" stroke="#597f6e" stroke-miterlimit="10" stroke-width="1"/>
      <path id="Path_80" data-name="Path 80" d="M578.031,370.187V381.9c0,46.455-12.231,59.669-12.231,59.669H527.926s-12.232-13.214-12.232-59.669V370.187Z" fill="#f2f5f9"/>
    </g>
    <g id="Group_15651" data-name="Group 15651" transform="translate(-19 -30)">
      <g id="Group_1" data-name="Group 1" transform="translate(258.015 256.323)">
        <rect id="Rectangle_2" data-name="Rectangle 2" width="123.751" height="74.75" rx="3.206" transform="translate(248.891 77.505)" fill="none" stroke="#c0ccd8" stroke-miterlimit="10" stroke-width="1"/>
        <line id="Line_1" data-name="Line 1" x2="123.751" transform="translate(248.891 91.05)" fill="none" stroke="#c0ccd8" stroke-miterlimit="10" stroke-width="1"/>
        <circle id="Ellipse_1" data-name="Ellipse 1" cx="1.978" cy="1.978" r="1.978" transform="translate(254.906 82.374)" fill="none" stroke="#c0ccd8" stroke-miterlimit="10" stroke-width="1"/>
        <path id="Path_1" data-name="Path 1" d="M267,84.352a1.978,1.978,0,1,1-1.978-1.978A1.978,1.978,0,0,1,267,84.352Z" fill="none" stroke="#c0ccd8" stroke-miterlimit="10" stroke-width="1"/>
        <path id="Path_2" data-name="Path 2" d="M275.138,84.352a1.978,1.978,0,1,1-1.978-1.978A1.978,1.978,0,0,1,275.138,84.352Z" fill="none" stroke="#c0ccd8" stroke-miterlimit="10" stroke-width="1"/>
      </g>
      <g id="Group_5" data-name="Group 5" transform="translate(258.015 256.323)">
        <g id="Group_4" data-name="Group 4">
          <g id="Group_2" data-name="Group 2">
            <rect id="Rectangle_3" data-name="Rectangle 3" width="39.503" height="39.503" rx="5.12" transform="translate(178.852 120.573)" fill="none" stroke="#c0ccd8" stroke-linejoin="round" stroke-width="1"/>
          </g>
          <g id="Group_3" data-name="Group 3">
            <circle id="Ellipse_2" data-name="Ellipse 2" cx="11.314" cy="11.314" r="11.314" transform="translate(187.29 129.01)" fill="none" stroke="#c0ccd8" stroke-miterlimit="10" stroke-width="3"/>
            <line id="Line_2" data-name="Line 2" x1="15.974" y2="15.974" transform="translate(190.268 132.337)" fill="none" stroke="#c0ccd8" stroke-miterlimit="10" stroke-width="3"/>
          </g>
        </g>
      </g>
      <path id="Path_3" data-name="Path 3" d="M480.238,151.089l-8.193-8.49H345.958a10.683,10.683,0,0,1-10.683-10.683V66.36a10.683,10.683,0,0,1,10.683-10.683H472.611A10.683,10.683,0,0,1,483.294,66.36v83.495A1.777,1.777,0,0,1,480.238,151.089Z" transform="translate(258.015 256.323)" fill="#fff" stroke="#c0ccd8" stroke-linejoin="round" stroke-width="1"/>
      <g id="Group_12" data-name="Group 12" transform="translate(258.015 256.323)">
        <g id="Group_11" data-name="Group 11">
          <g id="Group_8" data-name="Group 8">
            <rect id="Rectangle_4" data-name="Rectangle 4" width="39.503" height="39.503" rx="5.12" transform="translate(593.929 235.585)" fill="none" stroke="#c0ccd8" stroke-linejoin="round" stroke-width="1"/>
          </g>
          <g id="Group_10" data-name="Group 10">
            <g id="Group_9" data-name="Group 9">
              <path id="Path_7" data-name="Path 7" d="M626.412,266.43a1.415,1.415,0,0,1-.473.081l-24.517.008a1.437,1.437,0,0,1-1.246-2.156l12.252-21.237a1.436,1.436,0,0,1,2.489,0l12.267,21.229a1.437,1.437,0,0,1-.772,2.076ZM602.1,264.692l23.166-.009-11.59-20.058Z" fill="#c0ccd8"/>
            </g>
            <path id="Path_8" data-name="Path 8" d="M613.678,260.471h0a.868.868,0,0,1-.867-.829l-.5-8.356a1.361,1.361,0,0,1,1.359-1.423h0a1.362,1.362,0,0,1,1.361,1.422l-.49,8.357A.869.869,0,0,1,613.678,260.471Z" fill="#c0ccd8"/>
            <path id="Path_9" data-name="Path 9" d="M614.563,262.486a.884.884,0,1,1-.884-.883A.884.884,0,0,1,614.563,262.486Z" fill="#c0ccd8"/>
          </g>
        </g>
      </g>
      <path id="Path_10" data-name="Path 10" d="M96.442,204.5a2.229,2.229,0,1,1-2.228-2.228A2.228,2.228,0,0,1,96.442,204.5Z" transform="translate(258.015 256.323)" fill="none" stroke="#c0ccd8" stroke-linecap="round" stroke-linejoin="round" stroke-width="1"/>
      <path id="Path_11" data-name="Path 11" d="M470.817,323.314a2.229,2.229,0,1,1-2.228-2.229A2.229,2.229,0,0,1,470.817,323.314Z" transform="translate(258.015 256.323)" fill="none" stroke="#c0ccd8" stroke-linecap="round" stroke-linejoin="round" stroke-width="1"/>
      <path id="Path_12" data-name="Path 12" d="M623.942,140.324a2.229,2.229,0,1,1-2.229-2.228A2.228,2.228,0,0,1,623.942,140.324Z" transform="translate(258.015 256.323)" fill="none" stroke="#c0ccd8" stroke-linecap="round" stroke-linejoin="round" stroke-width="1"/>
      <path id="Path_13" data-name="Path 13" d="M503.662,71.4a2.229,2.229,0,1,1-2.229-2.228A2.228,2.228,0,0,1,503.662,71.4Z" transform="translate(258.015 256.323)" fill="none" stroke="#c0ccd8" stroke-linecap="round" stroke-linejoin="round" stroke-width="1"/>
      <g id="Group_13" data-name="Group 13" transform="translate(258.015 256.323)">
        <line id="Line_3" data-name="Line 3" y2="6.9" transform="translate(619.485 213.203)" fill="none" stroke="#c0ccd8" stroke-linecap="round" stroke-linejoin="round" stroke-width="1"/>
        <line id="Line_4" data-name="Line 4" x1="6.901" transform="translate(616.035 216.654)" fill="none" stroke="#c0ccd8" stroke-linecap="round" stroke-linejoin="round" stroke-width="1"/>
      </g>
      <g id="Group_15" data-name="Group 15" transform="translate(258.015 256.323)">
        <line id="Line_7" data-name="Line 7" y2="6.901" transform="translate(293.163 58.677)" fill="none" stroke="#c0ccd8" stroke-linecap="round" stroke-linejoin="round" stroke-width="1"/>
        <line id="Line_8" data-name="Line 8" x1="6.9" transform="translate(289.712 62.127)" fill="none" stroke="#c0ccd8" stroke-linecap="round" stroke-linejoin="round" stroke-width="1"/>
      </g>
      <g id="Group_16" data-name="Group 16" transform="translate(258.015 256.323)">
        <line id="Line_9" data-name="Line 9" y2="6.9" transform="translate(138.696 125.375)" fill="none" stroke="#c0ccd8" stroke-linecap="round" stroke-linejoin="round" stroke-width="1"/>
        <line id="Line_10" data-name="Line 10" x1="6.9" transform="translate(135.246 128.825)" fill="none" stroke="#c0ccd8" stroke-linecap="round" stroke-linejoin="round" stroke-width="1"/>
      </g>
      <g id="Group_17" data-name="Group 17" transform="translate(258.015 256.323)">
        <line id="Line_11" data-name="Line 11" y2="6.9" transform="translate(127.465 284.249)" fill="none" stroke="#c0ccd8" stroke-linecap="round" stroke-linejoin="round" stroke-width="1"/>
        <line id="Line_12" data-name="Line 12" x1="6.9" transform="translate(124.014 287.699)" fill="none" stroke="#c0ccd8" stroke-linecap="round" stroke-linejoin="round" stroke-width="1"/>
      </g>
      <g id="Group_18" data-name="Group 18" transform="translate(258.015 256.323)">
        <line id="Line_13" data-name="Line 13" y2="6.901" transform="translate(518.615 97.746)" fill="none" stroke="#c0ccd8" stroke-linecap="round" stroke-linejoin="round" stroke-width="1"/>
        <line id="Line_14" data-name="Line 14" x1="6.9" transform="translate(515.164 101.197)" fill="none" stroke="#c0ccd8" stroke-linecap="round" stroke-linejoin="round" stroke-width="1"/>
      </g>
      <path id="Path_14" data-name="Path 14" d="M178.8,244.962h-69.05a2.185,2.185,0,0,1-2.185-2.185h0a2.184,2.184,0,0,1,2.185-2.184H178.8a2.184,2.184,0,0,1,2.185,2.184h0A2.185,2.185,0,0,1,178.8,244.962Z" transform="translate(258.015 256.323)" fill="none" stroke="#c0ccd8" stroke-miterlimit="10" stroke-width="1"/>
      <path id="Path_15" data-name="Path 15" d="M585.366,189.821h-69.05a2.185,2.185,0,0,1-2.185-2.185h0a2.184,2.184,0,0,1,2.185-2.184h69.05a2.184,2.184,0,0,1,2.184,2.184h0A2.184,2.184,0,0,1,585.366,189.821Z" transform="translate(258.015 256.323)" fill="none" stroke="#c0ccd8" stroke-miterlimit="10" stroke-width="1"/>
      <path id="Path_16" data-name="Path 16" d="M595.474,204.5H569.949a1.092,1.092,0,0,1-1.092-1.092h0a1.091,1.091,0,0,1,1.092-1.092h25.525a1.091,1.091,0,0,1,1.092,1.092h0A1.092,1.092,0,0,1,595.474,204.5Z" transform="translate(258.015 256.323)" fill="#c0ccd8"/>
      <path id="Path_17" data-name="Path 17" d="M527.927,152.467H502.4a1.092,1.092,0,0,1-1.092-1.092h0a1.092,1.092,0,0,1,1.092-1.093h25.525a1.092,1.092,0,0,1,1.092,1.093h0A1.092,1.092,0,0,1,527.927,152.467Z" transform="translate(258.015 256.323)" fill="#c0ccd8"/>
      <path id="Path_18" data-name="Path 18" d="M153.139,225.657H133.613a1.092,1.092,0,0,1-1.092-1.092h0a1.092,1.092,0,0,1,1.092-1.092h19.526a1.092,1.092,0,0,1,1.092,1.092h0A1.092,1.092,0,0,1,153.139,225.657Z" transform="translate(258.015 256.323)" fill="#c0ccd8"/>
      <g id="Group_21" data-name="Group 21" transform="translate(258.015 256.323)">
        <path id="Rectangle_5" data-name="Rectangle 5" d="M3.7,0h21.14a3.7,3.7,0,0,1,3.7,3.7v21.14a3.7,3.7,0,0,1-3.7,3.7H3.7a3.7,3.7,0,0,1-3.7-3.7V3.7A3.7,3.7,0,0,1,3.7,0Z" transform="translate(572.089 129.279) rotate(180)" fill="none" stroke="#c0ccd8" stroke-linejoin="round" stroke-width="1"/>
        <g id="Group_20" data-name="Group 20">
          <g id="Group_19" data-name="Group 19">
            <path id="Path_19" data-name="Path 19" d="M561.862,113.806l-.5,2.451h2.727v2.177h-3.139l-.813,4.289h-2.325l.825-4.289h-3l-.8,4.289h-2.272l.782-4.289H550.83v-2.177h2.926l.5-2.451h-2.661V111.6h3.053l.813-4.3h2.314l-.813,4.3H560l.823-4.3H563.1l-.824,4.3h2.536v2.208Zm-5.814,2.451h3.025l.5-2.451h-3.024Z" fill="#c0ccd8"/>
          </g>
        </g>
      </g>
    </g>
    <g id="Group_15652" data-name="Group 15652" transform="translate(372.355 238.9)">
      <g id="freepik--background-simple--inject-2">
        <path id="Path_9136" data-name="Path 9136" d="M55.48,273.73s2.32,72,62.43,120,143.41,51.43,210.84,56,119.23-33.62,127-91.32-43.72-74.64-71.68-140.33S358.64,130.8,299.49,90.4,147.8,74.81,99.29,144,55.48,273.73,55.48,273.73Z" fill="rgba(30,122,240,0.26)"/>
        <path id="Path_9137" data-name="Path 9137" d="M55.48,273.73s2.32,72,62.43,120,143.41,51.43,210.84,56,119.23-33.62,127-91.32-43.72-74.64-71.68-140.33S358.64,130.8,299.49,90.4,147.8,74.81,99.29,144,55.48,273.73,55.48,273.73Z" fill="#fff" opacity="0.7"/>
      </g>
      <g id="freepik--Padlock--inject-2">
        <path id="Path_9138" data-name="Path 9138" d="M83.61,179.69V153.92c0-18.24,15.16-33.08,33.79-33.08s33.79,14.84,33.79,33.08v25.77h13.47V153.92c0-25.51-21.2-46.27-47.26-46.27s-47.26,20.76-47.26,46.27v25.77Z" fill="none" stroke="#263238" stroke-linecap="round" stroke-linejoin="round" stroke-width="1.166"/>
        <rect id="Rectangle_2468" data-name="Rectangle 2468" width="103.18" height="85.35" transform="translate(65.14 179.87)" fill="none" stroke="#263238" stroke-linecap="round" stroke-linejoin="round" stroke-width="1.166"/>
        <path id="Path_9139" data-name="Path 9139" d="M127.46,215.32a11.24,11.24,0,0,0-22.47,0,11,11,0,0,0,5.9,9.68L109,244.38h14.45L121.56,225a11,11,0,0,0,5.9-9.68Z" fill="none" stroke="#263238" stroke-linecap="round" stroke-linejoin="round" stroke-width="1.166"/>
      </g>
      <g id="freepik--Character--inject-2">
        <path id="Path_9140" data-name="Path 9140" d="M232.64,267.99l-25.69-1.69v-.42l-3.16.21-3.15-.21v.42l-25.69,1.69L156,423.79h18.95l28.21-124.22h1.27l28.21,124.22h18.95Z" fill="#263238" stroke="#263238" stroke-linecap="round" stroke-linejoin="round" stroke-width="1.166"/>
        <path id="Path_9141" data-name="Path 9141" d="M156,423.78l-4.63,7.16-14.32,6.32a4.88,4.88,0,0,0-2.52,4.21v5.47h40.84a54.213,54.213,0,0,0,0-8.84c-.42-4.21-.42-14.32-.42-14.32Z" fill="#4c4c4c" stroke="#263238" stroke-linecap="round" stroke-linejoin="round" stroke-width="1.166"/>
        <path id="Path_9142" data-name="Path 9142" d="M134.53,442.31v4.63h40.84s.19-2,.19-4.63Z" fill="#263238" stroke="#263238" stroke-linecap="round" stroke-linejoin="round" stroke-width="1.166"/>
        <path id="Path_9143" data-name="Path 9143" d="M251.51,423.78l4.63,7.16,14.32,6.32a4.88,4.88,0,0,1,2.52,4.21v5.47H232.14a54.208,54.208,0,0,1,0-8.84c.42-4.21.42-14.32.42-14.32Z" fill="#4c4c4c" stroke="#263238" stroke-linecap="round" stroke-linejoin="round" stroke-width="1.166"/>
        <path id="Path_9144" data-name="Path 9144" d="M273,442.31v4.63H232.14s-.18-2-.19-4.63Z" fill="#263238" stroke="#263238" stroke-linecap="round" stroke-linejoin="round" stroke-width="1.166"/>
        <path id="Path_9145" data-name="Path 9145" d="M164.07,195.51s-30,42.16-30,45.25,4.77,26.95,12.35,29.19,11.79-1.68,13.19-9.54-3.37-19.09-3.37-19.09l14-12.63Z" fill="#1e7af0" stroke="#263238" stroke-linecap="round" stroke-linejoin="round" stroke-width="1.166"/>
        <path id="Path_9146" data-name="Path 9146" d="M158.25,259.29s8.7-1.41,10.95-.85,3.93,5.9,3.93,5.9.84,7.86-.57,9.54-8.14,3.65-10.94,4.21-8.71-5.89-11-9.82S152.35,257.6,158.25,259.29Z" fill="#ccc" stroke="#263238" stroke-linecap="round" stroke-linejoin="round" stroke-width="1.166"/>
        <path id="Path_9147" data-name="Path 9147" d="M170.38,193.6l-6.31,1.91,9.94,66.35h59.08l8.99-65.97-8.03-3.06-29.64-6.5Z" fill="#1e7af0" stroke="#263238" stroke-linecap="round" stroke-linejoin="round" stroke-width="1.166"/>
        <path id="Path_9148" data-name="Path 9148" d="M236.34,215.78l-1.33,9.56-10.33,2.48-10.52-4.2.77-8.61Z" fill="#263238" stroke="#263238" stroke-linecap="round" stroke-linejoin="round" stroke-width="1.166"/>
        <circle id="Ellipse_108" data-name="Ellipse 108" cx="1.82" cy="1.82" r="1.82" transform="translate(223.53 221.7)" fill="#4c4c4c" stroke="#263238" stroke-linecap="round" stroke-linejoin="round" stroke-width="1.166"/>
        <path id="Path_9149" data-name="Path 9149" d="M198.1,198.57l5.55,6.5-7.08,45.12,7.46,11.86,8.8-12.43-7.46-44.36,6.31-6.12-6.69-8.6Z" fill="#263238" stroke="#263238" stroke-linecap="round" stroke-linejoin="round" stroke-width="1.166"/>
        <path id="Path_9150" data-name="Path 9150" d="M192.75,187.29l-25.43,6.31.77,3.06,24.85-6.89Z" fill="#263238" stroke="#263238" stroke-linecap="round" stroke-linejoin="round" stroke-width="1.166"/>
        <path id="Path_9151" data-name="Path 9151" d="M213.59,186.52l25.43,6.31-.76,3.06-24.86-6.88Z" fill="#263238" stroke="#263238" stroke-linecap="round" stroke-linejoin="round" stroke-width="1.166"/>
        <path id="Path_9152" data-name="Path 9152" d="M239,192.83s9.62,2.17,15.51,5.54,7.3,10.95,3.93,19.37-13.75,7.3-18.52,5-6.18-10.66-5.34-14.31" fill="#1e7af0" stroke="#263238" stroke-linecap="round" stroke-linejoin="round" stroke-width="1.166"/>
        <path id="Path_9153" data-name="Path 9153" d="M193.9,184.04l-2.87,1.91.76,19.31,12.43-8.79,13,8.98,1.15-19.12-3.44-2.87Z" fill="#1e7af0" stroke="#263238" stroke-linecap="round" stroke-linejoin="round" stroke-width="1.166"/>
        <path id="Path_9154" data-name="Path 9154" d="M219,161.07s7.06-1.72,8.39-8.78S216,136.64,207.18,135.12s-21.75,7.63-23.85,13.93,6.1,12.59,14.88,13.93S219,161.07,219,161.07Z" fill="#263238" stroke="#263238" stroke-linecap="round" stroke-linejoin="round" stroke-width="1.166"/>
        <path id="Path_9155" data-name="Path 9155" d="M192.68,162.22s-3.82-5.92-4.77-.77,3.05,7.44,4.77,7.25S192.68,162.22,192.68,162.22Z" fill="#ccc" stroke="#263238" stroke-linecap="round" stroke-linejoin="round" stroke-width="1.166"/>
        <path id="Path_9156" data-name="Path 9156" d="M217.49,162.22s3.82-5.92,4.77-.77-3,7.44-4.77,7.25S217.49,162.22,217.49,162.22Z" fill="#ccc" stroke="#263238" stroke-linecap="round" stroke-linejoin="round" stroke-width="1.166"/>
        <path id="Path_9157" data-name="Path 9157" d="M193.52,173.9v12.62l10.7,9.95,12.05-10.33V174.29Z" fill="#ccc" stroke="#263238" stroke-linecap="round" stroke-linejoin="round" stroke-width="1.166"/>
        <path id="Path_9158" data-name="Path 9158" d="M191.92,158.4s-.58,11.83.38,15.65,7.25,11.83,12.21,13.55,11.83-8.59,13.36-12,.95-17.94.95-17.94-2.09-5-6.29-6.48S195.35,147,191.92,158.4Z" fill="#ccc" stroke="#263238" stroke-linecap="round" stroke-linejoin="round" stroke-width="1.166"/>
        <path id="Path_9159" data-name="Path 9159" d="M199.85,164.68c0,.9-.41,1.63-.92,1.63s-.92-.73-.92-1.63.41-1.63.92-1.63S199.85,163.78,199.85,164.68Z" fill="#263238"/>
        <path id="Path_9160" data-name="Path 9160" d="M211.56,164.68c0,.9-.41,1.63-.92,1.63s-.92-.73-.92-1.63.41-1.63.92-1.63S211.56,163.78,211.56,164.68Z" fill="#263238"/>
        <path id="Path_9161" data-name="Path 9161" d="M201.84,169.24a1.28,1.28,0,1,0,0,2.49,1.74,1.74,0,0,0,1.11-.37,3.21,3.21,0,0,0,4.82.08,1.8,1.8,0,0,0,1,.29,1.28,1.28,0,1,0,0-2.49" fill="#ccc" stroke="#263238" stroke-linecap="round" stroke-linejoin="round" stroke-width="1.166"/>
        <line id="Line_24" data-name="Line 24" x2="3.99" transform="translate(203.36 177.07)" fill="#ccc" stroke="#263238" stroke-linecap="round" stroke-linejoin="round" stroke-width="1.166"/>
        <path id="Path_9162" data-name="Path 9162" d="M191.48,161.27s.14,3.84,1.42,2.84,1.7-7.52.57-8.37S191.48,159.29,191.48,161.27Z" fill="#263238" stroke="#263238" stroke-linecap="round" stroke-linejoin="round" stroke-width="1.166"/>
        <path id="Path_9163" data-name="Path 9163" d="M216.11,161.27s.15,3.84,1.42,2.84,1.71-7.52.57-8.37S216.11,159.29,216.11,161.27Z" fill="#263238" stroke="#263238" stroke-linecap="round" stroke-linejoin="round" stroke-width="1.166"/>
        <path id="Path_9164" data-name="Path 9164" d="M191.48,158.15s.43.35.42.52c1.85,1,6.1,2.84,13,3.21a26.56,26.56,0,0,0,14-3.43c0-.51,0-.81,0-.82-.17-4.47-3.49-7.45-7.6-8.59a19.57,19.57,0,0,0-12.24.61,12,12,0,0,0-5.07,3.65C193.48,153.86,190.78,157.59,191.48,158.15Z" fill="#4c4c4c" stroke="#263238" stroke-linecap="round" stroke-linejoin="round" stroke-width="1.166"/>
        <path id="Path_9165" data-name="Path 9165" d="M191.92,158.4a45.19,45.19,0,0,0,13,.95c8.21-.38,13.92-.95,13.92-.95a22.64,22.64,0,0,1-13.8,6.06,15.14,15.14,0,0,1-13.12-6.06Z" fill="#4c4c4c" stroke="#263238" stroke-linecap="round" stroke-linejoin="round" stroke-width="1.166"/>
        <path id="Path_9166" data-name="Path 9166" d="M170.96,215.78l1.33,9.56,10.33,2.48,10.51-4.2-.76-8.61Z" fill="#263238" stroke="#263238" stroke-linecap="round" stroke-linejoin="round" stroke-width="1.166"/>
        <circle id="Ellipse_109" data-name="Ellipse 109" cx="1.82" cy="1.82" r="1.82" transform="translate(180.13 221.7)" fill="#4c4c4c" stroke="#263238" stroke-linecap="round" stroke-linejoin="round" stroke-width="1.166"/>
        <rect id="Rectangle_2469" data-name="Rectangle 2469" width="60.63" height="9.54" transform="translate(173.13 261.25)" fill="#4c4c4c" stroke="#263238" stroke-linecap="round" stroke-linejoin="round" stroke-width="1.166"/>
        <rect id="Rectangle_2470" data-name="Rectangle 2470" width="18.53" height="11.79" rx="2.67" transform="translate(168.92 261.81)" fill="#4c4c4c" stroke="#263238" stroke-linecap="round" stroke-linejoin="round" stroke-width="1.166"/>
        <rect id="Rectangle_2471" data-name="Rectangle 2471" width="18.53" height="11.79" rx="2.67" transform="translate(217.2 261.81)" fill="#4c4c4c" stroke="#263238" stroke-linecap="round" stroke-linejoin="round" stroke-width="1.166"/>
        <rect id="Rectangle_2472" data-name="Rectangle 2472" width="13.19" height="8.42" transform="translate(197.83 261.81)" fill="#fff" stroke="#263238" stroke-linecap="round" stroke-linejoin="round" stroke-width="1.166"/>
        <path id="Path_9167" data-name="Path 9167" d="M156.28,241.32s-8.42-.56-11.51-5.9" fill="none" stroke="#263238" stroke-linecap="round" stroke-linejoin="round" stroke-width="1.166"/>
        <ellipse id="Ellipse_110" data-name="Ellipse 110" cx="13.9" cy="14.6" rx="13.9" ry="14.6" transform="translate(236 187.42)" fill="#1e7af0" stroke="#263238" stroke-linecap="round" stroke-linejoin="round" stroke-width="1.166"/>
        <ellipse id="Ellipse_111" data-name="Ellipse 111" cx="10.88" cy="9.75" rx="10.88" ry="9.75" transform="translate(239.02 184.88)" fill="#1e7af0" stroke="#263238" stroke-linecap="round" stroke-linejoin="round" stroke-width="1.166"/>
        <ellipse id="Ellipse_112" data-name="Ellipse 112" cx="10.88" cy="9.75" rx="10.88" ry="9.75" transform="translate(239.02 177.71)" fill="#ccc" stroke="#263238" stroke-linecap="round" stroke-linejoin="round" stroke-width="1.166"/>
        <path id="Path_9168" data-name="Path 9168" d="M232.42,166.44s.19,14.38.92,18.62,3.69,9.77,7.75,9.77a25.53,25.53,0,0,0,7.93-1.47s4.79,2.58,9.4,1.84,3.87-7.19,3.87-10-.55-23.6-.55-23.6a2.009,2.009,0,0,0-1.48-2.39,15.8,15.8,0,0,0-2.76-.37v-4.43a3.36,3.36,0,0,0-3.14-1.47c-2.39,0-2.58.55-2.58.55v-4.06s-2-3.23-4.61-1.66a3.68,3.68,0,0,0-1.84,2.95l-.19,3.88s-4.42-1.66-4.79.92S239.24,174,239.24,174a40.861,40.861,0,0,0-1.47-7.38C236.85,164.22,232.42,164.22,232.42,166.44Z" fill="#ccc" stroke="#263238" stroke-linecap="round" stroke-linejoin="round" stroke-width="1.166"/>
        <line id="Line_25" data-name="Line 25" x2="0.37" y2="16.96" transform="translate(245.14 154.64)" fill="none" stroke="#263238" stroke-linecap="round" stroke-linejoin="round" stroke-width="1.166"/>
        <line id="Line_26" data-name="Line 26" x2="0.19" y2="18.25" transform="translate(251.78 153.53)" fill="none" stroke="#263238" stroke-linecap="round" stroke-linejoin="round" stroke-width="1.166"/>
        <line id="Line_27" data-name="Line 27" x1="0.37" y2="12.72" transform="translate(257.13 158.88)" fill="none" stroke="#263238" stroke-linecap="round" stroke-linejoin="round" stroke-width="1.166"/>
        <line id="Line_28" data-name="Line 28" x2="16.78" y2="0.73" transform="translate(242.75 171.42)" fill="none" stroke="#263238" stroke-linecap="round" stroke-linejoin="round" stroke-width="1.166"/>
        <path id="Path_9169" data-name="Path 9169" d="M239.24,174a4.51,4.51,0,0,0,1.81,3.58c1.82,1.14,5.92,4.1,6.37,8.88" fill="none" stroke="#263238" stroke-linecap="round" stroke-linejoin="round" stroke-width="1.166"/>
      </g>
      <g id="freepik--Text--inject-2">
        <path id="Path_9170" data-name="Path 9170" d="M350,128.81V131h-5.33v7.76h6.55V141h-9V119.2h9v2.21h-6.55v7.44Z" fill="#263238"/>
        <path id="Path_9171" data-name="Path 9171" d="M358.3,119.16c3.42,0,4.86,1.74,4.86,5v1.78c0,2.4-.84,3.89-2.71,4.48,2,.59,2.74,2.21,2.74,4.55v3.4a5.49,5.49,0,0,0,.43,2.61h-2.46a5.7,5.7,0,0,1-.4-2.64v-3.43c0-2.46-1.15-3.24-3.18-3.24h-1.71V141h-2.43V119.2Zm-.63,10.28c1.94,0,3.09-.63,3.09-3v-2.09c0-2-.72-3-2.52-3h-2.37v8.07Z" fill="#263238"/>
        <path id="Path_9172" data-name="Path 9172" d="M370.57,119.16c3.43,0,4.86,1.74,4.86,5v1.78c0,2.4-.84,3.89-2.71,4.48,2,.59,2.74,2.21,2.74,4.55v3.4a5.37,5.37,0,0,0,.44,2.61h-2.46a5.66,5.66,0,0,1-.41-2.64v-3.43c0-2.46-1.15-3.24-3.18-3.24h-1.71V141h-2.43V119.2ZM370,129.44c1.93,0,3.08-.63,3.08-3v-2.09c0-2-.71-3-2.52-3h-2.37v8.07Z" fill="#263238"/>
        <path id="Path_9173" data-name="Path 9173" d="M377.8,124.42c0-3.33,1.65-5.48,5-5.48s5,2.15,5,5.48V135.7c0,3.3-1.65,5.48-5,5.48s-5-2.18-5-5.48Zm2.4,11.4c0,2,.84,3.15,2.58,3.15s2.59-1.15,2.59-3.15V124.3c0-2-.81-3.15-2.59-3.15s-2.58,1.18-2.58,3.15Z" fill="#263238"/>
        <path id="Path_9174" data-name="Path 9174" d="M395,119.16c3.43,0,4.86,1.74,4.86,5v1.78c0,2.4-.84,3.89-2.71,4.48,2,.59,2.74,2.21,2.74,4.55v3.4a5.37,5.37,0,0,0,.44,2.61h-2.46a5.66,5.66,0,0,1-.41-2.64v-3.43c0-2.46-1.15-3.24-3.18-3.24h-1.71V141H390.1V119.2Zm-.62,10.28c1.93,0,3.08-.63,3.08-3v-2.09c0-2-.71-3-2.52-3h-2.37v8.07Z" fill="#263238"/>
        <path id="Path_9175" data-name="Path 9175" d="M329.38,264.88v2.21h-5v9.44h-2.43v-21.8h8.66v2.21h-6.23v7.94Z" fill="#263238"/>
        <path id="Path_9176" data-name="Path 9176" d="M332.33,260c0-3.33,1.66-5.48,5-5.48s5,2.15,5,5.48v11.28c0,3.3-1.65,5.48-5,5.48s-5-2.18-5-5.48Zm2.4,11.4c0,2,.84,3.15,2.59,3.15s2.58-1.15,2.58-3.15V259.87c0-2-.81-3.15-2.58-3.15s-2.59,1.18-2.59,3.15Z" fill="#263238"/>
        <path id="Path_9177" data-name="Path 9177" d="M349.5,254.73c3.42,0,4.86,1.74,4.86,5v1.78c0,2.4-.84,3.89-2.71,4.48,2,.59,2.74,2.21,2.74,4.55v3.4a5.37,5.37,0,0,0,.44,2.61h-2.46a5.53,5.53,0,0,1-.41-2.64v-3.43c0-2.46-1.15-3.24-3.18-3.24h-1.71v9.31h-2.43v-21.8ZM348.88,265c1.93,0,3.08-.63,3.08-3v-2.09c0-2-.72-3-2.52-3h-2.37V265Z" fill="#263238"/>
        <path id="Path_9178" data-name="Path 9178" d="M361.8,254.73c3.4,0,4.74,1.62,4.74,4.83v1c0,2.31-.66,3.74-2.56,4.33,2.12.6,2.93,2.28,2.93,4.68v1.83c0,3.28-1.59,5.11-5,5.11h-5v-21.8Zm-.59,9.25c1.93,0,2.93-.62,2.93-2.9V259.8c0-1.93-.66-2.86-2.4-2.86h-2.4v7Zm.72,10.34c1.77,0,2.58-.93,2.58-3v-1.93c0-2.43-1-3.24-3.05-3.24h-2.12v8.13Z" fill="#263238"/>
        <path id="Path_9179" data-name="Path 9179" d="M371.55,254.73v21.8h-2.43v-21.8Z" fill="#263238"/>
        <path id="Path_9180" data-name="Path 9180" d="M379.15,254.73c3.4,0,5,2,5,5.42v11c0,3.34-1.56,5.39-5,5.39h-5.1v-21.8Zm0,19.59c1.75,0,2.59-1.09,2.59-3.08V260c0-2-.84-3.08-2.62-3.08H376.5V274.3Z" fill="#263238"/>
        <path id="Path_9181" data-name="Path 9181" d="M391.49,254.73c3.39,0,4.95,2,4.95,5.42v11c0,3.34-1.56,5.39-4.95,5.39h-5.11v-21.8Zm0,19.59c1.74,0,2.58-1.09,2.58-3.08V260c0-2-.84-3.08-2.61-3.08h-2.62V274.3Z" fill="#263238"/>
        <path id="Path_9182" data-name="Path 9182" d="M406.47,264.38v2.18h-5.33v7.76h6.55v2.21h-9v-21.8h9v2.21h-6.55v7.44Z" fill="#263238"/>
        <path id="Path_9183" data-name="Path 9183" d="M412.08,276.53H409.9v-21.8H413l5,15.76V254.73h2.15v21.8h-2.53l-5.57-17.63Z" fill="#263238"/>
        <path id="Path_9184" data-name="Path 9184" d="M306.54,208.26l22.25-52.61h13.35v52.61h5.78v11.12h-5.78V233.5h-12V219.38h-23.6Zm23.58,0V179l-12.34,29.25Z" fill="#1e7af0"/>
        <path id="Path_9185" data-name="Path 9185" d="M352.48,174.33c0-12.45,6.56-19.57,18.57-19.57s18.58,7.12,18.58,19.57v40.49c0,12.46-6.57,19.57-18.58,19.57s-18.57-7.11-18.57-19.57Zm12.23,41.27c0,5.56,2.45,7.67,6.34,7.67s6.34-2.11,6.34-7.67v-42c0-5.57-2.44-7.68-6.34-7.68s-6.34,2.11-6.34,7.68Z" fill="#1e7af0"/>
        <path id="Path_9186" data-name="Path 9186" d="M421.1,174.78c0-7-2.44-8.9-6.34-8.9s-6.34,2.11-6.34,7.68v5H396.86v-4.23c0-12.45,6.22-19.57,18.24-19.57s18.24,7.12,18.24,19.57v2c0,8.34-2.67,13.57-8.57,16,6.12,2.67,8.57,8.45,8.57,16.35v6.12c0,12.46-6.23,19.57-18.24,19.57s-18.24-7.11-18.24-19.57v-6.45h11.56v7.23c0,5.56,2.45,7.67,6.34,7.67s6.34-1.89,6.34-8.78v-6.12c0-7.23-2.44-9.9-8-9.9H409v-11.1h4.78c4.56,0,7.34-2,7.34-8.23Z" fill="#1e7af0"/>
      </g>
      <g id="freepik--security-barrier--inject-2">
        <path id="Path_9187" data-name="Path 9187" d="M86.87,446.5H72.61L91.62,313.99h14.26Z" fill="#263238" stroke="#263238" stroke-miterlimit="10" stroke-width="1.166"/>
        <path id="Path_9188" data-name="Path 9188" d="M115.39,446.5h14.25L110.63,313.99H96.38Z" fill="#fff" stroke="#263238" stroke-miterlimit="10" stroke-width="1.166"/>
        <path id="Path_9189" data-name="Path 9189" d="M289.18,446.5H274.93l19-132.51h14.26Z" fill="#263238" stroke="#263238" stroke-miterlimit="10" stroke-width="1.166"/>
        <path id="Path_9190" data-name="Path 9190" d="M317.7,446.5h14.25L312.94,313.99H298.69Z" fill="#fff" stroke="#263238" stroke-miterlimit="10" stroke-width="1.166"/>
        <rect id="Rectangle_2473" data-name="Rectangle 2473" width="271.93" height="26.36" transform="translate(55.73 293.21)" fill="#ffa303" stroke="#263238" stroke-miterlimit="10" stroke-width="1.166"/>
        <rect id="Rectangle_2474" data-name="Rectangle 2474" width="271.93" height="26.36" transform="translate(62.36 293.21)" fill="#ffc258" stroke="#263238" stroke-miterlimit="10" stroke-width="1.166"/>
        <path id="Path_9191" data-name="Path 9191" d="M66.81,319.57H89.89l11.93-26.36H78.74Z" fill="#263238"/>
        <path id="Path_9192" data-name="Path 9192" d="M158.17,293.21H135.09l-11.93,26.36h23.08Z" fill="#263238"/>
        <path id="Path_9193" data-name="Path 9193" d="M327.21,293.21H304.13l-11.92,26.36h23.08Z" fill="#263238"/>
        <path id="Path_9194" data-name="Path 9194" d="M270.87,293.21H247.78l-11.92,26.36h23.08Z" fill="#263238"/>
        <path id="Path_9195" data-name="Path 9195" d="M214.52,293.21H191.44l-11.93,26.36h23.08Z" fill="#263238"/>
        <line id="Line_29" data-name="Line 29" x1="45" transform="translate(287.8 304.9)" fill="none" stroke="#263238" stroke-miterlimit="10" stroke-width="1.166"/>
        <line id="Line_30" data-name="Line 30" x1="7.1" transform="translate(324.91 309.31)" fill="none" stroke="#263238" stroke-miterlimit="10" stroke-width="1.166"/>
        <line id="Line_31" data-name="Line 31" x2="45" transform="translate(61.21 308.21)" fill="none" stroke="#263238" stroke-miterlimit="10" stroke-width="1.166"/>
        <line id="Line_32" data-name="Line 32" x2="56.84" transform="translate(62 303.25)" fill="none" stroke="#263238" stroke-miterlimit="10" stroke-width="1.166"/>
        <rect id="Rectangle_2475" data-name="Rectangle 2475" width="77.14" height="5.79" transform="translate(331.37 440.72)" fill="#263238" stroke="#263238" stroke-linecap="round" stroke-linejoin="round" stroke-width="1.166"/>
        <path id="Path_9196" data-name="Path 9196" d="M395.49,440.56h-51.1L364.42,331.6h11.04Z" fill="#ffa303" stroke="#263238" stroke-linecap="round" stroke-linejoin="round" stroke-width="1.166"/>
        <path id="Path_9197" data-name="Path 9197" d="M356.98,372.1h25.93l-2.49-13.5H359.46Z" fill="#fff" stroke="#263238" stroke-linecap="round" stroke-linejoin="round" stroke-width="1.166"/>
        <line id="Line_33" data-name="Line 33" x2="1.28" y2="7.45" transform="translate(387.81 422.37)" fill="#92e3a9" stroke="#263238" stroke-linecap="round" stroke-linejoin="round" stroke-width="1.166"/>
        <line id="Line_34" data-name="Line 34" x2="12.98" y2="75.38" transform="translate(373.22 337.62)" fill="#92e3a9" stroke="#263238" stroke-linecap="round" stroke-linejoin="round" stroke-width="1.166"/>
      </g>
      <g id="freepik--Floor--inject-2">
        <line id="Line_35" data-name="Line 35" x2="6.91" transform="translate(450.01 446.5)" fill="none" stroke="#263238" stroke-linecap="round" stroke-linejoin="round" stroke-width="1.166"/>
        <line id="Line_36" data-name="Line 36" x2="400.99" transform="translate(39.37 446.5)" fill="none" stroke="#263238" stroke-linecap="round" stroke-linejoin="round" stroke-width="1.166"/>
      </g>
    </g>
    <rect id="Rectangle_2476" data-name="Rectangle 2476" width="777" height="4" transform="translate(245 684)" fill="#98abbb"/>
  </g>
</svg>
