<svg xmlns="http://www.w3.org/2000/svg" width="414.252" height="387.616" viewBox="0 0 414.252 387.616">
  <g id="Group_17746" data-name="Group 17746" transform="translate(-42.874 -82.5)">
    <g id="Background_Complete" data-name="Background Complete">
      <g id="Group_1" data-name="Group 1">
        <rect id="Rectangle_1" data-name="Rectangle 1" width="29.896" height="12.633" transform="translate(62.74 304.512)" fill="none" stroke="#ebebeb" stroke-miterlimit="10" stroke-width="1"/>
        <rect id="Rectangle_2" data-name="Rectangle 2" width="29.896" height="12.633" transform="translate(46.063 320.441)" fill="none" stroke="#ebebeb" stroke-miterlimit="10" stroke-width="1"/>
        <rect id="Rectangle_3" data-name="Rectangle 3" width="29.896" height="12.633" transform="translate(62.741 181.081)" fill="none" stroke="#ebebeb" stroke-miterlimit="10" stroke-width="1"/>
        <rect id="Rectangle_4" data-name="Rectangle 4" width="29.897" height="12.633" transform="translate(409.092 83)" fill="none" stroke="#ebebeb" stroke-miterlimit="10" stroke-width="1"/>
        <rect id="Rectangle_5" data-name="Rectangle 5" width="29.896" height="12.633" transform="translate(392.415 98.929)" fill="none" stroke="#ebebeb" stroke-miterlimit="10" stroke-width="1"/>
        <rect id="Rectangle_6" data-name="Rectangle 6" width="29.896" height="12.633" transform="translate(330.795 210.804)" fill="none" stroke="#ebebeb" stroke-miterlimit="10" stroke-width="1"/>
        <rect id="Rectangle_7" data-name="Rectangle 7" width="29.896" height="12.633" transform="translate(314.118 226.734)" fill="none" stroke="#ebebeb" stroke-miterlimit="10" stroke-width="1"/>
        <rect id="Rectangle_8" data-name="Rectangle 8" width="29.897" height="12.633" transform="translate(297.507 210.804)" fill="none" stroke="#ebebeb" stroke-miterlimit="10" stroke-width="1"/>
        <rect id="Rectangle_9" data-name="Rectangle 9" width="29.897" height="12.633" transform="translate(424.04 320.441)" fill="none" stroke="#ebebeb" stroke-miterlimit="10" stroke-width="1"/>
        <rect id="Rectangle_10" data-name="Rectangle 10" width="29.896" height="12.633" transform="translate(170.03 84.648)" fill="none" stroke="#ebebeb" stroke-miterlimit="10" stroke-width="1"/>
      </g>
      <g id="Group_2" data-name="Group 2">
        <path id="Path_1" data-name="Path 1" d="M423.225,180.971l5.887-9.49-2.906-1.8a2.656,2.656,0,0,1-1.233-2.5,15.216,15.216,0,0,0,.053-1.669,2.652,2.652,0,0,1,1.386-2.41l3.013-1.616-5.281-9.845-3.012,1.615a2.652,2.652,0,0,1-2.774-.178,15.793,15.793,0,0,0-1.42-.88,2.655,2.655,0,0,1-1.4-2.408l.108-3.418-11.163-.347-.1,3.43a2.656,2.656,0,0,1-1.557,2.31c-.247.117-.491.241-.734.371s-.481.265-.714.407a2.649,2.649,0,0,1-2.773.02l-2.928-1.813-5.887,9.49,2.912,1.807a2.657,2.657,0,0,1,1.23,2.5,15.629,15.629,0,0,0-.055,1.663,2.653,2.653,0,0,1-1.385,2.407l-3.014,1.616,5.28,9.846,3.014-1.616a2.652,2.652,0,0,1,2.771.177,15.322,15.322,0,0,0,1.416.875,2.655,2.655,0,0,1,1.4,2.407l-.106,3.426,11.163.347.106-3.427a2.652,2.652,0,0,1,1.553-2.3q.372-.176.74-.373c.242-.13.481-.265.714-.407a2.661,2.661,0,0,1,2.787-.019Zm-9.451-7.048a9.148,9.148,0,1,1,3.744-12.384A9.141,9.141,0,0,1,413.774,173.923Z" fill="#ebebeb"/>
        <path id="Path_2" data-name="Path 2" d="M101.53,288.51l5.887-9.49-2.907-1.8a2.653,2.653,0,0,1-1.232-2.5,15.75,15.75,0,0,0,.053-1.67,2.653,2.653,0,0,1,1.385-2.409l3.013-1.616-5.28-9.845L99.436,260.8a2.653,2.653,0,0,1-2.774-.179,15.286,15.286,0,0,0-1.42-.879,2.657,2.657,0,0,1-1.4-2.409l.109-3.417-11.163-.347-.1,3.43a2.656,2.656,0,0,1-1.556,2.31q-.37.176-.735.37c-.242.13-.481.266-.714.407a2.649,2.649,0,0,1-2.773.021l-2.928-1.814-5.887,9.491L71,269.587a2.654,2.654,0,0,1,1.23,2.5,15.365,15.365,0,0,0-.054,1.663,2.653,2.653,0,0,1-1.386,2.407l-3.014,1.616,5.28,9.846L76.074,286a2.653,2.653,0,0,1,2.772.177,15.505,15.505,0,0,0,1.415.874,2.655,2.655,0,0,1,1.4,2.408l-.105,3.426,11.162.347.107-3.427a2.65,2.65,0,0,1,1.552-2.3c.248-.117.5-.242.74-.373s.481-.266.715-.407a2.659,2.659,0,0,1,2.787-.019Zm-9.452-7.048a9.149,9.149,0,1,1,3.745-12.384A9.142,9.142,0,0,1,92.078,281.462Z" fill="#ebebeb"/>
        <path id="Path_3" data-name="Path 3" d="M215.868,106.738l-3.91-6.776-2.074,1.2a1.859,1.859,0,0,1-1.95-.066,10.924,10.924,0,0,0-1.013-.586,1.857,1.857,0,0,1-1.029-1.653v-2.4h-7.827v2.4a1.857,1.857,0,0,1-1.029,1.653,10.924,10.924,0,0,0-1.013.586,1.862,1.862,0,0,1-1.95.066L192,99.962l-3.91,6.776,2.083,1.2a1.862,1.862,0,0,1,.911,1.726q-.015.287-.015.576t.015.576a1.854,1.854,0,0,1-.9,1.718l-2.089,1.207,3.91,6.777,2.08-1.2a1.859,1.859,0,0,1,1.95.068,10.75,10.75,0,0,0,1.009.584,1.86,1.86,0,0,1,1.027,1.653v2.4h7.827v-2.4a1.86,1.86,0,0,1,1.027-1.653,10.609,10.609,0,0,0,1.008-.584,1.861,1.861,0,0,1,1.951-.068l2.08,1.2,3.91-6.777-2.08-1.2a1.858,1.858,0,0,1-.908-1.721c.01-.192.015-.385.015-.58s-.005-.385-.015-.576a1.864,1.864,0,0,1,.911-1.727Zm-7.48,3.5a6.41,6.41,0,1,1-6.406-6.412A6.4,6.4,0,0,1,208.388,110.24Z" fill="#ebebeb"/>
      </g>
    </g>
    <g id="Plant">
      <g id="Group_9" data-name="Group 9">
        <g id="Group_4" data-name="Group 4">
          <path id="Path_5" data-name="Path 5" d="M88.835,303.84c-13.068,12.794-15.262,32.587-12.508,49.924.072.394.68.286.68-.083,0-3.947-.119-7.858-.107-11.757.071-.179.131-.346.2-.525,3.411-2.48,6.546-5.282,8.49-9.121,2.182-4.293,3.04-9.134,4.71-13.617.155-.429-.3-.3-.6-.082-7.95,5.863-10.483,12.172-12.764,20.6a70.1,70.1,0,0,1,1.383-13.128c1.717-8,5.115-15.931,10.862-21.868C89.4,303.959,89.062,303.613,88.835,303.84Z" fill="#263238"/>
          <g id="Group_3" data-name="Group 3">
            <path id="Path_6" data-name="Path 6" d="M91.291,305.331c2.249.076,3.658,3.67,5.41,4.718a1.685,1.685,0,0,0,2.481-.39c1.736-2.423-.646-5.413-2.886-7.085,1.6.659,2.931,1.816,4.658,2.144a1.623,1.623,0,0,0,2.1-1.259c.761-3.3-3.383-4.774-6.226-4.843,1.379-.958,5.329-3.563,3.23-4.844-2.127-1.286-6.762,2.439-8.274,3.666-2.223,1.8-4.873,4.5-4.973,7.317C86.683,308.048,89.561,306.022,91.291,305.331Z" fill="#ffc727"/>
            <path id="Path_7" data-name="Path 7" d="M91.291,305.331c2.249.076,3.658,3.67,5.41,4.718a1.685,1.685,0,0,0,2.481-.39c1.736-2.423-.646-5.413-2.886-7.085,1.6.659,2.931,1.816,4.658,2.144a1.623,1.623,0,0,0,2.1-1.259c.761-3.3-3.383-4.774-6.226-4.843,1.379-.958,5.329-3.563,3.23-4.844-2.127-1.286-6.762,2.439-8.274,3.666-2.223,1.8-4.873,4.5-4.973,7.317C86.683,308.048,89.561,306.022,91.291,305.331Z" opacity="0.1"/>
            <path id="Path_8" data-name="Path 8" d="M90.641,305.886c2.874-1.307,8.4.574,8.866-.514.952-2.215-3.461-3.734-5.843-4.028,2.194-.594,6.4-1.541,6.268-3.656-.158-2.584-6.447-.362-9.63,2.079-4.01,3.075-3.984,6.041-3.321,6.636C87.89,307.218,90.166,306.1,90.641,305.886Z" fill="#ffc727"/>
          </g>
        </g>
        <g id="Group_6" data-name="Group 6">
          <path id="Path_9" data-name="Path 9" d="M59.073,302.573c13.546,12.288,16.491,31.984,14.4,49.413-.057.4-.668.312-.683-.058-.15-3.943-.179-7.856-.339-11.752-.079-.176-.145-.34-.223-.517-3.5-2.348-6.742-5.029-8.83-8.792-2.344-4.206-3.386-9.011-5.225-13.427-.171-.424.291-.315.6-.105,8.166,5.556,10.938,11.764,13.538,20.1a70.049,70.049,0,0,0-1.881-13.066c-2.02-7.93-5.717-15.724-11.686-21.439C58.518,302.714,58.838,302.355,59.073,302.573Z" fill="#263238"/>
          <g id="Group_5" data-name="Group 5">
            <path id="Path_10" data-name="Path 10" d="M56.676,304.157c-2.244.161-3.516,3.806-5.227,4.92a1.685,1.685,0,0,1-2.494-.295c-1.827-2.356.44-5.434,2.614-7.19-1.576.719-2.859,1.927-4.572,2.32a1.625,1.625,0,0,1-2.15-1.178c-.886-3.273,3.2-4.9,6.037-5.077-1.413-.9-5.46-3.358-3.412-4.717,2.077-1.366,6.851,2.179,8.408,3.348,2.29,1.717,5.041,4.309,5.248,7.123C61.383,306.7,58.431,304.781,56.676,304.157Z" fill="#ffc727"/>
            <path id="Path_11" data-name="Path 11" d="M56.676,304.157c-2.244.161-3.516,3.806-5.227,4.92a1.685,1.685,0,0,1-2.494-.295c-1.827-2.356.44-5.434,2.614-7.19-1.576.719-2.859,1.927-4.572,2.32a1.625,1.625,0,0,1-2.15-1.178c-.886-3.273,3.2-4.9,6.037-5.077-1.413-.9-5.46-3.358-3.412-4.717,2.077-1.366,6.851,2.179,8.408,3.348,2.29,1.717,5.041,4.309,5.248,7.123C61.383,306.7,58.431,304.781,56.676,304.157Z" opacity="0.1"/>
            <path id="Path_12" data-name="Path 12" d="M57.347,304.686c-2.922-1.2-8.369.893-8.88-.176-1.035-2.177,3.317-3.862,5.686-4.247-2.215-.51-6.451-1.3-6.4-3.415.059-2.588,6.428-.607,9.7,1.711,4.124,2.92,4.211,5.886,3.571,6.505C60.146,305.913,57.829,304.884,57.347,304.686Z" fill="#ffc727"/>
          </g>
        </g>
        <g id="Group_8" data-name="Group 8">
          <path id="Path_13" data-name="Path 13" d="M72.925,335.026a133.179,133.179,0,0,0,4.206,19.429.483.483,0,0,0,.946-.191c-.889-5.988-2.511-11.864-3.4-17.851a89.893,89.893,0,0,1-1.04-18.328c.57-10.089,3.31-20.821,9.893-28.715.145-.188-.162-.452-.311-.278-13.181,15.368-11.084,34.211-11.072,35.9-1.866-6.363-3.789-13.656-10.847-20.134-.305-.28-.542-.147-.491.328,1.262,11.8,4.543,17.962,11.384,24.271C72.387,331.327,72.628,333.188,72.925,335.026Z" fill="#263238"/>
          <g id="Group_7" data-name="Group 7">
            <path id="Path_14" data-name="Path 14" d="M83.648,291.137c2.371-1.053,5.642,1.966,7.988,2.172a1.943,1.943,0,0,0,2.378-1.653c.581-3.389-3.395-5.291-6.561-5.9,1.994-.123,3.955.409,5.912-.119a1.875,1.875,0,0,0,1.549-2.366c-.874-3.811-5.913-3.25-8.9-1.891.948-1.688,3.735-6.379.913-6.652-2.854-.263-5.789,5.934-6.74,7.969-1.4,2.989-2.792,7.119-1.476,10.1C80.235,296.275,82.2,292.724,83.648,291.137Z" fill="#ffc727"/>
            <path id="Path_15" data-name="Path 15" d="M83.648,291.137c2.371-1.053,5.642,1.966,7.988,2.172a1.943,1.943,0,0,0,2.378-1.653c.581-3.389-3.395-5.291-6.561-5.9,1.994-.123,3.955.409,5.912-.119a1.875,1.875,0,0,0,1.549-2.366c-.874-3.811-5.913-3.25-8.9-1.891.948-1.688,3.735-6.379.913-6.652-2.854-.263-5.789,5.934-6.74,7.969-1.4,2.989-2.792,7.119-1.476,10.1C80.235,296.275,82.2,292.724,83.648,291.137Z" opacity="0.1"/>
            <path id="Path_16" data-name="Path 16" d="M83.252,292.04c2.325-2.8,9-3.631,8.941-5-.127-2.777-5.47-2.132-8.09-1.238,1.977-1.721,5.861-4.819,4.663-6.949-1.465-2.6-6.871,2.87-8.946,7.005-2.612,5.209-1.092,8.274-.105,8.557C81.069,294.807,82.869,292.5,83.252,292.04Z" fill="#ffc727"/>
          </g>
        </g>
        <path id="Path_17" data-name="Path 17" d="M64.253,338.578,58.44,382.993H93.814c-.729-3.935-7.313-44.467-7.313-44.467Z" fill="#ffb548"/>
      </g>
    </g>
    <g id="Floor">
      <line id="Line_1" data-name="Line 1" x2="413.252" transform="translate(43.374 383.143)" fill="none" stroke="#263238" stroke-linecap="round" stroke-linejoin="round" stroke-width="1"/>
    </g>
    <g id="Shadow">
      <ellipse id="Ellipse_1" data-name="Ellipse 1" cx="149.057" cy="21.075" rx="149.057" ry="21.075" transform="translate(100.943 427.965)" fill="#ebebeb"/>
    </g>
    <g id="_404_Error" data-name="404 Error" transform="translate(-4 102)">
      <g id="Group_12" data-name="Group 12" transform="translate(-19.389 -6.721)">
        <g id="Group_11" data-name="Group 11" transform="translate(194.698 43.294)">
          <path id="Path_21" data-name="Path 21" d="M213.676,82.867a17.7,17.7,0,0,1-7.761-1.673,19.033,19.033,0,0,1-5.978-4.443A20.606,20.606,0,0,1,194.7,63.121a19.568,19.568,0,0,1,1.454-7.46,20.584,20.584,0,0,1,4-6.307,19.112,19.112,0,0,1,6.061-4.361,18,18,0,0,1,7.624-1.617,17.087,17.087,0,0,1,7.707,1.727,19.253,19.253,0,0,1,5.951,4.524,20.859,20.859,0,0,1,3.84,6.364,20.025,20.025,0,0,1,1.371,7.24,19.726,19.726,0,0,1-1.426,7.433,20.234,20.234,0,0,1-3.95,6.253,18.978,18.978,0,0,1-6.034,4.333A17.98,17.98,0,0,1,213.676,82.867Zm-11.3-19.746A15.621,15.621,0,0,0,203.145,68a13.01,13.01,0,0,0,2.221,4.168,11.054,11.054,0,0,0,3.566,2.908,11.048,11.048,0,0,0,9.652-.029,11.02,11.02,0,0,0,3.566-2.99,13.291,13.291,0,0,0,2.194-4.194,15.568,15.568,0,0,0,.741-4.745,15.2,15.2,0,0,0-.8-4.881,13.493,13.493,0,0,0-2.25-4.17,10.727,10.727,0,0,0-3.564-2.879,11.109,11.109,0,0,0-9.627.054,10.84,10.84,0,0,0-3.564,2.963,13.283,13.283,0,0,0-2.167,4.168A15.566,15.566,0,0,0,202.376,63.121Z" transform="translate(-194.698 -43.265)" fill="#263238" stroke="#707070" stroke-width="1"/>
          <path id="Path_22" data-name="Path 22" d="M240.2,80.511a15.782,15.782,0,0,1-6.308-1.207,14.17,14.17,0,0,1-4.745-3.263,14.4,14.4,0,0,1-2.988-4.745,15.974,15.974,0,0,1,0-11.354,14.4,14.4,0,0,1,2.988-4.744,14.173,14.173,0,0,1,4.745-3.264,15.782,15.782,0,0,1,6.308-1.207,15.59,15.59,0,0,1,6.28,1.207,14.158,14.158,0,0,1,7.705,8.008,15.974,15.974,0,0,1,0,11.354,14.626,14.626,0,0,1-2.961,4.745,13.876,13.876,0,0,1-4.717,3.263A15.784,15.784,0,0,1,240.2,80.511Zm-7.515-14.865a10,10,0,0,0,.576,3.483,8.5,8.5,0,0,0,1.591,2.716,7.089,7.089,0,0,0,2.386,1.783,7.264,7.264,0,0,0,5.924,0,7.1,7.1,0,0,0,2.386-1.783,8.428,8.428,0,0,0,1.59-2.743,10.228,10.228,0,0,0,.577-3.51,10.08,10.08,0,0,0-.577-3.456,8.442,8.442,0,0,0-1.59-2.743,7.12,7.12,0,0,0-2.386-1.783,7.021,7.021,0,0,0-2.961-.63,6.756,6.756,0,0,0-2.963.657,7.468,7.468,0,0,0-2.386,1.81,8.459,8.459,0,0,0-1.591,2.743A10.079,10.079,0,0,0,232.686,65.646Z" transform="translate(-183.815 -40.635)" fill="#263238" stroke="#707070" stroke-width="1"/>
          <path id="Path_23" data-name="Path 23" d="M268.151,80.511A11.326,11.326,0,0,1,262.229,79a10.721,10.721,0,0,1-3.95-4.087V91.645h-7.35V51.221h6.417v4.937a11.729,11.729,0,0,1,4.114-3.977,11.45,11.45,0,0,1,5.814-1.454,12.31,12.31,0,0,1,5.375,1.18,13.308,13.308,0,0,1,4.251,3.181,14.831,14.831,0,0,1,2.8,4.717,16.249,16.249,0,0,1,1.014,5.733,18.142,18.142,0,0,1-.931,5.868,15.026,15.026,0,0,1-2.606,4.773A12.189,12.189,0,0,1,273.2,79.36,11.134,11.134,0,0,1,268.151,80.511Zm-2.467-6.253a6.6,6.6,0,0,0,3.044-.714,7.363,7.363,0,0,0,2.386-1.919,9.049,9.049,0,0,0,1.536-2.8,10.029,10.029,0,0,0,.549-3.29,9.294,9.294,0,0,0-.6-3.374,8.391,8.391,0,0,0-1.674-2.716,7.812,7.812,0,0,0-2.523-1.81,7.559,7.559,0,0,0-3.153-.657,6.9,6.9,0,0,0-2.14.356,7.544,7.544,0,0,0-2.03,1.016,8.879,8.879,0,0,0-1.673,1.536,6.4,6.4,0,0,0-1.124,1.92v6.745a9.772,9.772,0,0,0,3.016,4.087A6.9,6.9,0,0,0,265.684,74.259Z" transform="translate(-174.579 -40.635)" fill="#263238" stroke="#707070" stroke-width="1"/>
          <path id="Path_24" data-name="Path 24" d="M287.964,80.526a22.251,22.251,0,0,1-7.075-1.151,17.273,17.273,0,0,1-5.924-3.291l2.741-4.607a23.643,23.643,0,0,0,5.13,2.824,13.755,13.755,0,0,0,4.964.96,6.279,6.279,0,0,0,3.456-.823,2.651,2.651,0,0,0,1.261-2.358,2.356,2.356,0,0,0-1.481-2.248,31.845,31.845,0,0,0-4.827-1.646q-2.8-.768-4.773-1.481a12.226,12.226,0,0,1-3.18-1.618A5.523,5.523,0,0,1,276.5,63a6.64,6.64,0,0,1-.549-2.824,8.936,8.936,0,0,1,.85-3.95,8.609,8.609,0,0,1,2.386-2.99,11.043,11.043,0,0,1,3.594-1.891,14.587,14.587,0,0,1,4.47-.659,19.211,19.211,0,0,1,6.06.933,14.765,14.765,0,0,1,5.184,3.017l-2.963,4.443a17.223,17.223,0,0,0-4.251-2.414A11.606,11.606,0,0,0,287.2,55.9a5.914,5.914,0,0,0-3.127.767,2.673,2.673,0,0,0-1.263,2.468,2.371,2.371,0,0,0,.3,1.261,2.633,2.633,0,0,0,.96.877,9.306,9.306,0,0,0,1.727.741q1.071.358,2.66.74,2.961.77,5.074,1.537a13.824,13.824,0,0,1,3.456,1.754,6.277,6.277,0,0,1,1.976,2.276,7.032,7.032,0,0,1,.629,3.1,8,8,0,0,1-3.126,6.664Q293.341,80.526,287.964,80.526Z" transform="translate(-165.98 -40.649)" fill="#263238" stroke="#707070" stroke-width="1"/>
          <path id="Path_25" data-name="Path 25" d="M297.667,67.977V43.294h7.35V67.977Zm0,14.645V74.34h7.35v8.283Z" transform="translate(-157.857 -43.294)" fill="#263238" stroke="#707070" stroke-width="1"/>
        </g>
      </g>
    </g>
    <g id="Robot">
      <g id="Group_55" data-name="Group 55">
        <g id="Group_13" data-name="Group 13">
          <rect id="Rectangle_11" data-name="Rectangle 11" width="35.512" height="2.909" transform="translate(235.089 313.845)" fill="#37474f"/>
          <rect id="Rectangle_12" data-name="Rectangle 12" width="35.512" height="2.909" transform="translate(235.089 317.634)" fill="#37474f"/>
          <rect id="Rectangle_13" data-name="Rectangle 13" width="35.512" height="2.909" transform="translate(235.089 321.424)" fill="#37474f"/>
          <rect id="Rectangle_14" data-name="Rectangle 14" width="35.512" height="2.909" transform="translate(235.089 325.213)" fill="#37474f"/>
          <rect id="Rectangle_15" data-name="Rectangle 15" width="35.512" height="2.909" transform="translate(235.089 329.002)" fill="#37474f"/>
        </g>
        <g id="Group_14" data-name="Group 14">
          <rect id="Rectangle_16" data-name="Rectangle 16" width="67.516" height="2.909" transform="translate(218.458 404.594)" fill="#37474f"/>
          <rect id="Rectangle_17" data-name="Rectangle 17" width="67.516" height="2.909" transform="translate(218.458 408.383)" fill="#37474f"/>
          <rect id="Rectangle_18" data-name="Rectangle 18" width="67.516" height="2.909" transform="translate(218.458 412.172)" fill="#37474f"/>
          <rect id="Rectangle_19" data-name="Rectangle 19" width="67.516" height="2.909" transform="translate(218.458 415.961)" fill="#37474f"/>
          <rect id="Rectangle_20" data-name="Rectangle 20" width="67.516" height="2.909" transform="translate(218.458 419.751)" fill="#37474f"/>
        </g>
        <g id="Group_26" data-name="Group 26">
          <g id="Group_15" data-name="Group 15">
            <path id="Path_26" data-name="Path 26" d="M188.834,289.8c.033-.393-14.778-5.354-14.778-5.354l.875-50.886,19.639-4.214Z" fill="#1764c8"/>
          </g>
          <g id="Group_16" data-name="Group 16">
            <path id="Path_28" data-name="Path 28" d="M324.489,309.772c.1-.38,15.718.058,15.718.058l16.69-48.079-16.989-10.715Z" fill="#1764c8"/>
          </g>
          <path id="Path_30" data-name="Path 30" d="M185.983,308.536s5.491-82.3,10.307-109.372c0,0,99.416,7.519,153.086,28.033,0,0-27.67,96.127-29.1,100.9C320.275,328.1,250.267,314.3,185.983,308.536Z" fill="#1e7af0"/>
          <g id="Group_17" data-name="Group 17">
            <path id="Path_31" data-name="Path 31" d="M274.722,210.155q-2.424,14.863-4.945,29.711l-5.124,29.679-.277-.42,33.311,7.914,16.638,4.032,16.619,4.112-16.707-3.739-16.688-3.818-33.341-7.788-.337-.079.061-.341,5.3-29.647Q271.913,224.951,274.722,210.155Z" opacity="0.1"/>
            <path id="Path_32" data-name="Path 32" d="M271.067,215.8a1.945,1.945,0,0,1-1.746,1.932,1.942,1.942,0,1,1,0-3.866A1.946,1.946,0,0,1,271.067,215.8Zm0,0a1.559,1.559,0,0,0-1.746-1.557,1.571,1.571,0,0,0,0,3.116,1.559,1.559,0,0,0,1.746-1.559Z" opacity="0.1"/>
            <path id="Path_33" data-name="Path 33" d="M269.321,228.048a1.944,1.944,0,0,1-1.745,1.933,1.942,1.942,0,1,1,0-3.867A1.946,1.946,0,0,1,269.321,228.048Zm0,0a1.557,1.557,0,0,0-1.745-1.557,1.571,1.571,0,0,0,0,3.117,1.56,1.56,0,0,0,1.745-1.56Z" opacity="0.1"/>
            <path id="Path_34" data-name="Path 34" d="M267.171,240.987a1.943,1.943,0,0,1-1.745,1.932,1.942,1.942,0,1,1,0-3.866A1.945,1.945,0,0,1,267.171,240.987Zm0,0a1.557,1.557,0,0,0-1.745-1.557,1.571,1.571,0,0,0,0,3.116,1.588,1.588,0,0,0,1.2-.361A1.608,1.608,0,0,0,267.171,240.987Z" opacity="0.1"/>
            <path id="Path_35" data-name="Path 35" d="M265.021,253.926a1.944,1.944,0,0,1-1.745,1.932,1.942,1.942,0,1,1,0-3.866A1.944,1.944,0,0,1,265.021,253.926Zm0,0a1.557,1.557,0,0,0-1.745-1.557,1.571,1.571,0,0,0,0,3.116,1.56,1.56,0,0,0,1.745-1.559Z" opacity="0.1"/>
            <path id="Path_36" data-name="Path 36" d="M272.347,274.561a1.945,1.945,0,0,1-1.746,1.932,1.942,1.942,0,1,1,0-3.866A1.946,1.946,0,0,1,272.347,274.561Zm0,0A1.559,1.559,0,0,0,270.6,273a1.571,1.571,0,0,0,0,3.116,1.561,1.561,0,0,0,1.746-1.559Z" opacity="0.1"/>
            <path id="Path_37" data-name="Path 37" d="M284.56,277.54a1.943,1.943,0,0,1-1.746,1.932,1.942,1.942,0,1,1,0-3.866A1.945,1.945,0,0,1,284.56,277.54Zm0,0a1.558,1.558,0,0,0-1.746-1.557,1.571,1.571,0,0,0,0,3.116,1.589,1.589,0,0,0,1.2-.361A1.608,1.608,0,0,0,284.56,277.54Z" opacity="0.1"/>
            <path id="Path_38" data-name="Path 38" d="M296.774,280.52a1.945,1.945,0,0,1-1.746,1.932,1.942,1.942,0,1,1,0-3.867A1.948,1.948,0,0,1,296.774,280.52Zm0,0a1.559,1.559,0,0,0-1.746-1.558,1.571,1.571,0,0,0,0,3.117,1.561,1.561,0,0,0,1.746-1.559Z" opacity="0.1"/>
            <path id="Path_39" data-name="Path 39" d="M308.987,283.5a1.944,1.944,0,0,1-1.746,1.932,1.942,1.942,0,1,1,0-3.866A1.946,1.946,0,0,1,308.987,283.5Zm0,0a1.558,1.558,0,0,0-1.746-1.557,1.571,1.571,0,0,0,0,3.116,1.561,1.561,0,0,0,1.746-1.559Z" opacity="0.1"/>
            <path id="Path_40" data-name="Path 40" d="M321.2,286.612a1.944,1.944,0,0,1-1.889,1.793,1.942,1.942,0,1,1,.3-3.855A1.945,1.945,0,0,1,321.2,286.612Zm0,0a1.558,1.558,0,0,0-1.62-1.687,1.571,1.571,0,0,0-.24,3.107,1.559,1.559,0,0,0,1.86-1.42Z" opacity="0.1"/>
            <path id="Path_41" data-name="Path 41" d="M262.871,266.865a1.944,1.944,0,0,1-1.745,1.932,1.942,1.942,0,1,1,0-3.866A1.944,1.944,0,0,1,262.871,266.865Zm0,0a1.557,1.557,0,0,0-1.745-1.558,1.571,1.571,0,0,0,0,3.117,1.56,1.56,0,0,0,1.745-1.559Z" opacity="0.1"/>
          </g>
          <g id="Group_24" data-name="Group 24">
            <g id="Group_19" data-name="Group 19">
              <circle id="Ellipse_2" data-name="Ellipse 2" cx="28.231" cy="28.231" r="28.231" transform="translate(183.565 265.192) rotate(-41.961)" opacity="0.2"/>
              <circle id="Ellipse_3" data-name="Ellipse 3" cx="22.641" cy="22.641" r="22.641" transform="translate(194.244 280.468) rotate(-69.267)" fill="#263238"/>
              <g id="Group_18" data-name="Group 18">
                <rect id="Rectangle_21" data-name="Rectangle 21" width="5.362" height="5.362" transform="translate(216.771 258.143) rotate(9.202)" fill="#f1fafe"/>
                <rect id="Rectangle_22" data-name="Rectangle 22" width="5.362" height="5.362" transform="translate(212.335 251.992) rotate(9.202)" fill="#f1fafe"/>
                <rect id="Rectangle_23" data-name="Rectangle 23" width="5.362" height="5.362" transform="translate(233.507 255.422) rotate(9.202)" fill="#f1fafe"/>
                <rect id="Rectangle_24" data-name="Rectangle 24" width="5.362" height="5.362" transform="translate(208.925 273.045) rotate(9.202)" fill="#f1fafe"/>
                <rect id="Rectangle_25" data-name="Rectangle 25" width="5.362" height="5.362" transform="translate(230.097 276.475) rotate(9.202)" fill="#f1fafe"/>
                <rect id="Rectangle_26" data-name="Rectangle 26" width="5.362" height="5.362" transform="translate(215.075 268.609) rotate(9.202)" fill="#f1fafe"/>
                <rect id="Rectangle_27" data-name="Rectangle 27" width="5.362" height="5.362" transform="translate(221.216 264.234) rotate(9.202)" fill="#f1fafe"/>
                <rect id="Rectangle_28" data-name="Rectangle 28" width="5.362" height="5.362" transform="translate(227.357 259.858) rotate(9.202)" fill="#f1fafe"/>
                <rect id="Rectangle_29" data-name="Rectangle 29" width="5.362" height="5.362" transform="translate(225.661 270.324) rotate(9.203)" fill="#f1fafe"/>
              </g>
            </g>
            <g id="Group_23" data-name="Group 23">
              <g id="Group_20" data-name="Group 20">
                <circle id="Ellipse_4" data-name="Ellipse 4" cx="28.231" cy="28.231" r="28.231" transform="translate(259.462 283.083) rotate(-50.667)" fill="#1862c0"/>
                <circle id="Ellipse_5" data-name="Ellipse 5" cx="28.231" cy="28.231" r="28.231" transform="translate(259.462 283.083) rotate(-50.667)" opacity="0.2"/>
                <path id="Path_42" data-name="Path 42" d="M326.66,285.672c-.13.556-.278,1.093-.445,1.63l-55.028-11.737c.13-.982.306-1.964.538-2.955a28.233,28.233,0,1,1,54.935,13.062Z" opacity="0.2"/>
              </g>
              <circle id="Ellipse_6" data-name="Ellipse 6" cx="22.641" cy="22.641" r="22.641" transform="translate(269.572 266.977) rotate(-22.676)" fill="#263238"/>
              <g id="Group_21" data-name="Group 21">
                <rect id="Rectangle_30" data-name="Rectangle 30" width="5.362" height="26.689" transform="translate(299.669 265.537) rotate(13.369)" fill="#f1fafe"/>
              </g>
              <g id="Group_22" data-name="Group 22">
                <path id="Path_43" data-name="Path 43" d="M328.3,285.141,270.5,271.4a29.705,29.705,0,0,1,57.8,13.736Z" fill="#1e7af0"/>
                <path id="Path_44" data-name="Path 44" d="M328.3,285.141,270.5,271.4a29.705,29.705,0,0,1,57.8,13.736Z" opacity="0.2"/>
              </g>
            </g>
            <path id="Path_45" data-name="Path 45" d="M250.071,295.922a10.455,10.455,0,0,1,2.612-6.356,7.65,7.65,0,0,1,3.069-2.065,8.631,8.631,0,0,1,3.7-.411,6.888,6.888,0,0,1,5.8,4.333,11.563,11.563,0,0,1,.589,6.848,18.118,18.118,0,0,0-1.99-6.137,5.876,5.876,0,0,0-4.614-3.06,7.008,7.008,0,0,0-5.484,1.6A14.818,14.818,0,0,0,250.071,295.922Z" opacity="0.1"/>
          </g>
          <g id="Group_25" data-name="Group 25">
            <path id="Path_46" data-name="Path 46" d="M193.716,238.34c.235-3.017.573-6.018.859-9.027.321-3,.651-6.007,1.017-9,.347-3,.738-6,1.121-8.99s.81-5.984,1.213-8.977l.107-.8.81.051q9.772.615,19.505,1.6,4.867.5,9.722,1.126c3.231.464,6.467.892,9.679,1.48L218.232,204.6l-19.5-1.262.917-.748c-.443,2.987-.854,5.978-1.324,8.961s-.916,5.969-1.415,8.948c-.479,2.982-.995,5.958-1.519,8.934C194.834,232.4,194.327,235.377,193.716,238.34Z" fill="#fff"/>
            <path id="Path_47" data-name="Path 47" d="M198.411,261.156a24.66,24.66,0,0,1,4.517-10.09c.551-.756,1.178-1.456,1.782-2.176.652-.673,1.331-1.325,2-1.987.73-.594,1.468-1.183,2.218-1.754.8-.505,1.584-1.032,2.4-1.517.853-.41,1.7-.833,2.562-1.222l2.682-.928,2.776-.573c.932-.136,1.879-.165,2.814-.235a27.206,27.206,0,0,1,10.869,2.083,38.687,38.687,0,0,0-10.78-.715,25.352,25.352,0,0,0-10.073,3.126A29.4,29.4,0,0,0,204,251.917,33.3,33.3,0,0,0,198.411,261.156Z" fill="#fff"/>
            <path id="Path_48" data-name="Path 48" d="M276.287,268.782a24.643,24.643,0,0,1,5.866-9.369c.65-.674,1.368-1.28,2.065-1.909.739-.577,1.5-1.129,2.258-1.692.8-.487,1.617-.969,2.439-1.431.86-.39,1.711-.8,2.581-1.172.9-.288,1.8-.59,2.706-.856l2.785-.549,2.829-.184c.941-.007,1.883.1,2.819.155a27.214,27.214,0,0,1,10.477,3.564,38.69,38.69,0,0,0-10.578-2.2,25.346,25.346,0,0,0-10.408,1.705,29.411,29.411,0,0,0-9.032,5.555A33.285,33.285,0,0,0,276.287,268.782Z" fill="#fff"/>
          </g>
        </g>
        <g id="Group_45" data-name="Group 45">
          <g id="Group_29" data-name="Group 29">
            <g id="Group_27" data-name="Group 27">
              <path id="Path_49" data-name="Path 49" d="M189.141,359.252c-7.232,0-23.063-1.626-33.251-14.725-13.034-16.758-8.324-48.914-8.117-50.275l5.659.86c-.047.309-4.545,31.09,6.976,45.9,11.263,14.481,31.692,12.4,31.9,12.377l.645,5.687A35.788,35.788,0,0,1,189.141,359.252Z" fill="#1e7af0"/>
              <path id="Path_50" data-name="Path 50" d="M189.141,359.252c-7.232,0-23.063-1.626-33.251-14.725-13.034-16.758-8.324-48.914-8.117-50.275l5.659.86c-.047.309-4.545,31.09,6.976,45.9,11.263,14.481,31.692,12.4,31.9,12.377l.645,5.687A35.788,35.788,0,0,1,189.141,359.252Z" fill="#1e7af0" opacity="0.4"/>
            </g>
            <path id="Path_51" data-name="Path 51" d="M155.1,299.005a19.73,19.73,0,0,1-3.159-.26c-9.546-1.546-13.772-7.258-15.637-11.778s-2.3-10.01-1.283-16.286l12.106,1.961c-.63,3.889-.447,7.315.515,9.648.686,1.664,2.018,3.661,6.261,4.349,1.938.314,4.032.148,6.227-3.162a22.869,22.869,0,0,0,3.067-8.231l12.106,1.961a35.441,35.441,0,0,1-4.952,13.048C166.557,295.972,161.222,299.005,155.1,299.005Z" fill="#1e7af0"/>
            <g id="Group_28" data-name="Group 28">
              <path id="Path_52" data-name="Path 52" d="M201.1,375.633c-.021-.261-10.256-1.9-10.256-1.9l-4.968-33.406,12.4-4.9Z" fill="#1764c8"/>
            </g>
          </g>
          <g id="Group_30" data-name="Group 30">
            <path id="Path_54" data-name="Path 54" d="M302.3,375.7c.027-.261,10.3-1.669,10.3-1.669l5.7-33.288-12.286-5.169Z" fill="#134e9a"/>
            <path id="Path_55" data-name="Path 55" d="M302.3,375.7c.027-.261,10.3-1.669,10.3-1.669l5.7-33.288-12.286-5.169Z" opacity="0.2"/>
          </g>
          <path id="Path_56" data-name="Path 56" d="M196.841,327.955s82.786-3.54,110.751,1.121c0,0-8.212,80.106-8.656,81.66,0,0-82.351-.222-95.224,0C203.712,410.736,196.735,357.469,196.841,327.955Z" fill="#1e7af0"/>
          <g id="Group_41" data-name="Group 41">
            <path id="Path_57" data-name="Path 57" d="M221.987,349.906s45.193-1.785,60.459.565c0,0-4.483,40.394-4.725,41.177,0,0-44.956-.112-51.984,0C225.737,391.648,222.649,364,221.987,349.906Z" opacity="0.2"/>
            <path id="Path_58" data-name="Path 58" d="M228.164,391.631c-1.034,0-1.855.013-2.429.02,0,0-3.084-27.651-3.751-41.747,0,0,1.028-.04,2.823-.1Z" opacity="0.2"/>
            <g id="Group_35" data-name="Group 35">
              <g id="Group_34" data-name="Group 34">
                <g id="Group_33" data-name="Group 33">
                  <g id="Group_32" data-name="Group 32">
                    <path id="Path_59" data-name="Path 59" d="M241.494,359.873a4.807,4.807,0,1,0,3.137,6.03A4.807,4.807,0,0,0,241.494,359.873Zm2.58,5.853a4.22,4.22,0,1,1-2.754-5.292A4.219,4.219,0,0,1,244.074,365.726Zm-2.58-5.853a4.807,4.807,0,1,0,3.137,6.03A4.807,4.807,0,0,0,241.494,359.873Zm2.58,5.853a4.22,4.22,0,1,1-2.754-5.292A4.219,4.219,0,0,1,244.074,365.726Zm-2.58-5.853a4.807,4.807,0,1,0,3.137,6.03A4.807,4.807,0,0,0,241.494,359.873Zm2.58,5.853a4.22,4.22,0,1,1-2.754-5.292A4.219,4.219,0,0,1,244.074,365.726ZM243.1,354.8A10.132,10.132,0,1,0,249.71,367.5,10.135,10.135,0,0,0,243.1,354.8Zm2.25,11.331a5.553,5.553,0,1,1-3.626-6.964A5.56,5.56,0,0,1,245.346,366.126Zm-.715-.223a4.805,4.805,0,1,0-6.025,3.14A4.807,4.807,0,0,0,244.631,365.9Zm-.557-.177a4.22,4.22,0,1,1-2.754-5.292A4.219,4.219,0,0,1,244.074,365.726Zm-2.58-5.853a4.807,4.807,0,1,0,3.137,6.03A4.807,4.807,0,0,0,241.494,359.873Zm2.58,5.853a4.22,4.22,0,1,1-2.754-5.292A4.219,4.219,0,0,1,244.074,365.726Zm-2.58-5.853a4.807,4.807,0,1,0,3.137,6.03A4.807,4.807,0,0,0,241.494,359.873Zm2.58,5.853a4.22,4.22,0,1,1-2.754-5.292A4.219,4.219,0,0,1,244.074,365.726Z" fill="#fff"/>
                    <g id="Group_31" data-name="Group 31">
                      <path id="Path_60" data-name="Path 60" d="M238.988,374.305l-3.715-1.171-.623,2.695,3.3,1.041Z" fill="#fff"/>
                      <path id="Path_61" data-name="Path 61" d="M232.311,370.825l-1.8-3.455-2.346,1.465,1.6,3.073Z" fill="#fff"/>
                      <path id="Path_62" data-name="Path 62" d="M230.05,363.642l1.171-3.715-2.695-.623-1.041,3.3Z" fill="#fff"/>
                      <path id="Path_63" data-name="Path 63" d="M233.53,356.965l3.455-1.8-1.465-2.346-3.073,1.6Z" fill="#fff"/>
                      <path id="Path_64" data-name="Path 64" d="M240.712,354.7l3.715,1.171.623-2.695-3.3-1.041Z" fill="#fff"/>
                      <path id="Path_65" data-name="Path 65" d="M247.39,358.184l1.8,3.455,2.346-1.465-1.6-3.073Z" fill="#fff"/>
                      <path id="Path_66" data-name="Path 66" d="M249.651,365.367l-1.171,3.715,2.695.623,1.041-3.3Z" fill="#fff"/>
                      <path id="Path_67" data-name="Path 67" d="M246.171,372.044l-3.455,1.8,1.465,2.346,3.073-1.6Z" fill="#fff"/>
                    </g>
                  </g>
                </g>
              </g>
            </g>
            <g id="Group_40" data-name="Group 40">
              <g id="Group_39" data-name="Group 39">
                <g id="Group_38" data-name="Group 38">
                  <g id="Group_37" data-name="Group 37">
                    <path id="Path_68" data-name="Path 68" d="M257.835,374.012a3.236,3.236,0,1,0,.944,4.478A3.237,3.237,0,0,0,257.835,374.012Zm.615,4.262a2.841,2.841,0,1,1-.83-3.93A2.84,2.84,0,0,1,258.45,378.274Zm-.615-4.262a3.236,3.236,0,1,0,.944,4.478A3.237,3.237,0,0,0,257.835,374.012Zm.615,4.262a2.841,2.841,0,1,1-.83-3.93A2.84,2.84,0,0,1,258.45,378.274Zm-.615-4.262a3.236,3.236,0,1,0,.944,4.478A3.237,3.237,0,0,0,257.835,374.012Zm.615,4.262a2.841,2.841,0,1,1-.83-3.93A2.84,2.84,0,0,1,258.45,378.274Zm1.342-7.265a6.821,6.821,0,1,0,1.992,9.436A6.823,6.823,0,0,0,259.792,371.009Zm-.59,7.755a3.738,3.738,0,1,1-1.092-5.172A3.742,3.742,0,0,1,259.2,378.764Zm-.423-.274a3.235,3.235,0,1,0-4.475.947A3.237,3.237,0,0,0,258.779,378.49Zm-.329-.216a2.841,2.841,0,1,1-.83-3.93A2.84,2.84,0,0,1,258.45,378.274Zm-.615-4.262a3.236,3.236,0,1,0,.944,4.478A3.237,3.237,0,0,0,257.835,374.012Zm.615,4.262a2.841,2.841,0,1,1-.83-3.93A2.84,2.84,0,0,1,258.45,378.274Zm-.615-4.262a3.236,3.236,0,1,0,.944,4.478A3.237,3.237,0,0,0,257.835,374.012Zm.615,4.262a2.841,2.841,0,1,1-.83-3.93A2.84,2.84,0,0,1,258.45,378.274Z" fill="#dbdbdb"/>
                    <g id="Group_36" data-name="Group 36">
                      <path id="Path_69" data-name="Path 69" d="M253.6,382.918l-2.2-1.431-.892,1.635,1.955,1.273Z" fill="#dbdbdb"/>
                      <path id="Path_70" data-name="Path 70" d="M249.9,379.454l-.542-2.566-1.786.526.482,2.282Z" fill="#dbdbdb"/>
                      <path id="Path_71" data-name="Path 71" d="M249.732,374.387l1.431-2.2-1.635-.891-1.273,1.955Z" fill="#dbdbdb"/>
                      <path id="Path_72" data-name="Path 72" d="M253.2,370.686l2.566-.542-.526-1.786-2.282.482Z" fill="#dbdbdb"/>
                      <path id="Path_73" data-name="Path 73" d="M258.263,370.519l2.2,1.431.892-1.635-1.955-1.273Z" fill="#dbdbdb"/>
                      <path id="Path_74" data-name="Path 74" d="M261.964,373.983l.542,2.566,1.786-.526-.482-2.282Z" fill="#dbdbdb"/>
                      <path id="Path_75" data-name="Path 75" d="M262.131,379.05l-1.431,2.2,1.635.891,1.273-1.955Z" fill="#dbdbdb"/>
                      <path id="Path_76" data-name="Path 76" d="M258.667,382.751l-2.566.542.526,1.786,2.282-.482Z" fill="#dbdbdb"/>
                    </g>
                  </g>
                </g>
              </g>
            </g>
          </g>
          <g id="Group_43" data-name="Group 43">
            <path id="Path_77" data-name="Path 77" d="M305.594,401.414l3.181.592,9.1-61.627-3.625-.666Z" fill="#1e7af0"/>
            <g id="Group_42" data-name="Group 42">
              <path id="Path_78" data-name="Path 78" d="M277.721,391.648l4.725-41.177,31.8-10.758s-8.656,62.367-8.656,61.7Z" fill="#1e7af0"/>
              <path id="Path_79" data-name="Path 79" d="M277.721,391.648l4.725-41.177,31.8-10.758s-8.656,62.367-8.656,61.7Z" fill="#fff" opacity="0.4"/>
            </g>
          </g>
          <path id="Path_80" data-name="Path 80" d="M200.64,352.139c-.518-3.411-.8-6.85-1.011-10.292-.1-1.721-.141-3.445-.18-5.17s-.064-3.449-.013-5.174l.014-.454.441-.023c6.318-.339,12.632-.755,18.953-1.031,6.32-.312,12.641-.6,18.965-.793-6.3.571-12.613,1.057-18.923,1.515-6.307.493-12.623.847-18.934,1.277l.455-.477-.026,5.15.06,5.152q.012,2.577.09,5.156Z" fill="#fff"/>
          <path id="Path_81" data-name="Path 81" d="M286.882,351.075q2.957-1.4,6-2.609c2.019-.822,4.056-1.6,6.117-2.314s4.135-1.4,6.241-1.981a58.476,58.476,0,0,1,6.392-1.493l.533-.087-.1.509c-.5,2.666-1.022,5.328-1.639,7.975.231-2.708.557-5.4.906-8.091l.438.422c-2.1.5-4.185,1.086-6.263,1.7s-4.146,1.275-6.21,1.947Z" fill="#fff"/>
          <g id="Group_44" data-name="Group 44">
            <path id="Path_82" data-name="Path 82" d="M214.4,328.122l.536,10.3.458,10.3.794,20.608.621,20.614.248,10.309.17,10.312-.537-10.3-.458-10.3-.793-20.608-.619-20.614-.249-10.309Z" opacity="0.1"/>
            <path id="Path_83" data-name="Path 83" d="M211.453,334.33a1.945,1.945,0,0,1-1.329,2.24,1.942,1.942,0,1,1-.764-3.79A1.944,1.944,0,0,1,211.453,334.33Zm0,0a1.558,1.558,0,0,0-2.019-1.181,1.571,1.571,0,0,0,.616,3.055,1.561,1.561,0,0,0,1.4-1.874Z" opacity="0.1"/>
            <path id="Path_84" data-name="Path 84" d="M212.162,346.679a1.945,1.945,0,0,1-1.329,2.24,1.942,1.942,0,1,1-.764-3.79A1.944,1.944,0,0,1,212.162,346.679Zm0,0a1.558,1.558,0,0,0-2.019-1.181,1.571,1.571,0,0,0,.616,3.055,1.559,1.559,0,0,0,1.4-1.874Z" opacity="0.1"/>
            <path id="Path_85" data-name="Path 85" d="M212.612,359.788a1.943,1.943,0,0,1-1.329,2.239,1.942,1.942,0,1,1-.764-3.79A1.946,1.946,0,0,1,212.612,359.788Zm0,0a1.559,1.559,0,0,0-2.019-1.182,1.571,1.571,0,0,0,.616,3.055,1.559,1.559,0,0,0,1.4-1.873Z" opacity="0.1"/>
            <path id="Path_86" data-name="Path 86" d="M213.062,372.9a1.945,1.945,0,0,1-1.329,2.24,1.942,1.942,0,1,1-.764-3.791A1.946,1.946,0,0,1,213.062,372.9Zm0,0a1.557,1.557,0,0,0-2.019-1.181,1.571,1.571,0,0,0,.616,3.055,1.561,1.561,0,0,0,1.4-1.874Z" opacity="0.1"/>
            <path id="Path_87" data-name="Path 87" d="M213.512,386.005a1.944,1.944,0,0,1-1.329,2.239,1.942,1.942,0,1,1-.765-3.79A1.946,1.946,0,0,1,213.512,386.005Zm0,0a1.559,1.559,0,0,0-2.019-1.182,1.571,1.571,0,0,0,.616,3.055,1.56,1.56,0,0,0,1.4-1.873Z" opacity="0.1"/>
            <path id="Path_88" data-name="Path 88" d="M213.962,399.113a1.943,1.943,0,0,1-1.329,2.239,1.942,1.942,0,1,1-.765-3.79A1.947,1.947,0,0,1,213.962,399.113Zm0,0a1.608,1.608,0,0,0-.774-1.065,1.591,1.591,0,0,0-1.245-.116,1.571,1.571,0,0,0,.616,3.055,1.561,1.561,0,0,0,1.4-1.874Z" opacity="0.1"/>
          </g>
        </g>
        <g id="Group_48" data-name="Group 48">
          <rect id="Rectangle_31" data-name="Rectangle 31" width="48.981" height="5.723" transform="translate(171.154 433.361) rotate(-16.86)" fill="#ffc727"/>
          <rect id="Rectangle_32" data-name="Rectangle 32" width="48.981" height="5.723" transform="translate(171.154 433.361) rotate(-16.86)" fill="#1e7af0"/>
          <rect id="Rectangle_33" data-name="Rectangle 33" width="5.723" height="8.501" transform="translate(190.118 425.813) rotate(-17.644)" fill="#1259b4"/>
          <g id="Group_47" data-name="Group 47">
            <path id="Path_89" data-name="Path 89" d="M172.427,446.863l-12.1-52.379-36.51,8.656L141.8,454.187Z" fill="#78aff6"/>
            <g id="Group_46" data-name="Group 46">
              <path id="Path_90" data-name="Path 90" d="M180.528,444.2l-8.1,2.663-12.1-52.379,11.652,2.774Z" fill="#1862c0"/>
            </g>
          </g>
          <circle id="Ellipse_7" data-name="Ellipse 7" cx="6.214" cy="6.214" r="6.214" transform="translate(212.645 415.68)" fill="#1259b4"/>
        </g>
        <g id="Group_51" data-name="Group 51">
          <rect id="Rectangle_34" data-name="Rectangle 34" width="5.723" height="48.981" transform="matrix(0.292, -0.956, 0.956, 0.292, 281.142, 424.487)" fill="#ffc727"/>
          <rect id="Rectangle_35" data-name="Rectangle 35" width="5.723" height="48.981" transform="matrix(0.292, -0.956, 0.956, 0.292, 281.142, 424.487)" fill="#1e7af0"/>
          <rect id="Rectangle_36" data-name="Rectangle 36" width="8.501" height="5.723" transform="matrix(0.305, -0.952, 0.952, 0.305, 302.667, 432.079)" fill="#1259b4"/>
          <g id="Group_50" data-name="Group 50">
            <path id="Path_92" data-name="Path 92" d="M328.357,446.818l12.207-52.353,36.491,8.733L358.97,454.207Z" fill="#78aff6"/>
            <g id="Group_49" data-name="Group 49">
              <path id="Path_93" data-name="Path 93" d="M320.262,444.137l8.1,2.681,12.207-52.353-11.658,2.75Z" fill="#ffc727"/>
              <path id="Path_94" data-name="Path 94" d="M320.262,444.137l8.1,2.681,12.207-52.353-11.658,2.75Z" fill="#1862c0"/>
            </g>
          </g>
          <path id="Path_95" data-name="Path 95" d="M275.764,421.737a6.215,6.215,0,1,0,6.228-6.2A6.215,6.215,0,0,0,275.764,421.737Z" fill="#1259b4"/>
        </g>
        <g id="Group_53" data-name="Group 53">
          <g id="Group_52" data-name="Group 52">
            <path id="Path_96" data-name="Path 96" d="M322.663,357.132c.146-.138,15.2-14.1,32.914-9.327,18.113,4.887,33.066,32.167,33.215,32.443l5.034-2.722c-.654-1.211-16.251-29.724-36.759-35.246-20.857-5.625-37.642,10.034-38.347,10.7Z" fill="#1e7af0"/>
            <path id="Path_97" data-name="Path 97" d="M322.663,357.132c.146-.138,15.2-14.1,32.914-9.327,18.113,4.887,33.066,32.167,33.215,32.443l5.034-2.722c-.654-1.211-16.251-29.724-36.759-35.246-20.857-5.625-37.642,10.034-38.347,10.7Z" fill="#1e7af0" opacity="0.4"/>
          </g>
          <path id="Path_98" data-name="Path 98" d="M382.118,407.712l10.845-5.726a22.9,22.9,0,0,1-2.509-8.418c-.241-3.965,1.332-5.359,3.068-6.275,3.8-2.007,6.067-1.211,7.616-.3,2.173,1.283,4.383,3.908,6.222,7.392l10.846-5.726c-2.969-5.622-6.613-9.736-10.834-12.227s-11.025-4.5-19.577.015c-6.666,3.519-10.069,9.864-9.582,17.865A35.45,35.45,0,0,0,382.118,407.712Z" fill="#1e7af0"/>
        </g>
        <g id="Group_54" data-name="Group 54">
          <path id="Path_99" data-name="Path 99" d="M324.949,338.022c2.351-1.624,4.758-3.154,7.172-4.67s4.859-2.983,7.308-4.441c2.461-1.437,4.923-2.872,7.425-4.241l3.754-2.049c1.27-.652,2.522-1.334,3.808-1.959-1.171.821-2.374,1.586-3.559,2.381l-3.613,2.29c-2.409,1.525-4.858,2.983-7.308,4.439-2.462,1.436-4.924,2.872-7.426,4.24S327.509,336.753,324.949,338.022Z" fill="#263238"/>
          <path id="Path_100" data-name="Path 100" d="M318.72,361.423c3.367,1.919,6.558,4.083,9.7,6.308,3.13,2.25,6.216,4.561,9.124,7.122-3.367-1.917-6.558-4.081-9.7-6.308C324.716,366.293,321.63,363.982,318.72,361.423Z" fill="#263238"/>
          <path id="Path_101" data-name="Path 101" d="M324.249,358.545c2.6.789,5.156,1.681,7.708,2.588s5.083,1.866,7.611,2.836c2.519.992,5.037,1.986,7.527,3.052l3.734,1.6c1.231.568,2.475,1.1,3.695,1.7-1.3-.385-2.582-.831-3.873-1.244l-3.835-1.343c-2.556-.9-5.084-1.866-7.61-2.837-2.519-.993-5.037-1.987-7.527-3.054S326.7,359.719,324.249,358.545Z" fill="#263238"/>
          <path id="Path_102" data-name="Path 102" d="M331.63,340.217c2.49-.647,5-1.186,7.51-1.709s5.033-.99,7.556-1.446c2.528-.433,5.055-.864,7.6-1.219l3.813-.528c1.277-.141,2.548-.315,3.83-.425-1.243.334-2.5.6-3.746.907l-3.764.8c-2.509.533-5.032.99-7.556,1.445-2.527.431-5.055.863-7.6,1.217S334.191,339.977,331.63,340.217Z" fill="#263238"/>
        </g>
      </g>
    </g>
    <g id="Gears">
      <g id="Group_75" data-name="Group 75">
        <path id="Path_103" data-name="Path 103" d="M271.622,355.787c1.39-6.144,6.7-16.295,14.642-15.018s8.527,12.684,4.443,12.329-4.346-23.322,9.565-26.989,22.314,10.279,22.314,10.279" fill="none" stroke="#263238" stroke-miterlimit="10" stroke-width="1"/>
        <path id="Path_104" data-name="Path 104" d="M179.217,381.7c2.921-5.184,10.35-9.147,16.667-6.551,9.21,3.786,10.612,17.917,5.884,17.653-7.577-.425,2.036-20.5,16.829-18.862,13.323,1.472,15.478,16.95,15.478,16.95" fill="none" stroke="#263238" stroke-miterlimit="10" stroke-width="1"/>
        <path id="Path_105" data-name="Path 105" d="M132.953,140.208c.116-6.3-2.616-17.424-10.635-18.079s-11.308,10.282-7.257,10.912,9.786-21.611-2.848-28.492-24.121,4.656-24.121,4.656" transform="translate(41.463 71.567)" fill="none" stroke="#263238" stroke-miterlimit="10" stroke-width="1"/>
        <path id="Path_106" data-name="Path 106" d="M353.77,192.371c-6.1-1.582-17.553-1.521-20.061,6.123s7.36,13.4,8.917,9.6-18.731-14.559-28.37-3.88-1.1,24.543-1.1,24.543" fill="none" stroke="#263238" stroke-miterlimit="10" stroke-width="1"/>
        <path id="Path_107" data-name="Path 107" d="M291.86,127.671c-1.839-6.887,1.207-16.5,8.791-19.566,11.059-4.468,24.092,6.463,19.82,10.194-6.846,5.981-15.416-19.26-1.376-30.246,12.645-9.894,27.449,1.56,27.449,1.56" transform="translate(5.928 14)" fill="none" stroke="#263238" stroke-miterlimit="10" stroke-width="1"/>
        <g id="Group_60" data-name="Group 60">
          <g id="Group_59" data-name="Group 59">
            <g id="Group_58" data-name="Group 58">
              <g id="Group_57" data-name="Group 57">
                <path id="Path_108" data-name="Path 108" d="M175.874,381.922a4.252,4.252,0,1,0,2.775,5.333A4.252,4.252,0,0,0,175.874,381.922Zm2.282,5.177a3.733,3.733,0,1,1-2.436-4.682A3.732,3.732,0,0,1,178.156,387.1Zm-2.282-5.177a4.252,4.252,0,1,0,2.775,5.333A4.252,4.252,0,0,0,175.874,381.922Zm2.282,5.177a3.733,3.733,0,1,1-2.436-4.682A3.732,3.732,0,0,1,178.156,387.1Zm-2.282-5.177a4.252,4.252,0,1,0,2.775,5.333A4.252,4.252,0,0,0,175.874,381.922Zm2.282,5.177a3.733,3.733,0,1,1-2.436-4.682A3.732,3.732,0,0,1,178.156,387.1Zm-.865-9.67a8.963,8.963,0,1,0,5.851,11.241A8.967,8.967,0,0,0,177.291,377.429Zm1.99,10.024a4.912,4.912,0,1,1-3.207-6.161A4.918,4.918,0,0,1,179.281,387.453Zm-.632-.2a4.251,4.251,0,1,0-5.33,2.778A4.251,4.251,0,0,0,178.649,387.255Zm-.493-.156a3.733,3.733,0,1,1-2.436-4.682A3.732,3.732,0,0,1,178.156,387.1Zm-2.282-5.177a4.252,4.252,0,1,0,2.775,5.333A4.252,4.252,0,0,0,175.874,381.922Zm2.282,5.177a3.733,3.733,0,1,1-2.436-4.682A3.732,3.732,0,0,1,178.156,387.1Zm-2.282-5.177a4.252,4.252,0,1,0,2.775,5.333A4.252,4.252,0,0,0,175.874,381.922Zm2.282,5.177a3.733,3.733,0,1,1-2.436-4.682A3.732,3.732,0,0,1,178.156,387.1Z" fill="#455a64"/>
                <g id="Group_56" data-name="Group 56">
                  <path id="Path_109" data-name="Path 109" d="M173.657,394.688l-3.287-1.036-.551,2.384,2.923.921Z" fill="#455a64"/>
                  <path id="Path_110" data-name="Path 110" d="M167.75,391.61l-1.592-3.056-2.076,1.3,1.416,2.719Z" fill="#455a64"/>
                  <path id="Path_111" data-name="Path 111" d="M165.75,385.256l1.036-3.287-2.384-.551-.921,2.923Z" fill="#455a64"/>
                  <path id="Path_112" data-name="Path 112" d="M168.829,379.349l3.056-1.592-1.3-2.076-2.718,1.416Z" fill="#455a64"/>
                  <path id="Path_113" data-name="Path 113" d="M175.182,377.349l3.287,1.036.551-2.384-2.923-.921Z" fill="#455a64"/>
                  <path id="Path_114" data-name="Path 114" d="M181.089,380.427l1.592,3.057,2.076-1.3-1.416-2.718Z" fill="#455a64"/>
                  <path id="Path_115" data-name="Path 115" d="M183.09,386.781l-1.036,3.287,2.384.551.921-2.923Z" fill="#455a64"/>
                  <path id="Path_116" data-name="Path 116" d="M180.011,392.688l-3.057,1.592,1.3,2.076,2.719-1.416Z" fill="#455a64"/>
                </g>
              </g>
            </g>
          </g>
        </g>
        <g id="Group_62" data-name="Group 62">
          <g id="Group_61" data-name="Group 61">
            <path id="Path_117" data-name="Path 117" d="M341.674,353.349a13.7,13.7,0,1,0-19.164,2.839A13.7,13.7,0,0,0,341.674,353.349ZM335.811,349a6.4,6.4,0,1,1-1.325-8.947A6.4,6.4,0,0,1,335.811,349Z" fill="#263238"/>
            <path id="Path_118" data-name="Path 118" d="M324.963,357.3l-4.23-3.139-1.988,3.168,3.762,2.792Z" fill="#263238"/>
            <path id="Path_119" data-name="Path 119" d="M317.97,349.9l-.771-5.211-3.646.834.686,4.635Z" fill="#263238"/>
            <path id="Path_120" data-name="Path 120" d="M318.257,339.721l3.139-4.23-3.168-1.988-2.792,3.762Z" fill="#263238"/>
            <path id="Path_121" data-name="Path 121" d="M325.658,332.728l5.211-.771-.834-3.646L325.4,329Z" fill="#263238"/>
            <path id="Path_122" data-name="Path 122" d="M335.836,333.015l4.23,3.139,1.988-3.168-3.762-2.792Z" fill="#263238"/>
            <path id="Path_123" data-name="Path 123" d="M342.829,340.416l.771,5.211,3.646-.834-.686-4.635Z" fill="#263238"/>
            <path id="Path_124" data-name="Path 124" d="M342.542,350.594l-3.139,4.23,3.168,1.988,2.792-3.762Z" fill="#263238"/>
            <path id="Path_125" data-name="Path 125" d="M335.141,357.587l-5.211.771.834,3.646,4.635-.686Z" fill="#263238"/>
          </g>
          <path id="Path_126" data-name="Path 126" d="M325.767,345.843l2.909,3.67,4.634-.688,1.72-4.353-2.907-3.668-4.634.684Zm5.516-1.878a1.485,1.485,0,1,1-2.077.308A1.483,1.483,0,0,1,331.283,343.965Z" fill="#263238"/>
        </g>
        <g id="Group_67" data-name="Group 67" transform="translate(5.928 14)">
          <g id="Group_66" data-name="Group 66">
            <g id="Group_65" data-name="Group 65">
              <g id="Group_64" data-name="Group 64">
                <path id="Path_127" data-name="Path 127" d="M351.943,86.6a3.721,3.721,0,1,0,2.429,4.667A3.72,3.72,0,0,0,351.943,86.6Zm2,4.53a3.266,3.266,0,1,1-2.132-4.1A3.266,3.266,0,0,1,353.94,91.131Zm-2-4.53a3.721,3.721,0,1,0,2.429,4.667A3.72,3.72,0,0,0,351.943,86.6Zm2,4.53a3.266,3.266,0,1,1-2.132-4.1A3.266,3.266,0,0,1,353.94,91.131Zm-2-4.53a3.721,3.721,0,1,0,2.429,4.667A3.72,3.72,0,0,0,351.943,86.6Zm2,4.53a3.266,3.266,0,1,1-2.132-4.1A3.266,3.266,0,0,1,353.94,91.131Zm-.757-8.462a7.843,7.843,0,1,0,5.12,9.837A7.847,7.847,0,0,0,353.183,82.669Zm1.742,8.772a4.3,4.3,0,1,1-2.807-5.391A4.3,4.3,0,0,1,354.925,91.441Zm-.553-.173a3.72,3.72,0,1,0-4.664,2.431A3.721,3.721,0,0,0,354.372,91.268Zm-.432-.137a3.266,3.266,0,1,1-2.132-4.1A3.266,3.266,0,0,1,353.94,91.131Zm-2-4.53a3.721,3.721,0,1,0,2.429,4.667A3.72,3.72,0,0,0,351.943,86.6Zm2,4.53a3.266,3.266,0,1,1-2.132-4.1A3.266,3.266,0,0,1,353.94,91.131Zm-2-4.53a3.721,3.721,0,1,0,2.429,4.667A3.72,3.72,0,0,0,351.943,86.6Zm2,4.53a3.266,3.266,0,1,1-2.132-4.1A3.266,3.266,0,0,1,353.94,91.131Z" fill="#263238"/>
                <g id="Group_63" data-name="Group 63">
                  <path id="Path_128" data-name="Path 128" d="M350,97.772l-2.876-.906-.483,2.086,2.558.806Z" fill="#263238"/>
                  <path id="Path_129" data-name="Path 129" d="M344.834,95.078,343.441,92.4l-1.816,1.134,1.239,2.379Z" fill="#263238"/>
                  <path id="Path_130" data-name="Path 130" d="M343.084,89.518l.906-2.876L341.9,86.16l-.806,2.558Z" fill="#263238"/>
                  <path id="Path_131" data-name="Path 131" d="M345.778,84.349l2.674-1.393-1.134-1.816-2.379,1.239Z" fill="#263238"/>
                  <path id="Path_132" data-name="Path 132" d="M351.338,82.6l2.876.906.482-2.086-2.558-.806Z" fill="#263238"/>
                  <path id="Path_133" data-name="Path 133" d="M356.507,85.293l1.393,2.674,1.816-1.134-1.239-2.379Z" fill="#263238"/>
                  <path id="Path_134" data-name="Path 134" d="M358.257,90.853l-.906,2.876,2.086.482.806-2.558Z" fill="#263238"/>
                  <path id="Path_135" data-name="Path 135" d="M355.563,96.022l-2.675,1.393,1.134,1.816,2.379-1.239Z" fill="#263238"/>
                </g>
              </g>
            </g>
          </g>
        </g>
        <g id="Group_72" data-name="Group 72">
          <g id="Group_71" data-name="Group 71">
            <g id="Group_70" data-name="Group 70">
              <g id="Group_69" data-name="Group 69">
                <path id="Path_136" data-name="Path 136" d="M313.728,229.466a3.721,3.721,0,1,0,2.428,4.667A3.722,3.722,0,0,0,313.728,229.466Zm2,4.53a3.266,3.266,0,1,1-2.132-4.1A3.266,3.266,0,0,1,315.724,234Zm-2-4.53a3.721,3.721,0,1,0,2.428,4.667A3.722,3.722,0,0,0,313.728,229.466Zm2,4.53a3.266,3.266,0,1,1-2.132-4.1A3.266,3.266,0,0,1,315.724,234Zm-2-4.53a3.721,3.721,0,1,0,2.428,4.667A3.722,3.722,0,0,0,313.728,229.466Zm2,4.53a3.266,3.266,0,1,1-2.132-4.1A3.266,3.266,0,0,1,315.724,234Zm-.756-8.461a7.843,7.843,0,1,0,5.119,9.836A7.846,7.846,0,0,0,314.968,225.535Zm1.741,8.771a4.3,4.3,0,1,1-2.807-5.391A4.3,4.3,0,0,1,316.709,234.306Zm-.553-.173a3.72,3.72,0,1,0-4.664,2.431A3.721,3.721,0,0,0,316.156,234.133Zm-.432-.137a3.266,3.266,0,1,1-2.132-4.1A3.266,3.266,0,0,1,315.724,234Zm-2-4.53a3.721,3.721,0,1,0,2.428,4.667A3.722,3.722,0,0,0,313.728,229.466Zm2,4.53a3.266,3.266,0,1,1-2.132-4.1A3.266,3.266,0,0,1,315.724,234Zm-2-4.53a3.721,3.721,0,1,0,2.428,4.667A3.722,3.722,0,0,0,313.728,229.466Zm2,4.53a3.266,3.266,0,1,1-2.132-4.1A3.266,3.266,0,0,1,315.724,234Z" fill="#263238"/>
                <g id="Group_68" data-name="Group 68">
                  <path id="Path_137" data-name="Path 137" d="M311.787,240.637l-2.876-.906-.482,2.086,2.558.806Z" fill="#263238"/>
                  <path id="Path_138" data-name="Path 138" d="M306.618,237.943l-1.393-2.675-1.816,1.134,1.239,2.379Z" fill="#263238"/>
                  <path id="Path_139" data-name="Path 139" d="M304.868,232.383l.906-2.876-2.086-.482-.806,2.558Z" fill="#263238"/>
                  <path id="Path_140" data-name="Path 140" d="M307.562,227.214l2.674-1.393-1.134-1.816-2.379,1.239Z" fill="#263238"/>
                  <path id="Path_141" data-name="Path 141" d="M313.122,225.464l2.876.906.482-2.086-2.558-.806Z" fill="#263238"/>
                  <path id="Path_142" data-name="Path 142" d="M318.291,228.158l1.393,2.674L321.5,229.7l-1.239-2.379Z" fill="#263238"/>
                  <path id="Path_143" data-name="Path 143" d="M320.041,233.718l-.906,2.876,2.086.483.806-2.558Z" fill="#263238"/>
                  <path id="Path_144" data-name="Path 144" d="M317.347,238.887l-2.674,1.393,1.134,1.816,2.379-1.239Z" fill="#263238"/>
                </g>
              </g>
            </g>
          </g>
        </g>
        <g id="Group_74" data-name="Group 74" transform="translate(41.463 71.567)">
          <g id="Group_73" data-name="Group 73">
            <path id="Path_145" data-name="Path 145" d="M95.021,116.993a11.8,11.8,0,1,0-14.251,8.67A11.8,11.8,0,0,0,95.021,116.993ZM88.913,115.5a5.509,5.509,0,1,1-4.047-6.654A5.507,5.507,0,0,1,88.913,115.5Z" fill="#263238"/>
            <path id="Path_146" data-name="Path 146" d="M83.088,125.723l-4.407-1.074-.516,3.179,3.92.955Z" fill="#263238"/>
            <path id="Path_147" data-name="Path 147" d="M75.062,122.195l-2.357-3.875L70.092,120.2l2.1,3.447Z" fill="#263238"/>
            <path id="Path_148" data-name="Path 148" d="M71.881,114.024l1.074-4.407-3.179-.516-.955,3.92Z" fill="#263238"/>
            <path id="Path_149" data-name="Path 149" d="M75.41,106l3.875-2.357L77.4,101.028l-3.447,2.1Z" fill="#263238"/>
            <path id="Path_150" data-name="Path 150" d="M83.58,102.818l4.407,1.074.516-3.179-3.92-.955Z" fill="#263238"/>
            <path id="Path_151" data-name="Path 151" d="M91.606,106.346l2.357,3.875,2.613-1.883-2.1-3.447Z" fill="#263238"/>
            <path id="Path_152" data-name="Path 152" d="M94.787,114.517l-1.074,4.407,3.179.516.955-3.92Z" fill="#263238"/>
            <path id="Path_153" data-name="Path 153" d="M91.258,122.543,87.383,124.9l1.883,2.613,3.447-2.1Z" fill="#263238"/>
          </g>
          <path id="Path_154" data-name="Path 154" d="M79.889,116.366l3.537,1.937,3.445-2.1-.093-4.029-3.535-1.936L79.8,112.334Zm3.747-3.337a1.278,1.278,0,1,1-1.545.939A1.275,1.275,0,0,1,83.636,113.029Z" fill="#263238"/>
        </g>
      </g>
    </g>
    <g id="Speech_Bubble" data-name="Speech Bubble">
      <g id="Group_77" data-name="Group 77">
        <path id="Path_155" data-name="Path 155" d="M361.59,238.938a24.563,24.563,0,0,1-4.2-13.573c0-17.2,18.884-31.138,42.163-31.138s42.144,13.942,42.144,31.138S422.829,256.5,399.55,256.5c-11.288,0-21.521-3.27-29.081-8.615l-14.523,3.692Z" fill="#fff" stroke="#263238" stroke-miterlimit="10" stroke-width="1"/>
        <g id="Group_76" data-name="Group 76">
          <path id="Path_156" data-name="Path 156" d="M377.861,230.463v2.316h-9.434V219.191h9.262v2.316h-6.621v3.272h5.722v2.144h-5.722v3.54Z" fill="#263238"/>
          <path id="Path_157" data-name="Path 157" d="M379.929,232.779V219.191h6.009a3.863,3.863,0,0,1,1.732.392,4.5,4.5,0,0,1,1.368,1.034,4.848,4.848,0,0,1,.9,1.454,4.379,4.379,0,0,1,.326,1.637,4.508,4.508,0,0,1-.661,2.4,3.782,3.782,0,0,1-1.789,1.56l3.1,5.11h-2.967l-2.774-4.555h-2.6v4.555Zm2.641-6.871h3.311a1.393,1.393,0,0,0,.679-.172,1.728,1.728,0,0,0,.545-.469,2.3,2.3,0,0,0,.364-.7,2.687,2.687,0,0,0,.134-.861,2.459,2.459,0,0,0-.153-.881,2.293,2.293,0,0,0-.412-.7,1.867,1.867,0,0,0-.593-.46,1.545,1.545,0,0,0-.679-.162h-3.2Z" fill="#263238"/>
          <path id="Path_158" data-name="Path 158" d="M392.654,232.779V219.191h6.01a3.859,3.859,0,0,1,1.731.392,4.5,4.5,0,0,1,1.369,1.034,4.888,4.888,0,0,1,.9,1.454,4.377,4.377,0,0,1,.325,1.637,4.507,4.507,0,0,1-.66,2.4,3.782,3.782,0,0,1-1.789,1.56l3.1,5.11h-2.967l-2.775-4.555h-2.6v4.555Zm2.642-6.871h3.31a1.39,1.39,0,0,0,.679-.172,1.72,1.72,0,0,0,.546-.469,2.318,2.318,0,0,0,.363-.7,2.687,2.687,0,0,0,.135-.861,2.481,2.481,0,0,0-.153-.881,2.334,2.334,0,0,0-.412-.7,1.867,1.867,0,0,0-.593-.46,1.549,1.549,0,0,0-.68-.162h-3.2Z" fill="#263238"/>
          <path id="Path_159" data-name="Path 159" d="M411.18,232.874a6.176,6.176,0,0,1-2.708-.583,6.638,6.638,0,0,1-2.086-1.55,7.177,7.177,0,0,1-1.827-4.756,6.833,6.833,0,0,1,.506-2.6,7.174,7.174,0,0,1,1.4-2.2,6.675,6.675,0,0,1,2.115-1.522,6.284,6.284,0,0,1,2.66-.565,5.967,5.967,0,0,1,2.689.6A6.716,6.716,0,0,1,416,221.277a7.282,7.282,0,0,1,1.34,2.22,6.985,6.985,0,0,1,.478,2.526,6.884,6.884,0,0,1-.5,2.593,7.044,7.044,0,0,1-1.378,2.182,6.62,6.62,0,0,1-2.105,1.512A6.283,6.283,0,0,1,411.18,232.874Zm-3.943-6.889a5.451,5.451,0,0,0,.268,1.7,4.554,4.554,0,0,0,.775,1.455,3.853,3.853,0,0,0,1.244,1.014,3.855,3.855,0,0,0,3.369-.009,3.884,3.884,0,0,0,1.244-1.043,4.665,4.665,0,0,0,.765-1.465,5.442,5.442,0,0,0,.258-1.655,5.322,5.322,0,0,0-.277-1.7,4.737,4.737,0,0,0-.784-1.455,3.739,3.739,0,0,0-1.245-1,3.868,3.868,0,0,0-3.358.019,3.774,3.774,0,0,0-1.244,1.033,4.642,4.642,0,0,0-.756,1.455A5.412,5.412,0,0,0,407.237,225.985Z" fill="#263238"/>
          <path id="Path_160" data-name="Path 160" d="M419.849,232.779V219.191h6.009a3.866,3.866,0,0,1,1.732.392,4.5,4.5,0,0,1,1.368,1.034,4.848,4.848,0,0,1,.9,1.454,4.379,4.379,0,0,1,.326,1.637,4.508,4.508,0,0,1-.661,2.4,3.782,3.782,0,0,1-1.789,1.56l3.1,5.11h-2.967l-2.774-4.555h-2.6v4.555Zm2.641-6.871H425.8a1.389,1.389,0,0,0,.678-.172,1.72,1.72,0,0,0,.546-.469,2.3,2.3,0,0,0,.364-.7,2.715,2.715,0,0,0,.134-.861,2.459,2.459,0,0,0-.153-.881,2.293,2.293,0,0,0-.412-.7,1.867,1.867,0,0,0-.593-.46,1.546,1.546,0,0,0-.68-.162h-3.2Z" fill="#263238"/>
        </g>
      </g>
    </g>
  </g>
</svg>
