<svg id="Component_271_19" data-name="Component 271 – 19" xmlns="http://www.w3.org/2000/svg" width="162" height="102.001" viewBox="0 0 162 102.001">
  <path id="Union_3" data-name="Union 3" d="M-5417.3,14576.621a50.826,50.826,0,0,1-15.357-9.3,51.081,51.081,0,0,1-12.833-17.322H-5459a7,7,0,0,1-7-7,7,7,0,0,1,7-7h14a7.007,7.007,0,0,0,7-7,7.007,7.007,0,0,0-7-7h-5a7,7,0,0,1-7-7,7,7,0,0,1,7-7h4.516a51.116,51.116,0,0,1,12.832-17.322,50.779,50.779,0,0,1,15.357-9.3A50.782,50.782,0,0,1-5399,14478a50.683,50.683,0,0,1,19.854,4.007,50.846,50.846,0,0,1,16.21,10.93,50.84,50.84,0,0,1,10.93,16.213,50.51,50.51,0,0,1,2.822,8.852H-5333a7,7,0,0,1,7,7,7,7,0,0,1-7,7h-29a7.007,7.007,0,0,0-7,7,7.007,7.007,0,0,0,7,7h13a7,7,0,0,1,7,7,7,7,0,0,1-7,7h-9.5a51.3,51.3,0,0,1-10.752,10.429A50.647,50.647,0,0,1-5399,14580,50.764,50.764,0,0,1-5417.3,14576.621ZM-5330,14560a7,7,0,0,1-7-7,7,7,0,0,1,7-7h8a7,7,0,0,1,7,7,7,7,0,0,1-7,7Zm-140-38a7,7,0,0,1-7-7,7,7,0,0,1,7-7h4a7,7,0,0,1,7,7,7,7,0,0,1-7,7Z" transform="translate(5476.998 -14478.001)" fill="#f6f5fa"/>
  <g id="Ellipse_12" data-name="Ellipse 12" transform="translate(52 25.001)" fill="#fff" stroke="#1e7af0" stroke-width="2">
    <circle cx="3.5" cy="3.5" r="3.5" stroke="none"/>
    <circle cx="3.5" cy="3.5" r="2.5" fill="none"/>
  </g>
  <circle id="Ellipse_13" data-name="Ellipse 13" cx="2.5" cy="2.5" r="2.5" transform="translate(38 31.001)" fill="#9b99a6"/>
  <circle id="Ellipse_14" data-name="Ellipse 14" cx="1.5" cy="1.5" r="1.5" transform="translate(105 18.001)" fill="#9b99a6"/>
  <g id="Polygon_1" data-name="Polygon 1" transform="translate(103.253 39.749)" fill="#fff">
    <path d="M 4 6.222819328308105 L 3.206670045852661 5.057310104370117 L 3.099760055541992 4.900239944458008 L 2.942689895629883 4.793330192565918 L 1.777180552482605 4 L 2.942689895629883 3.206670045852661 L 3.099760055541992 3.099760055541992 L 3.206670045852661 2.942689895629883 L 4 1.777180552482605 L 4.793330192565918 2.942689895629883 L 4.900239944458008 3.099760055541992 L 5.057310104370117 3.206670045852661 L 6.222819328308105 4 L 5.057310104370117 4.793330192565918 L 4.900239944458008 4.900239944458008 L 4.793330192565918 5.057310104370117 L 4 6.222819328308105 Z" stroke="none"/>
    <path d="M 4 3.55435848236084 L 3.819509983062744 3.819509983062744 L 3.55435848236084 4 L 3.819509983062744 4.180490016937256 L 4 4.44564151763916 L 4.180490016937256 4.180490016937256 L 4.44564151763916 4 L 4.180490016937256 3.819509983062744 L 4 3.55435848236084 M 4 0 L 5.619999885559082 2.380000114440918 L 8 4 L 5.619999885559082 5.619999885559082 L 4 8 L 2.380000114440918 5.619999885559082 L 0 4 L 2.380000114440918 2.380000114440918 L 4 0 Z" stroke="none" fill="#1e7af0"/>
  </g>
  <g id="Group_15641" data-name="Group 15641" transform="translate(43.353 23.5)">
    <g id="Group_15640" data-name="Group 15640" transform="translate(8.147 0)">
      <g id="Group_15638" data-name="Group 15638" transform="translate(0.754 1.71)">
        <g id="Group_15636" data-name="Group 15636" transform="translate(0 3.598)">
          <g id="Group_15635" data-name="Group 15635">
            <g id="Group_15631" data-name="Group 15631" transform="translate(0 10.863)">
              <path id="Path_6865" data-name="Path 6865" d="M64,181.736v5.949a1.279,1.279,0,0,1-1.279,1.279H16.929a1.279,1.279,0,0,1-1.279-1.279v-5.949a1.252,1.252,0,0,1,.064-.4l6.478-19.678a1.277,1.277,0,0,1,1.215-.879H56.24a1.277,1.277,0,0,1,1.215.879l6.478,19.678A1.253,1.253,0,0,1,64,181.736Z" transform="translate(-15.65 -160.78)" fill="#f7f8fb"/>
              <path id="Path_6866" data-name="Path 6866" d="M416.092,181.736v5.949a1.279,1.279,0,0,1-1.279,1.279h-7.692c-.026-9.069.114-24.037.155-28.185h1.059a1.277,1.277,0,0,1,1.215.879l6.478,19.678A1.251,1.251,0,0,1,416.092,181.736Z" transform="translate(-367.745 -160.78)" fill="#d5d9e5"/>
              <path id="Path_6867" data-name="Path 6867" d="M15.648,181.736v5.949a1.279,1.279,0,0,0,1.279,1.279h7.692c.026-9.069-.114-24.037-.155-28.185H23.405a1.277,1.277,0,0,0-1.215.879l-6.478,19.678A1.252,1.252,0,0,0,15.648,181.736Z" transform="translate(-15.648 -160.78)" fill="#d5d9e5"/>
              <path id="Path_6868" data-name="Path 6868" d="M102.029,250.15l-3.945-11.982a1.279,1.279,0,0,0-1.215-.879H68.563a1.279,1.279,0,0,0-1.215.879L63.4,250.15a1.278,1.278,0,0,0-.064.4V256.5a1.279,1.279,0,0,0,1.279,1.279h36.2a1.279,1.279,0,0,0,1.279-1.279V250.55A1.28,1.28,0,0,0,102.029,250.15Z" transform="translate(-58.542 -229.594)" fill="#ebedf3"/>
              <ellipse id="Ellipse_17" data-name="Ellipse 17" cx="9.351" cy="2.629" rx="9.351" ry="2.629" transform="translate(14.823 13.041)" fill="#5b5555"/>
              <path id="Path_6869" data-name="Path 6869" d="M362.15,250.549V256.5a1.28,1.28,0,0,1-1.279,1.279h-4.45A1.28,1.28,0,0,0,357.7,256.5v-5.949a1.293,1.293,0,0,0-.064-.4l-3.945-11.983a1.279,1.279,0,0,0-1.215-.879h4.45a1.279,1.279,0,0,1,1.215.879l3.945,11.983A1.291,1.291,0,0,1,362.15,250.549Z" transform="translate(-318.599 -229.592)" fill="#d5d9e5"/>
              <path id="Path_6870" data-name="Path 6870" d="M63.995,369.979v11.1a1.279,1.279,0,0,1-1.279,1.279H16.926a1.279,1.279,0,0,1-1.279-1.279v-11.1a1.279,1.279,0,0,1,1.279-1.279h9.444a1.279,1.279,0,0,1,1.149.718l1.856,3.8a1.279,1.279,0,0,0,1.149.718H49.117a1.279,1.279,0,0,0,1.149-.718l1.856-3.8a1.279,1.279,0,0,1,1.149-.718h9.444a1.279,1.279,0,0,1,1.279,1.279Z" transform="translate(-15.647 -347.788)" fill="#d5d9e5"/>
              <path id="Path_6871" data-name="Path 6871" d="M441.358,369.979v11.1a1.28,1.28,0,0,1-1.279,1.279h-4.871a1.28,1.28,0,0,0,1.279-1.279v-11.1a1.28,1.28,0,0,0-1.279-1.279h4.871A1.28,1.28,0,0,1,441.358,369.979Z" transform="translate(-393.01 -347.788)" fill="rgba(152,171,187,0.53)"/>
            </g>
            <g id="Group_15632" data-name="Group 15632" transform="translate(15.421 9.348)">
              <circle id="Ellipse_18" data-name="Ellipse 18" cx="8.753" cy="8.753" r="8.753" transform="translate(0)" fill="#d5d9e5"/>
              <path id="Path_6872" data-name="Path 6872" d="M249.4,154.469a8.758,8.758,0,0,1-10.469,8.584,8.755,8.755,0,0,0,0-17.167,8.758,8.758,0,0,1,10.469,8.583Z" transform="translate(-231.896 -145.717)" fill="rgba(152,171,187,0.15)"/>
            </g>
          </g>
        </g>
        <g id="Group_15637" data-name="Group 15637" transform="translate(29.923 -9)">
          <circle id="Ellipse_19" data-name="Ellipse 19" cx="2.137" cy="2.137" r="2.137" transform="translate(0 0)" fill="#1e7af0"/>
          <path id="Path_6875" data-name="Path 6875" d="M316.905,19.138a2.136,2.136,0,0,1-3.22,1.841,1.89,1.89,0,0,0,0-3.683,2.136,2.136,0,0,1,3.219,1.842Z" transform="translate(-312.632 -17.001)" fill="#1e7af0"/>
        </g>
      </g>
      <g id="Group_15639" data-name="Group 15639" transform="translate(0 0)">
        <path id="Path_6876" data-name="Path 6876" d="M57.9,160.805l-3.455-10.494a.754.754,0,0,0-1.433.472l3.254,9.883a2.031,2.031,0,0,0-.3-.024H53.051l-3.853-11.7v-7.7h.294a.524.524,0,0,1,.5.361l1.859,5.648a.754.754,0,0,0,1.433-.472l-1.859-5.648a2.03,2.03,0,0,0-1.931-1.4H38.219a9.488,9.488,0,0,0-10.287,0H16.659a2.03,2.03,0,0,0-1.931,1.4L8.249,160.805a2.029,2.029,0,0,0-.1.636v5.373a.754.754,0,1,0,1.509,0v-4.139a.525.525,0,0,1,.525-.525h9.444a.528.528,0,0,1,.472.295l1.856,3.8a2.046,2.046,0,0,0,1.827,1.141H42.371a2.046,2.046,0,0,0,1.827-1.141l1.856-3.8a.528.528,0,0,1,.472-.295H55.97a.525.525,0,0,1,.525.525v11.1a.525.525,0,0,1-.525.525H10.18a.525.525,0,0,1-.525-.525v-3.237a.754.754,0,1,0-1.509,0v3.237a2.036,2.036,0,0,0,2.033,2.033H55.97A2.036,2.036,0,0,0,58,173.776V161.441a2.03,2.03,0,0,0-.1-.636ZM47.689,147.478a2.044,2.044,0,0,0-.461-.053H42.577a9.471,9.471,0,0,0-2.555-6.187h7.668Zm-24.116-.053H18.922a2.038,2.038,0,0,0-.461.053v-6.24h7.668A9.471,9.471,0,0,0,23.573,147.425ZM9.883,160.666,16.16,141.6a.524.524,0,0,1,.5-.361h.294v7.7l-3.853,11.7H10.18A2.03,2.03,0,0,0,9.883,160.666ZM44.7,161.783l-1.856,3.8a.528.528,0,0,1-.472.294H23.779a.528.528,0,0,1-.472-.294l-1.856-3.8a2.046,2.046,0,0,0-1.827-1.141H14.688l3.736-11.348a.524.524,0,0,1,.5-.361h4.725A9.508,9.508,0,0,0,31,157a.754.754,0,0,0,.328-1.473,8,8,0,1,1,3.4.019.754.754,0,1,0,.311,1.476,9.508,9.508,0,0,0,7.458-8.09h4.725a.524.524,0,0,1,.5.361l3.736,11.348H46.526a2.046,2.046,0,0,0-1.827,1.141Z" transform="translate(-8.147 -124.314)" fill="#0f0f0f"/>
        <path id="Path_6877" data-name="Path 6877" d="M47.166,463.9h2.76a.754.754,0,1,0,0-1.509h-2.76a.754.754,0,1,0,0,1.509Z" transform="translate(-42.563 -415.887)" fill="#1e7af0"/>
        <path id="Path_6878" data-name="Path 6878" d="M47.166,440.473h2.76a.754.754,0,1,0,0-1.509h-2.76a.754.754,0,1,0,0,1.509Z" transform="translate(-42.563 -394.814)" fill="#1e7af0"/>
        <path id="Path_6879" data-name="Path 6879" d="M233.638,246.868a.754.754,0,0,0,.49-1.328,3.714,3.714,0,0,0-4.657-.014.754.754,0,1,0,.973,1.153,2.109,2.109,0,0,1,1.346-.458h.007a2.111,2.111,0,0,1,1.351.466A.751.751,0,0,0,233.638,246.868Z" transform="translate(-206.97 -220.1)" fill="#20304f"/>
        <path id="Path_6880" data-name="Path 6880" d="M207.867,216.564h-.009a.754.754,0,0,0,0,1.509h0a.754.754,0,0,0,0-1.509Z" transform="translate(-187.093 -194.783)" fill="#20304f"/>
        <path id="Path_6881" data-name="Path 6881" d="M290.568,218.069h.017l.056,0h.007q.037,0,.074,0a.754.754,0,0,0-.054-1.5h-.032a.754.754,0,0,0-.068,1.5Z" transform="translate(-261.55 -194.784)" fill="#20304f"/>
        <path id="Path_6882" data-name="Path 6882" d="M186.318,3.574a.754.754,0,0,0,1.067,0l.61-.61.61.61a.754.754,0,0,0,1.067-1.067l-.61-.61.61-.61A.754.754,0,0,0,188.6.221l-.61.61-.61-.61a.754.754,0,0,0-1.067,1.067l.61.61-.61.61A.754.754,0,0,0,186.318,3.574Z" transform="translate(-175.2 -11)" fill="#d5d9e5"/>
        <path id="Path_6884" data-name="Path 6884" d="M355.949,77.171a.754.754,0,0,0,1.067,0l.61-.61.61.61A.754.754,0,1,0,359.3,76.1l-.61-.61.61-.61a.754.754,0,1,0-1.067-1.067l-.61.61-.61-.61a.754.754,0,0,0-1.067,1.067l.61.61-.61.61A.754.754,0,0,0,355.949,77.171Z" transform="translate(-307.77 -70.654)" fill="#d5d9e5"/>
        <path id="Path_6885" data-name="Path 6885" d="M248.862,74.421h0a.754.754,0,0,0,.754-.752l.007-2.246a.754.754,0,0,0-.752-.757h0a.754.754,0,0,0-.754.752l-.007,2.246A.754.754,0,0,0,248.862,74.421Z" transform="translate(-223.975 -63.559)" fill="#d5d9e5"/>
        <path id="Path_6886" data-name="Path 6886" d="M203.566,83.249a.754.754,0,0,0-.259,1.035l1.167,1.949a.754.754,0,0,0,1.294-.775L204.6,83.509A.754.754,0,0,0,203.566,83.249Z" transform="translate(-189.581 -74.743)" fill="#d5d9e5"/>
        <path id="Path_6887" data-name="Path 6887" d="M281.721,86.853a.754.754,0,0,0,1.036-.253l1.179-1.942a.754.754,0,1,0-1.29-.783l-1.179,1.942A.754.754,0,0,0,281.721,86.853Z" transform="translate(-247.189 -75.106)" fill="#d5d9e5"/>
        <path id="Path_6888" data-name="Path 6888" d="M298.607,15.285a2.891,2.891,0,1,0-2.891-2.891A2.894,2.894,0,0,0,298.607,15.285Zm0-4.273a1.382,1.382,0,1,1-1.382,1.382A1.384,1.384,0,0,1,298.607,11.012Z" transform="translate(-265.865 -17.547)" fill="#1e7af0"/>
      </g>
    </g>
  </g>
</svg>
