<svg xmlns="http://www.w3.org/2000/svg" width="1102" height="216.869" viewBox="0 0 1102 216.869">
  <g id="Group_14561" data-name="Group 14561" transform="translate(354.84 -127.34)">
    <path id="Path_9133" data-name="Path 9133" d="M2590.71,4252.379c-32.593,0-59.342-14.807-85.211-29.127l-.007,0c-24.194-13.394-47.045-26.045-73.209-26.045a82.063,82.063,0,0,0-18.432,2.125c-28.47,6.573-41.614,13.245-51.578,19.476h-.065a22.337,22.337,0,0,1-3.36,1.554,23.665,23.665,0,0,1-18.4-.9,23.507,23.507,0,0,1-8.394-6.792l-48.257-62.516a17.6,17.6,0,0,0-14.009-6.922,17.862,17.862,0,0,0-8.55,2.2l-22.321,12.218-2.759-5.037,22.322-12.218a23.377,23.377,0,0,1,29.862,6.25l48.257,62.515a17.931,17.931,0,0,0,14.1,6.938,16.728,16.728,0,0,0,4.442-.594,18.265,18.265,0,0,0,4.43-1.809c11.454-7.42,24.313-13.348,52.982-19.968a87.414,87.414,0,0,1,19.632-2.253,91.53,91.53,0,0,1,15.194,1.3,108.638,108.638,0,0,1,15.63,3.9c15.548,5.093,29.968,13.075,45.234,21.526l.028.015c25.221,13.961,51.3,28.4,82.587,28.4a104.073,104.073,0,0,0,16.14-1.274c20.93-3.291,36.586-12.355,46.533-26.941a64.137,64.137,0,0,0,5.824-10.63v12.238c-.348.544-.7,1.083-1.056,1.6-10.874,15.961-27.833,25.857-50.408,29.411A110.968,110.968,0,0,1,2590.71,4252.379Z" transform="translate(-1912.697 -3975)" fill="#20304f" stroke="rgba(0,0,0,0)" stroke-width="1"/>
    <path id="Path_9134" data-name="Path 9134" d="M2674.717,4206a23.38,23.38,0,0,1-18.546-9.165l-48.257-62.514a17.934,17.934,0,0,0-14.1-6.938,16.747,16.747,0,0,0-4.443.594,18.191,18.191,0,0,0-4.43,1.809c-11.458,7.421-24.318,13.35-52.983,19.968a87.427,87.427,0,0,1-19.631,2.253,91.462,91.462,0,0,1-15.194-1.3,108.514,108.514,0,0,1-15.631-3.9c-15.555-5.1-29.983-13.083-45.257-21.539l0,0c-25.219-13.961-51.3-28.4-82.586-28.4a104.142,104.142,0,0,0-16.139,1.274c-19.772,3.11-34.863,11.387-44.853,24.6v-8.883a65.669,65.669,0,0,1,19.048-13.841,88.235,88.235,0,0,1,24.912-7.554,110.874,110.874,0,0,1,17.183-1.36c32.591,0,59.34,14.807,85.208,29.127l.01,0c24.193,13.394,47.043,26.044,73.209,26.044a82.07,82.07,0,0,0,18.433-2.125c28.473-6.573,41.615-13.244,51.577-19.475h.061a22.4,22.4,0,0,1,3.364-1.553,23.661,23.661,0,0,1,18.4.9,23.5,23.5,0,0,1,8.393,6.793l48.258,62.514a17.6,17.6,0,0,0,14.01,6.922,17.864,17.864,0,0,0,8.549-2.2l22.321-12.218,2.758,5.037-22.322,12.218A23.639,23.639,0,0,1,2674.717,4206Z" transform="translate(-2647 -3906)" fill="#20304f" stroke="rgba(0,0,0,0)" stroke-width="1"/>
    <g id="Group_14504" data-name="Group 14504" transform="translate(256.068 162.483)">
      <path id="Path_144" data-name="Path 144" d="M152.6,257.012a3.454,3.454,0,0,1,3.474.344,10.859,10.859,0,0,1,4.913,8.509,3.452,3.452,0,0,1-1.439,3.18l-10.529,6.079a3.454,3.454,0,0,1-3.474-.344,10.859,10.859,0,0,1-4.912-8.509,3.452,3.452,0,0,1,1.439-3.18Z" transform="translate(-81.903 -248.94)" fill="#2359ee"/>
      <path id="Path_145" data-name="Path 145" d="M160.982,271.944a2.994,2.994,0,0,1-4.913,2.836,10.858,10.858,0,0,1-4.912-8.509,2.994,2.994,0,0,1,4.912-2.836A10.856,10.856,0,0,1,160.982,271.944Z" transform="translate(-92.432 -248.94)"/>
      <g id="Group_61" data-name="Group 61" transform="translate(0 4.879)">
        <path id="Path_146" data-name="Path 146" d="M212.333,277.517v3.135a17.387,17.387,0,0,1-7.864,13.628l-29.031,16.771-29.521-17.039-.012-25.561,28.657-13.244a19.652,19.652,0,0,1,16.114.729l13.787,7.957A17.384,17.384,0,0,1,212.333,277.517Z" transform="translate(-138.533 -253.819)" fill="#f1f1f1"/>
        <path id="Path_147" data-name="Path 147" d="M179.282,255.207a19.652,19.652,0,0,1,16.114.729l13.787,7.957c4.345,2.507,4.176,6.246-.378,8.351l-28.65,13.24-29.53-17.033Z" transform="translate(-143.252 -253.819)" fill="#f1f1f1"/>
        <path id="Path_148" data-name="Path 148" d="M208.393,279.333a8.691,8.691,0,0,1,3.936,6.812l.005,21.023-6.723,3.882-29.52-17.038-.012-25.561L183.552,265Z" transform="translate(-168.706 -253.819)" fill="#8e98b5" opacity="0.1"/>
        <g id="Group_58" data-name="Group 58" transform="translate(0 9.972)">
          <path id="Path_149" data-name="Path 149" d="M183.969,264.051a2.741,2.741,0,0,1,2.761.274l29.037,16.755a8.7,8.7,0,0,1,3.935,6.813l.005,25a2.733,2.733,0,0,1-1.157,2.537c-.663.376-3.034,1.745-3.691,2.133a2.735,2.735,0,0,1-2.777-.265l-29.036-16.755a8.693,8.693,0,0,1-3.935-6.812l-.006-25a2.763,2.763,0,0,1,1.143-2.542C180.912,265.8,183.3,264.435,183.969,264.051Z" transform="translate(-179.105 -263.791)" fill="#d5d9e5"/>
          <path id="Path_150" data-name="Path 150" d="M215.766,283.214,186.73,266.459c-2.173-1.254-3.933-.237-3.933,2.271l.006,25a8.7,8.7,0,0,0,3.934,6.812L215.774,317.3c2.172,1.254,3.933.237,3.933-2.272l-.006-25A8.69,8.69,0,0,0,215.766,283.214Z" transform="translate(-182.797 -263.791)" fill="#f1f1f1"/>
        </g>
      </g>
    </g>
    <g id="Group_14514" data-name="Group 14514" transform="translate(8.114)">
      <g id="Group_14512" data-name="Group 14512">
        <g id="Group_14506" data-name="Group 14506" transform="translate(-66 -84)">
          <path id="Path_168" data-name="Path 168" d="M228.543,262.946,218,242.335l-9.457,5.167-13.653-15.259,12.53,23.816,9.325-4.933Z" fill="#d5d9e5"/>
        </g>
        <g id="Group_14507" data-name="Group 14507" transform="translate(-66 -84)">
          <path id="Path_170" data-name="Path 170" d="M270.187,265.209l5.988-22.365,10.331,3.068,10.147-17.784L289.4,254.043l-10.153-2.867Z" fill="#d5d9e5"/>
        </g>
        <g id="Group_14508" data-name="Group 14508" transform="translate(-66 -84)">
          <path id="Path_172" data-name="Path 172" d="M250.254,262.184a1,1,0,0,1-.947-.967l-1.574-48.844a1,1,0,0,1,.967-1.032.987.987,0,0,1,1.031.967l1.574,48.845a1,1,0,0,1-.967,1.031A.779.779,0,0,1,250.254,262.184Z" fill="#d5d9e5"/>
        </g>
        <g id="Group_14509" data-name="Group 14509" transform="translate(-66 -84)">
          <path id="Path_173" data-name="Path 173" d="M238.344,255.989a1,1,0,0,1-.861-.586l-11.609-25.648a1,1,0,0,1,1.822-.824L239.3,254.578a1,1,0,0,1-.5,1.323A.979.979,0,0,1,238.344,255.989Z" fill="#d5d9e5"/>
        </g>
        <g id="Group_14510" data-name="Group 14510" transform="translate(-66 -84)">
          <path id="Path_174" data-name="Path 174" d="M262.126,257.557a1.019,1.019,0,0,1-.336-.033,1,1,0,0,1-.7-1.229l7.253-26.522a1,1,0,1,1,1.929.528l-7.253,26.522A1,1,0,0,1,262.126,257.557Z" fill="#d5d9e5"/>
        </g>
      </g>
      <g id="Group_14513" data-name="Group 14513" transform="translate(128.886 290.34)">
        <g id="Group_14506-2" data-name="Group 14506" transform="translate(0 2.263)">
          <path id="Path_168-2" data-name="Path 168" d="M228.543,232.244,218,252.855l-9.457-5.167-13.653,15.259,12.53-23.816,9.325,4.933Z" transform="translate(-194.886 -232.244)" fill="#d5d9e5"/>
        </g>
        <g id="Group_14507-2" data-name="Group 14507" transform="translate(75.301)">
          <path id="Path_170-2" data-name="Path 170" d="M270.187,228.129l5.988,22.365,10.331-3.068,10.147,17.784L289.4,239.294l-10.153,2.867Z" transform="translate(-270.187 -228.129)" fill="#d5d9e5"/>
        </g>
        <g id="Group_14508-2" data-name="Group 14508" transform="translate(52.847 3.024)">
          <path id="Path_172-2" data-name="Path 172" d="M250.254,211.341a1,1,0,0,0-.947.967l-1.574,48.844a1,1,0,0,0,.967,1.032.987.987,0,0,0,1.031-.967l1.574-48.845a1,1,0,0,0-.967-1.031A.779.779,0,0,0,250.254,211.341Z" transform="translate(-247.732 -211.34)" fill="#d5d9e5"/>
        </g>
        <g id="Group_14509-2" data-name="Group 14509" transform="translate(30.899 9.219)">
          <path id="Path_173-2" data-name="Path 173" d="M238.344,228.342a1,1,0,0,0-.861.586l-11.609,25.648a1,1,0,0,0,1.822.824l11.609-25.647a1,1,0,0,0-.5-1.323A.979.979,0,0,0,238.344,228.342Z" transform="translate(-225.785 -228.341)" fill="#d5d9e5"/>
        </g>
        <g id="Group_14510-2" data-name="Group 14510" transform="translate(66.169 7.649)">
          <path id="Path_174-2" data-name="Path 174" d="M262.126,229.041a1.019,1.019,0,0,0-.336.033,1,1,0,0,0-.7,1.229l7.253,26.522a1,1,0,1,0,1.929-.528l-7.253-26.522A1,1,0,0,0,262.126,229.041Z" transform="translate(-261.054 -229.038)" fill="#d5d9e5"/>
        </g>
      </g>
    </g>
    <g id="Group_14515" data-name="Group 14515" transform="translate(9.952 8.057)">
      <g id="Group_14505" data-name="Group 14505" transform="translate(132.294 195.242)">
        <path id="Path_9127" data-name="Path 9127" d="M88,154.3l8.229,8.229a52.357,52.357,0,0,1,74.051,0l8.229-8.229A64,64,0,0,0,88,154.3Z" transform="translate(-88 -135.552)" fill="#ea335e"/>
        <path id="Path_9128" data-name="Path 9128" d="M140.358,221.529l8.229,8.229a29.093,29.093,0,0,1,41.142,0l8.229-8.229A40.735,40.735,0,0,0,140.358,221.529Z" transform="translate(-123.904 -186.33)" fill="#ea335e"/>
        <circle id="Ellipse_106" data-name="Ellipse 106" cx="8.727" cy="8.727" r="8.727" transform="translate(36.527 49.453)" fill="#ea335e"/>
      </g>
      <g id="Group_14511" data-name="Group 14511" transform="translate(187.068 188.872)">
        <g id="Group_14369" data-name="Group 14369" transform="translate(-1.68 -1.68)">
          <circle id="Ellipse_107" data-name="Ellipse 107" cx="14.607" cy="14.607" r="14.607" transform="translate(0 0)" fill="#ea335e" stroke="#fff" stroke-width="2"/>
        </g>
        <path id="Path_9130" data-name="Path 9130" d="M376.363,370.4a1.256,1.256,0,1,0,1.776,1.776l4.132-4.134,4.132,4.134a1.256,1.256,0,1,0,1.776-1.776l-4.134-4.132,4.134-4.132a1.256,1.256,0,0,0-1.776-1.776l-4.132,4.134-4.132-4.134a1.256,1.256,0,0,0-1.776,1.776l4.134,4.132Z" transform="translate(-369.344 -353.13)" fill="#fff"/>
      </g>
    </g>
    <g id="Group_15644" data-name="Group 15644" transform="translate(-58.84 211.104)">
      <path id="Path_144-2" data-name="Path 144" d="M149.015,275.124a3.454,3.454,0,0,1-3.474-.344,10.859,10.859,0,0,1-4.913-8.509,3.452,3.452,0,0,1,1.439-3.18l10.529-6.079a3.454,3.454,0,0,1,3.474.344,10.859,10.859,0,0,1,4.912,8.509,3.452,3.452,0,0,1-1.439,3.18Z" transform="translate(-26.027 -198.877)" fill="#2359ee"/>
      <path id="Path_145-2" data-name="Path 145" d="M151.157,266.271a2.994,2.994,0,0,1,4.913-2.836,10.858,10.858,0,0,1,4.912,8.509,2.994,2.994,0,0,1-4.912,2.836A10.856,10.856,0,0,1,151.157,266.271Z" transform="translate(-26.027 -204.956)"/>
      <g id="Group_61-2" data-name="Group 61" transform="translate(119.879 15.422)">
        <path id="Path_146-2" data-name="Path 146" d="M145.907,287.353v-3.135a17.387,17.387,0,0,1,7.864-13.628L182.8,253.819l29.521,17.039.012,25.561-28.657,13.244a19.652,19.652,0,0,1-16.114-.729l-13.787-7.957A17.384,17.384,0,0,1,145.907,287.353Z" transform="translate(-145.906 -247.033)" fill="#f1f1f1"/>
        <path id="Path_147-2" data-name="Path 147" d="M183.677,284.1a19.652,19.652,0,0,1-16.114-.729l-13.787-7.957c-4.345-2.507-4.176-6.246.378-8.351l28.65-13.24,29.53,17.033Z" transform="translate(-145.906 -221.466)" fill="#f1f1f1"/>
        <path id="Path_148-2" data-name="Path 148" d="M180.02,296.715a8.691,8.691,0,0,1-3.936-6.812l-.005-21.023L182.8,265l29.52,17.038.012,25.561-7.473,3.453Z" transform="translate(-145.906 -258.211)" fill="#8e98b5" opacity="0.1"/>
        <g id="Group_58-2" data-name="Group 58" transform="translate(33.199 0)">
          <path id="Path_149-2" data-name="Path 149" d="M214.843,317.573a2.741,2.741,0,0,1-2.761-.274l-29.037-16.755a8.7,8.7,0,0,1-3.935-6.813l-.005-25a2.733,2.733,0,0,1,1.157-2.537c.663-.376,3.034-1.745,3.691-2.133a2.735,2.735,0,0,1,2.777.265l29.036,16.755a8.693,8.693,0,0,1,3.935,6.812l.006,25a2.763,2.763,0,0,1-1.143,2.542C217.9,315.82,215.509,317.189,214.843,317.573Z" transform="translate(-179.105 -263.787)" fill="#d5d9e5"/>
          <path id="Path_150-2" data-name="Path 150" d="M186.738,300.545,215.774,317.3c2.173,1.254,3.933.237,3.933-2.271l-.006-25a8.7,8.7,0,0,0-3.934-6.812L186.73,266.459c-2.172-1.254-3.933-.237-3.933,2.272l.006,25A8.69,8.69,0,0,0,186.738,300.545Z" transform="translate(-179.105 -265.922)" fill="#f1f1f1"/>
        </g>
      </g>
    </g>
  </g>
</svg>
