<svg xmlns="http://www.w3.org/2000/svg" width="24.766" height="25.482" viewBox="0 0 24.766 25.482">
  <g id="estimation" transform="translate(-7.199)">
    <g id="Group_10355" data-name="Group 10355" transform="translate(7.199)">
      <path id="Path_5260" data-name="Path 5260" d="M154.77,40.306a.5.5,0,1,0-.192.61.5.5,0,0,0,.192-.61Z" transform="translate(-146.516 -38.008)" fill="rgba(30,122,240,0.78)"/>
      <path id="Path_5261" data-name="Path 5261" d="M29.838,11.88h-7.05V4.169a1.442,1.442,0,0,0-1.44-1.44H18.182a3.227,3.227,0,0,0-6.376,0H8.639A1.442,1.442,0,0,0,7.2,4.169V20.363a1.442,1.442,0,0,0,1.44,1.44h9.723v1.552a2.13,2.13,0,0,0,2.127,2.127h9.348a2.13,2.13,0,0,0,2.127-2.127V14.007a2.13,2.13,0,0,0-2.127-2.127Zm1.132,2.127v4.178H25.663v-5.31h4.175a1.133,1.133,0,0,1,1.132,1.132Zm-6.3,4.178h-5.31V14.007a1.133,1.133,0,0,1,1.132-1.132h4.178v5.31ZM11.032,3.724h1.233a.5.5,0,0,0,.5-.5,2.231,2.231,0,1,1,4.462,0,.5.5,0,0,0,.5.5h1.233V5.111H11.032ZM8.639,20.808a.446.446,0,0,1-.445-.445V4.169a.445.445,0,0,1,.445-.445h1.4V5.608a.5.5,0,0,0,.5.5h8.919a.5.5,0,0,0,.5-.5V3.724h1.4a.446.446,0,0,1,.445.445v7.71h-1.3a2.13,2.13,0,0,0-2.127,2.127v6.8Zm10.718,2.547V21.31s0,0,0,0V19.181h5.31v5.306H20.489A1.133,1.133,0,0,1,19.358,23.355Zm11.612,0a1.133,1.133,0,0,1-1.132,1.132H25.663V19.181h5.306v4.175Z" transform="translate(-7.199)" fill="rgba(30,122,240,0.78)"/>
      <path id="Path_5262" data-name="Path 5262" d="M274.12,280a.5.5,0,0,0-.5.5v.588h-.588a.5.5,0,1,0,0,1h.588v.588a.5.5,0,0,0,1,0v-.588h.588a.5.5,0,1,0,0-1h-.588V280.5A.5.5,0,0,0,274.12,280Z" transform="translate(-259.33 -266.067)" fill="rgba(30,122,240,0.78)"/>
      <path id="Path_5263" data-name="Path 5263" d="M275.207,428.869h-2.172a.5.5,0,1,0,0,1h2.172a.5.5,0,0,0,0-1Z" transform="translate(-259.331 -407.524)" fill="rgba(30,122,240,0.78)"/>
      <path id="Path_5264" data-name="Path 5264" d="M402.635,410.932h1.725a.5.5,0,1,0,0-1h-1.725a.5.5,0,0,0,0,1Z" transform="translate(-382.481 -389.534)" fill="rgba(30,122,240,0.78)"/>
      <path id="Path_5265" data-name="Path 5265" d="M402.635,447.932h1.725a.5.5,0,1,0,0-1h-1.725a.5.5,0,1,0,0,1Z" transform="translate(-382.481 -424.693)" fill="rgba(30,122,240,0.78)"/>
      <path id="Path_5266" data-name="Path 5266" d="M404.18,288.779a.5.5,0,0,0,.7,0l.416-.416.416.416a.5.5,0,0,0,.7-.7L406,287.66l.416-.416a.5.5,0,1,0-.7-.7l-.416.416-.416-.416a.5.5,0,1,0-.7.7l.416.416-.416.416A.5.5,0,0,0,404.18,288.779Z" transform="translate(-384.284 -272.14)" fill="rgba(30,122,240,0.78)"/>
      <path id="Path_5267" data-name="Path 5267" d="M64.7,162.766H67.7a.5.5,0,0,0,.5-.5v-2.992a.5.5,0,0,0-.5-.5H64.7a.5.5,0,0,0-.5.5v2.992A.5.5,0,0,0,64.7,162.766Zm.5-2.992h2v2h-2Z" transform="translate(-61.37 -150.876)" fill="rgba(30,122,240,0.78)"/>
      <path id="Path_5268" data-name="Path 5268" d="M174.552,159.773h3.194a.5.5,0,0,0,0-1h-3.194a.5.5,0,0,0,0,1Z" transform="translate(-165.75 -150.876)" fill="rgba(30,122,240,0.78)"/>
      <path id="Path_5269" data-name="Path 5269" d="M177.145,219.394a.5.5,0,0,0-.5-.5h-2.1a.5.5,0,0,0,0,1h2.1A.5.5,0,0,0,177.145,219.394Z" transform="translate(-165.75 -208.001)" fill="rgba(30,122,240,0.78)"/>
      <path id="Path_5270" data-name="Path 5270" d="M64.7,282.611h6.077a.5.5,0,0,0,0-1H64.7a.5.5,0,0,0,0,1Z" transform="translate(-61.37 -267.6)" fill="rgba(30,122,240,0.78)"/>
      <path id="Path_5271" data-name="Path 5271" d="M68.51,336.327H64.7a.5.5,0,0,0,0,1H68.51a.5.5,0,0,0,0-1Z" transform="translate(-61.37 -319.588)" fill="rgba(30,122,240,0.78)"/>
      <path id="Path_5272" data-name="Path 5272" d="M187.254,336.795a.5.5,0,1,0-.2.617A.5.5,0,0,0,187.254,336.795Z" transform="translate(-177.383 -319.746)" fill="rgba(30,122,240,0.78)"/>
    </g>
  </g>
</svg>
