<svg xmlns="http://www.w3.org/2000/svg" width="111" height="31.938" viewBox="0 0 111 31.938">
  <g id="Group_11700" data-name="Group 11700" transform="translate(-492.7 -421.409)">
    <path id="Path_6814" data-name="Path 6814" d="M506.381,433.214l-7.6-11.806H492.7v23.456h5v-15.9l6.991,10.859h3.288l7.337-10.991v16.029h5V421.409h-6.054Z" transform="translate(0 0)" fill="#1e7af0"/>
    <g id="Group_11699" data-name="Group 11699" transform="translate(523.48 421.409)">
      <circle id="Ellipse_19" data-name="Ellipse 19" cx="3.052" cy="3.052" r="3.052" transform="translate(74.116 18.107)" fill="#1e7af0"/>
      <path id="Path_6815" data-name="Path 6815" d="M754.114,440.144h-3.936a4.712,4.712,0,0,1-4.706-4.706V421.7h-5v13.733a9.717,9.717,0,0,0,9.707,9.706h8.936V421.7h-5Z" transform="translate(-740.472 -421.668)" fill="#1e7af0"/>
      <path id="Path_6816" data-name="Path 6816" d="M921.005,426.705h3.936a4.712,4.712,0,0,1,4.706,4.706v13.733h5V431.411a9.717,9.717,0,0,0-9.707-9.707h-8.936v23.439h5Z" transform="translate(-894.199 -421.668)" fill="#1e7af0"/>
      <path id="Path_6817" data-name="Path 6817" d="M1157.591,426.41l13.884.127-13.884,10.7v7.62l20.717.04v-5l-15.717-.03v-.17l15.717-12.108V421.6l-20.717-.19Z" transform="translate(-1105.774 -421.41)" fill="#1e7af0"/>
      <path id="Path_6818" data-name="Path 6818" d="M1051.234,445.222l-5.692,4.371,3.045,3.966,7.711-5.867V421.664l-5.064-.014Z" transform="translate(-1007.644 -421.621)" fill="#1e7af0"/>
    </g>
  </g>
</svg>
